STARTFONT 2.3
FONT -FontForge-Permanent Marker-Book-R-Normal--32-320-72-72-P-185-ISO10646-1
SIZE 32 72 72  4
FONTBOUNDINGBOX 50 47 -10 -11
COMMENT "Generated by fontforge, http://fontforge.sourceforge.net"
COMMENT "Copyright (c) 2010 by Font Diner, Inc. All rights reserved."
STARTPROPERTIES 40
FOUNDRY "FontForge"
FAMILY_NAME "Permanent Marker"
WEIGHT_NAME "Book"
SLANT "R"
SETWIDTH_NAME "Normal"
ADD_STYLE_NAME ""
PIXEL_SIZE 32
POINT_SIZE 320
RESOLUTION_X 72
RESOLUTION_Y 72
SPACING "P"
AVERAGE_WIDTH 185
CHARSET_REGISTRY "ISO10646"
CHARSET_ENCODING "1"
FONTNAME_REGISTRY ""
CHARSET_COLLECTIONS "ISO10646-1"
BITS_PER_PIXEL 4
FONT_NAME "PermanentMarker-Regular"
FACE_NAME "Permanent Marker Regular"
COPYRIGHT "Copyright (c) 2010 by Font Diner, Inc. All rights reserved."
FONT_VERSION "1.001"
FONT_ASCENT 26
FONT_DESCENT 6
UNDERLINE_POSITION -3
UNDERLINE_THICKNESS 2
X_HEIGHT 18
CAP_HEIGHT 22
RAW_ASCENT 799
RAW_DESCENT 200
NORM_SPACE 12
RELATIVE_WEIGHT 40
RELATIVE_SETWIDTH 50
SUPERSCRIPT_X 0
SUPERSCRIPT_Y 14
SUPERSCRIPT_SIZE 20
SUBSCRIPT_X 0
SUBSCRIPT_Y 4
SUBSCRIPT_SIZE 20
AVG_LOWERCASE_WIDTH 182
AVG_UPPERCASE_WIDTH 217
ENDPROPERTIES
CHARS 230
STARTCHAR space
ENCODING 32
SWIDTH 370 0
DWIDTH 12 0
BBX 1 1 0 0
BITMAP
00
ENDCHAR
STARTCHAR exclam
ENCODING 33
SWIDTH 260 0
DWIDTH 8 0
BBX 9 25 0 -1
BITMAP
0000018400
00001CFC00
00005FFF70
0000AFFF70
0000EFFF60
0004FFFF80
0005FFFF40
0006FFFF00
000AFFFC00
002FFFFA00
004FFFF700
006FFFF500
008FFFF200
00AFFFD000
00CFFF8000
00BFFF3000
0017B50000
0000000000
0000000000
06C8500000
4FFFF80000
CFFFF90000
9FFFF40000
3FFFD10000
05C9100000
ENDCHAR
STARTCHAR quotedbl
ENCODING 34
SWIDTH 492 0
DWIDTH 16 0
BBX 15 16 2 8
BITMAP
00078200004A5000
001FFFA000BFFD30
005FFFF901FFFFD0
00BFFFFA05FFFFB0
02FFFFF30AFFFF60
05FFFFC00EFFFE10
08FFFF704FFFF900
0CFFFF209FFFF400
1FFFFE00DFFFE000
4FFFFA01FFFFB000
5FFFF704FFFF9000
6FFFF307FFFF3000
5FFFE00AFFFE0000
1EFF9004FFFB0000
04FF2000BFF40000
0044000027300000
ENDCHAR
STARTCHAR numbersign
ENCODING 35
SWIDTH 703 0
DWIDTH 23 0
BBX 23 23 1 0
BITMAP
000000006D200001C9000000
00000001EFB00007FF500000
00000007FFF3000EFFC00000
0000000CFFF8004FFFF10000
0000001FFFF9009FFFF20000
0000006FFFF311DFFFB00000
00589AEFFFFFFFFFFFEC6000
04FFFFFFFFFFFFFFFFFFF800
07FFFFFFFFFFFFFFFFFFFE10
06FFFFFFFFFFFFFFFDB96200
007A9FFFF5007FFFD0000000
00005FFFE000CFFF80000000
0000AFFFB012FFFF51000000
2678EFFFFFFFFFFFFD600000
EFFFFFFFFFFFFFFFFFF90000
FFFFFFFFFFFFFFFFFFE40000
DFFFFFFEDCEFFFF995100000
39CFFFF300DFFFB000000000
01EFFF9007FFFF3000000000
07FFFF700EFFFE1000000000
0AFFFF102FFFF80000000000
09FFFC001FFFF60000000000
018EB10004BE600000000000
ENDCHAR
STARTCHAR dollar
ENCODING 36
SWIDTH 493 0
DWIDTH 16 0
BBX 17 25 1 -1
BITMAP
000000000140000000
000000000BE2000000
000000004FF9000000
00000000AFFE000000
00000000EFFF520000
00000017FFFFFFE300
00015BFFFFFFFFFD00
03AFFFFFFFFFFFFF70
5FFFFFFFFFCEEDEE60
DFFFFFF72000000000
EFFFFFFC6000000000
CFFFFFFFFD20000000
19DFFFFFFF80000000
0001246CFFF5000000
000000002FFD000000
000000008FFF000000
0000003AFFFD000000
00026BFFFFF6000000
0CFFFFFFFF80000000
0DFFFFFFE500000000
0BFFFFFF3000000000
03AFFFFB0000000000
000EFFF60000000000
000BFFE20000000000
000069200000000000
ENDCHAR
STARTCHAR percent
ENCODING 37
SWIDTH 643 0
DWIDTH 21 0
BBX 20 23 1 0
BITMAP
000002A5000000000037
00003EFF3000000007FE
0006FFFF300000009FFD
007FFFFF90000008FFFA
04FFFFFFF200008FFFF5
0DFFC3EFF80009FFFF90
5FFF98EFFC006FFFF800
7FFFFFFFFC06FFFF7000
4FFFFFFFE47FFFF60000
08FFFFD718FFFF500000
002331007FFFF5000000
00000006FFFF50000000
0000007FFFF601830000
000009FFFF502DFE2000
0000AFFFE404EFFF2000
001BFFFE405FFFFF6000
00BFFFE303FFFFFFE100
07FFFE300DFFD5FFF700
1EFFF4004FFF75EFFB00
6FFFD1007FFFFFFFFC00
9FFF90006FFFFFFFF500
AFFF40000BFFFFEA3000
4BD50000004663100000
ENDCHAR
STARTCHAR ampersand
ENCODING 38
SWIDTH 599 0
DWIDTH 19 0
BBX 19 17 0 1
BITMAP
00000000002910000000
0000000005EF90000000
000000000CFFF5000000
000143005FFFF6000000
004EFF928FFFF5000000
03FFFFFFFFFFF7000000
1DFFFFFFFFFFF8530000
BFFFBCFFFFFFFFFFE300
BFFFEEFFFFFFFFFFFE50
7FFFFFFFFFFFFFFFFF60
06EFFFFFFFFFCBA96200
001687CFFFFF10000000
0000005FFFFD00000000
0000007FFFF900000000
0000008FFFF400000000
0000007FFFC000000000
00000006BA2000000000
ENDCHAR
STARTCHAR quotesingle
ENCODING 39
SWIDTH 265 0
DWIDTH 9 0
BBX 8 16 2 8
BITMAP
00078200
001FFFA0
005FFFF9
00BFFFFA
02FFFFF3
05FFFFC0
08FFFF70
0CFFFF20
1FFFFE00
4FFFFA00
5FFFF700
6FFFF300
5FFFE000
1EFF9000
04FF2000
00440000
ENDCHAR
STARTCHAR parenleft
ENCODING 40
SWIDTH 361 0
DWIDTH 12 0
BBX 14 33 1 -6
BITMAP
000000000007DC
00000000009FFE
000000000AFFFC
00000001BFFFFD
0000001CFFFFFA
000001CFFFFFF4
00000BFFFFFE60
00007FFFFFC100
0003FFFFFC1000
000CFFFFE20000
006FFFFF500000
00DFFFFD000000
04FFFFF6000000
08FFFFA0000000
0AFFFF60000000
0CFFFF10000000
2EFFFA00000000
4FFFF600000000
CFFFF300000000
DFFFF100000000
DFFFE000000000
EFFFF000000000
EFFFF000000000
FFFFF200000000
EFFFF400000000
AFFFF700000000
7FFFFB00000000
4FFFFF10000000
1DFFFE00000000
03FFFC00000000
005FFD00000000
000AFF30000000
00016A10000000
ENDCHAR
STARTCHAR parenright
ENCODING 41
SWIDTH 361 0
DWIDTH 12 0
BBX 15 33 -4 -6
BITMAP
00000000CB400000
00000000EFE20000
000000009FFC1000
000000009FFFA000
00000000BFFFF500
00000000AFFFF900
000000006FFFFB00
000000003FFFFF00
000000000FFFFF30
000000000DFFFF30
000000000CFFFF30
000000000BFFFF20
000000000BFFFF20
000000000CFFFF10
000000000FFFFF00
000000004FFFF600
000000008FFFF300
00000000EFFFF000
00000003FFFFD000
00000009FFFFA000
0000005FFFFF6000
000000BFFFFE1000
000004FFFFF70000
00001EFFFFD10000
0001CFFFFF300000
002DFFFFF8000000
07FFFFFFC0000000
2FFFFFFC10000000
7FFFFFC100000000
9FFFFA1000000000
9FFF900000000000
BFF8000000000000
6960000000000000
ENDCHAR
STARTCHAR asterisk
ENCODING 42
SWIDTH 673 0
DWIDTH 22 0
BBX 21 17 2 7
BITMAP
0000001400000002000000
000003CF900006AFA00000
00001EFFF400BFFF600000
00006FFFFE3BFFFE100000
00003FFFFFFFFFF5000000
000005FFFFFFFFA0000000
000125CFFFFFFFCAA84000
4DFFFFFFFFFFFFFFFFF810
7FFFFFFFFFFFFFFFFFFF70
6FFFFFFFFFFFFFFFEDA710
0AFFDBFFFFFFFF80000000
001108FFFFFFFFE0000000
00002EFFFD9FFFF5000000
0000AFFFF50CFFF9000000
0005FFFFD002EFF5000000
0006EFFE40004FF3000000
0000054100000340000000
ENDCHAR
STARTCHAR plus
ENCODING 43
SWIDTH 579 0
DWIDTH 19 0
BBX 17 17 0 0
BITMAP
000000003CA0000000
00000003EFF3000000
00000007FFFD000000
0000000EFFFB000000
0000003FFFFB000000
0000008FFFFB000000
02458ADFFFFEB97100
6FFFFFFFFFFFFFFC20
6FFFFFFFFFFFFFFFD0
3FFFFFFFFFFFFFFE80
09FFDEFFFFB6542000
00210CFFFF60000000
00000EFFFF20000000
00001FFFFD00000000
00002FFFF800000000
00001CFFD100000000
000000461000000000
ENDCHAR
STARTCHAR comma
ENCODING 44
SWIDTH 204 0
DWIDTH 7 0
BBX 8 11 -4 -6
BITMAP
00017100
000BFFA3
000FFFFB
004FFFFE
008FFFFB
00DFFFF7
05FFFFE1
1DFFFF60
6FFFFD00
09FFD200
00271000
ENDCHAR
STARTCHAR hyphen
ENCODING 45
SWIDTH 609 0
DWIDTH 20 0
BBX 18 6 0 5
BITMAP
02357AABBCDDBA8300
2FFFFFFFFFFFFFFF40
1FFFFFFFFFFFFFFFF3
0DFFFFFFFFFFFFFFB1
05FFEBA87776542000
001200000000000000
ENDCHAR
STARTCHAR period
ENCODING 46
SWIDTH 228 0
DWIDTH 7 0
BBX 6 6 -1 -1
BITMAP
06C850
4EFFF9
CFFFFA
8FFFF5
3FFFD1
05CA10
ENDCHAR
STARTCHAR slash
ENCODING 47
SWIDTH 401 0
DWIDTH 13 0
BBX 18 24 -2 -1
BITMAP
0000000000000007A0
000000000000008FF2
00000000000007FFF3
0000000000004FFFF3
000000000002EFFFF1
00000000000DFFFF80
00000000007FFFFA00
0000000004FFFFB000
000000003EFFFC1000
00000001DFFFE20000
0000000BFFFF300000
0000007FFFF6000000
000005FFFFA0000000
00004FFFFC00000000
0003EFFFD100000000
002DFFFE2000000000
00CFFFF40000000000
06FFFF600000000000
0BFFFA000000000000
0FFFF6000000000000
1FFFF3000000000000
0FFFF4000000000000
0AFFB0000000000000
003510000000000000
ENDCHAR
STARTCHAR zero
ENCODING 48
SWIDTH 686 0
DWIDTH 22 0
BBX 21 26 0 -1
BITMAP
0000000000000410000000
0000000000004FF4000000
00000000001CFFFD200000
0000000001BFFFFFC00000
000000000AFFFFFFF50000
00000002CFFFFFFFF20000
0000001CFFFFFFFFE00000
000000BFFFFFFFFFF20000
00001CFFFFFFFFFFF90000
00009FFFFFFFDDFFFF1000
0005FFFFFFB115FFFF8000
001EFFFFFB0000EFFFE100
008FFFFFC100007FFFF600
02FFFFFD2000001FFFFC00
09FFFFF50000000AFFFE00
0EFFFFD000000007FFFF40
3FFFFF5000000009FFFF80
6FFFFE000000006FFFFFA0
7FFFFB0000002BFFFFFF90
7FFFFD31246CFFFFFFFF60
7FFFFFFFFFFFFFFFFFFD10
2FFFFFFFFFFFFFFFFFB200
09FFFFFFFFFFFFFFFA0000
01CFFFFFFFFFFFFB600000
002CFFFFFFFFEA30000000
00004889BA620000000000
ENDCHAR
STARTCHAR one
ENCODING 49
SWIDTH 322 0
DWIDTH 10 0
BBX 9 25 0 -1
BITMAP
0003400000
000DF90000
001FFF8000
003FFFF900
001FFFFF10
001FFFFF40
000AFFFF60
0007FFFF80
0005FFFF90
0005FFFFA0
0007FFFFA0
000AFFFF90
000EFFFF70
003FFFFF40
009FFFFF10
00EFFFFC00
04FFFFF700
08FFFFF300
0DFFFFE000
1FFFFF8000
4FFFFF1000
3FFFFD0000
0EFFFC0000
05FFD20000
0011100000
ENDCHAR
STARTCHAR two
ENCODING 50
SWIDTH 650 0
DWIDTH 21 0
BBX 22 24 1 0
BITMAP
0000002343200000000000
007ADFFFFFFEB610000000
07FFFFFFFFFFFFE4000000
0CFFFFFFFFFFFFFC000000
0BFFFFFFFFFFFFFFB20000
09FFFFFFFFFFFFFFFA0000
04EFFFEB877BFFFFFF1000
00035200002DFFFFFF2000
0000000003EFFFFFFB0000
000000005EFFFFFFE20000
00000009FFFFFFFE300000
000001CFFFFFFFD2000000
00001CFFFFFFFB20000000
0000CFFFFFFE6000000000
000AFFFFFFF50000000000
008FFFFFFD400000000000
06FFFFFFB1000000169910
0CFFFFFC10246ADFFFFFC0
0FFFFFFFEFFFFFFFFFFFF2
1FFFFFFFFFFFFFFFFFFFFA
0FFFFFFFFFFFFFFFFFFFF5
0CFFFFFFFFFFFFFFFFE630
05FFFFFFFFFFFDA8520000
005ADFFEC9741000000000
ENDCHAR
STARTCHAR three
ENCODING 51
SWIDTH 561 0
DWIDTH 18 0
BBX 19 23 -1 0
BITMAP
0000002579BCEEED6000
0058BEFFFFFFFFFFF300
07FFFFFFFFFFFFFFFC00
0DFFFFFFFFFFFFFFFF60
3FFFFFFFFFFFFFFFFF80
4FFFFFFFFFFFFFFFFF20
2FFFFFFFFFFFFFFFE600
047949FFFFFFFFFB2000
00001FFFFFFFFC600000
00004FFFFFFFE1000000
00006FFFFFFFFE500000
00005FFFFFFFFFF60000
000009FFFFFFFFFF3000
0000003AEFFFFFFFC000
0000000004AFFFFFF400
000000000002EFFFF900
00000000015BFFFFF800
003D99ABDFFFFFFFF700
00AFFFFFFFFFFFFFD100
00EFFFFFFFFFFFFD3000
03FFFFFFFFFFFE910000
04FFFFFFFFFD81000000
006AABB9862000000000
ENDCHAR
STARTCHAR four
ENCODING 52
SWIDTH 582 0
DWIDTH 19 0
BBX 18 25 1 -1
BITMAP
00000000001D700000
00000000006FF40000
0000000000AFFD0000
06B0000000CFFF4000
3FFA000000FFFF6000
6FFF400002FFFF3000
5FFFA00001FFFF2000
3FFFF10003FFFF2000
1FFFF50005FFFF5730
0DFFFB333BFFFFFFB0
0AFFFFFFFFFFFFFFF4
08FFFFFFFFFFFFFFF4
06FFFFFFFFFFFFFFC1
00BFFFFFFFFFFFB600
001AFFFFFFFFA20000
0000124CFFFF100000
0000000DFFFB000000
0000001FFFF6000000
0000003FFFF1000000
0000005FFFC0000000
0000005FFFF1000000
0000002FFFF9000000
0000000DFFFF200000
00000007FFFF100000
00000000AEC8000000
ENDCHAR
STARTCHAR five
ENCODING 53
SWIDTH 580 0
DWIDTH 19 0
BBX 21 23 1 0
BITMAP
00000028C2000000000000
000018FFFD200000130000
0004EFFFFFFBCDEFFFE100
007FFFFFFFFFFFFFFFF400
06FFFFFFFFFFFFFFFFFD00
1FFFFFFFFFFFFFFFFFFF20
3FFFFFFFFFFFFFFFFFE900
5FFFFFFFFFFFC985420000
6FFFFFFFC6300000000000
4FFFFFFFE4000000000000
0CFFFFFFFFB10000000000
02EFFFFFFFFB0000000000
0029FFFFFFFF8000000000
000028DFFFFFF600000000
00000003CFFFFD00000000
0000000006FFFF60000000
000000001AFFFFB0000000
2DDCBBBCEFFFFFC0000000
5FFFFFFFFFFFFFB0000000
2FFFFFFFFFFFFF40000000
07FFFFFFFFFFF700000000
01BFFFFFFFFD6000000000
000478BC88400000000000
ENDCHAR
STARTCHAR six
ENCODING 54
SWIDTH 500 0
DWIDTH 16 0
BBX 17 25 -1 -1
BITMAP
000000000013000000
000000005BFF500000
00000007FFFFD00000
0000004FFFFFF20000
000001DFFFFFFA0000
000008FFFFFFF50000
00002FFFFFE7300000
0000AFFFFE20000000
0002FFFFF400000000
0006FFFFA000000000
000DFFFF2000000000
006FFFFC0000000000
00CFFFF7039ED70000
02FFFFD19FFFFF8000
05FFFF68FFFFFFE200
0BFFFE4FFFFFFFFD00
0FFFF99FFFFFFFFF00
3FFFF5BFFFFFFFFF10
3FFFF6FFFFFFFFFD00
4FFFFFFFFFFFFFF400
4FFFFFFFFFFFFF6000
2FFFFFFFFFFFE40000
0AFFFFFFFFF8300000
01BFFFFD8510000000
000366300000000000
ENDCHAR
STARTCHAR seven
ENCODING 55
SWIDTH 576 0
DWIDTH 18 0
BBX 20 24 0 0
BITMAP
00001000000000000000
03BDFEFEB96300000000
3FFFFFFFFFFFD6000000
7FFFFFFFFFFFFF200000
8FFFFFFFFFFFFFB10000
9FFFFFFFFFFFFFF90000
2EDBA9BDEFFFFFFC0000
00000000027FFFFE0000
00000000000AFFFD0000
00000000000AFFFB0000
00000000001FFFFB0000
0000000156AFFFFFECC4
0005ADEFFFFFFFFFFFFC
007FFFFFFFFFFFFFFFFC
00CFFFFFFFFFFFFFFFF6
00DFFFFFFFFFFFFDA730
006FFFFFFFFFE4000000
000598AFFFFF60000000
000000CFFFFA00000000
000003FFFFE100000000
000007FFFF6000000000
00000AFFFE2000000000
000008FFF90000000000
000004CDE20000000000
ENDCHAR
STARTCHAR eight
ENCODING 56
SWIDTH 537 0
DWIDTH 17 0
BBX 18 25 1 -1
BITMAP
000000343100000000
00006DFFFFB100CB10
0008FFFFFFF808FF80
009FFFFFFFFE2BFFE1
04FFFFFFFFFF79FFF5
0AFFFFFFFFFF84FFF8
0DFFFE30BFFF7BFFFA
1FFFFA003CEFFFFFF9
0FFFFC1002AFFFFFF2
0BFFFFC5BFFFFFFF60
04FFFFFFFFFFFFE600
00BFFFFFFFFFFD2000
002FFFFFFFFD810000
005FFFFFFFD1000000
00CFFFFFFFD0000000
03FFFFFFFFF4000000
06FFFC2DFFFA000000
07FFF704FFFE000000
07FFFB00EFFF400000
06FFFFFFFFFF600000
01EFFFFFFFFF100000
007FFFFFFFFD000000
001DFFFFFFF4000000
0001AFFFFB30000000
000001443000000000
ENDCHAR
STARTCHAR nine
ENCODING 57
SWIDTH 529 0
DWIDTH 17 0
BBX 17 25 1 -1
BITMAP
000000001441000000
0000005BFFFD200000
00002BFFFFFFD10000
0004EFFFFFFFFA0000
005FFFFFFFFFFF4000
04FFFFFFFFFFFFD000
0CFFFFFD507FFFF100
4FFFFF8138DFFFF400
8FFFFFEFFFFFFFFC00
AFFFFFFFFFFFFFFF30
AFFFFFFFFFFFFFFB00
7FFFFFFFFFFFFFB100
0BFFFFFFEEFFFF2000
0027975206FFFB0000
000000000AFFF60000
000000000DFFF40000
000000001FFFF10000
000000005FFFD00000
000000008FFF900000
00000000AFFF700000
00000000CFFF500000
00000000EFFF200000
00000000FFFC000000
00000000EFF5000000
000000003650000000
ENDCHAR
STARTCHAR colon
ENCODING 58
SWIDTH 241 0
DWIDTH 8 0
BBX 8 15 -1 -1
BITMAP
003BC610
00CFFFD2
00EFFFF2
00EFFFF4
006FFFD3
000CF800
00001000
00000000
00000000
06C85000
4EFFF900
CFFFFA00
8FFFF500
3FFFD100
05CA1000
ENDCHAR
STARTCHAR semicolon
ENCODING 59
SWIDTH 245 0
DWIDTH 8 0
BBX 10 20 -3 -6
BITMAP
00002AC720
0000AFFFD3
0000CFFFF4
0000DFFFF5
00004FFFD4
00000AF910
0000001000
0000000000
0000000000
0001710000
000CFEA300
001FFFFB00
004FFFFD00
008FFFFB00
00EFFFF700
05FFFFE100
1EFFFF6000
7FFFFC0000
19FFD20000
0027100000
ENDCHAR
STARTCHAR less
ENCODING 60
SWIDTH 625 0
DWIDTH 20 0
BBX 20 16 0 0
BITMAP
00000000000000002200
000000000000006DFFC2
0000000000006DFFFFF9
00000000028EFFFFFFF9
00000018CFFFFFFFFE70
00118CEFFFFFFFFE8100
4EFEFFFFFFFFFC610000
DFFFFFFFFFD820000000
CFFFFFFFD30000000000
3FFFFFFFFD8300000000
01AFFFFFFFFFD6000000
0003AFFFFFFFFFC20000
0000028DFFFFFFFB0000
0000000059CFFFFFA000
0000000000016BFFA000
00000000000000120000
ENDCHAR
STARTCHAR equal
ENCODING 61
SWIDTH 586 0
DWIDTH 19 0
BBX 18 12 0 3
BITMAP
000000122334432000
007ABDFFFFFFFFFFA0
04FFFFFFFFFFFFFFF8
06FFFFFFFFFFFFFFF9
05FFFFFEDDDCCA9730
007852000000000000
000000000000000000
024578ABDDEEEF9100
7FFFFFFFFFFFFFFA00
AFFFFFFFFFFFFFF800
9FFFFFFFFFDCCB5000
3CB964200100000000
ENDCHAR
STARTCHAR greater
ENCODING 62
SWIDTH 634 0
DWIDTH 20 0
BBX 21 16 -2 0
BITMAP
0000230000000000000000
0005FFE940000000000000
0004FFFFFEB82000000000
00004FFFFFFFFA50000000
000007FFFFFFFFFE710000
00000029FFFFFFFFFE5000
0000000015AFFFFFFFFA00
000000000029FFFFFFFF40
000000016CFFFFFFFFFF40
000005BFFFFFFFFFFEE800
0006DFFFFFFFFFC9200000
04DFFFFFFFFD9300000000
3FFFFFFFF9300000000000
3FFFFFE810000000000000
07FFE81000000000000000
0011000000000000000000
ENDCHAR
STARTCHAR question
ENCODING 63
SWIDTH 556 0
DWIDTH 18 0
BBX 19 25 1 -1
BITMAP
00001677754200000000
0005DFFFFFFFEB730000
003FFFFFFFFFFFFFE910
01EFFFFFFFFFFFFFFF90
05FFFFFFFFFFFFFFFFA0
01FFFFFFFFFFFFFFFFA0
003CA4223589EFFFFFA0
000000000005FFFFFF60
00000000019FFFFFFE10
000000005DFFFFFFF500
0000001AFFFFFFFE6000
000003DFFFFFFFA20000
00002DFFFFFFB2000000
0002EFFFFFE600000000
0006FFFFD81000000000
000CFFFD100000000000
0007EFC1000000000000
00000000000000000000
00000000000000000000
07CC4100000000000000
2FFFF900000000000000
4FFFFB00000000000000
4FFFFD00000000000000
0AFFF800000000000000
02CB2000000000000000
ENDCHAR
STARTCHAR at
ENCODING 64
SWIDTH 732 0
DWIDTH 23 0
BBX 24 25 -1 -1
BITMAP
000000000000298860000000
000000000000BFFFFD300000
000000000000BFFFFFE40000
000000000005FFFFFFFE3000
00000000004EFFFFFFFF7000
0000000019FFFFE75EFFF300
00000002DFFFFC2003FFFC00
0000005FFFFF9000117FFF60
000008EFFFE50011DD0DFFE1
0001BFFFFE3019FFFF16FFF7
000BFFFFE205EFFFFF11EFFB
009FFFFE32AFFFFFFC00AFFC
04FFFFE32DFFFFEFF800BFFB
0CFFFF51DFFFD3EFF600DFF9
2FFFFA08FFFD10EFF600EFF7
4FFFF20BFFFD78DFFB3BFFD1
1FFF9007FFFFFFFFFFFFFD20
0FFF4001DFFFFFFFFFFFB100
0DFF10002AFFFFFEA9A60000
0BFFFB400012332000000000
02EFFFFA6211000013700000
002DFFFFFFFFFFEFFFF70000
00019FFFFFFFFFFFFFFF4000
0000028EFFFFFFFFFFFF5000
000000002468999AA9720000
ENDCHAR
STARTCHAR A
ENCODING 65
SWIDTH 702 0
DWIDTH 22 0
BBX 24 25 -1 -1
BITMAP
000000000000010000000000
0000000000002EA510000000
000000000000CFFFF5000000
00000000000AFFFFFA000000
0000000024BFFFFFFC000000
00000006FFFFFFFFFE000000
0000001EFFFFFFFFFF100000
0000008FFFFFFFFFFF400000
000001EFFFFFFFFFFF700000
00000AFFFFFFACFFFFA00000
00000EFFFFFC08FFFFD00000
00006FFFFFE204FFFFF20000
0000DFFFFF6001FFFFFBA300
0005FFFFFC0013EFFFFFFF91
000DFFFFFDDEFFFFFFFFFFF5
005FFFFFFFFFFFFFFFFFFFA0
00CFFFFFDFFFFFFFFFFFE600
04FFFFFA9FFFFFFFFFFFC000
0AFFFFF22EFFEA78FFFFE000
2FFFFF8001210005FFFFF100
7FFFFF300000038EFFFFE000
6FFFFE00000003EFFFFF8000
1FFFFA000000004FFFFC0000
05EF81000000002CFF910000
001100000000000031000000
ENDCHAR
STARTCHAR B
ENCODING 66
SWIDTH 686 0
DWIDTH 22 0
BBX 22 25 -1 -1
BITMAP
0000000000234662200000
00000358CFFFFFFFF80000
0039EFFFFFFFFFFFFFC200
09FFFFFFFFFFFFFFFFFE20
9FFFFFFFFFFFFFFFFFFF90
CFFFFFFFFFB7536FFFFFE0
4FFFFFFFA10003EFFFFFD0
07FFFADFE5006EFFFFFF70
004CC2DFFF8BFFFFFFFC00
000002FFFFFFFFFFFFD100
000007FFFFFFFFFFFD2000
00000AFFFFFFFFFFF60000
00000EFFFFFFFFFFFF5000
00003FFFFFFFFFFFFFF800
00007FFFFFC952248EFF80
0000DFFFFC0000000CFFF4
0003FFFFF6000001CFFFFA
0008FFFFF100016DFFFFFD
000DFFFFB0028EFFFFFFFD
001FFFFF97BFFFFFFFFFF3
006FFFFFFFFFFFFFFFFF50
005FFFFFFFFFFFFFFFA200
000EFFFFFFFFFFFFA30000
0005FFDEFFFFEA61000000
0000483178961000000000
ENDCHAR
STARTCHAR C
ENCODING 67
SWIDTH 611 0
DWIDTH 20 0
BBX 19 23 0 0
BITMAP
00000000000007DD5000
000000000005EFFFF800
0000000006CFFFFFFF90
00000002BFFFFFFFFFD0
000002AFFFFFFFFFFFA0
00003EFFFFFFFFFFFD20
0006EFFFFFFFFFFC8100
005FFFFFFFFFD7200000
03FFFFFFFFF700000000
1DFFFFFFFB4000000000
7FFFFFFE400000000000
EFFFFFD2000000000000
FFFFFD20000000000000
EFFFF300000000000000
CFFFC000000000000000
AFFFD000000000000000
6FFFF830000000000000
1EFFFFFECB9887762000
09FFFFFFFFFFFFFFD200
01CFFFFFFFFFFFFFFB00
0019FFFFFFFFFFFFFF00
00006CFFFFFFFFFFE500
000000259BEFFDCC3000
ENDCHAR
STARTCHAR D
ENCODING 68
SWIDTH 588 0
DWIDTH 19 0
BBX 19 25 0 -1
BITMAP
00100000000000000000
009E9300000000000000
00EFFFC6000000000000
00CFFFFFEA3000000000
008FFFFFFFF800000000
02EFFFFFFFFFC2000000
02FFFEDFFFFFFE400000
00EFFD04AEFFFFF60000
00BFFF10017DFFFF5000
009FFF400000CFFFE100
008FFF6000001CFFF900
008FFF70000000CFFE00
009FFF70000000CFFF30
00CFFF60000009FFFF50
03FFFF500003BFFFFF30
06FFFF3003AFFFFFFC00
0AFFFF138FFFFFFFE200
0EFFFFCFFFFFFFFE3000
4FFFFFFFFFFFFFC20000
7FFFFFFFFFFFF8000000
6FFFFFFFFFFA20000000
3FFFFFFFE82000000000
1EFFFFD7100000000000
05FFB500000000000000
00220000000000000000
ENDCHAR
STARTCHAR E
ENCODING 69
SWIDTH 626 0
DWIDTH 20 0
BBX 21 24 0 -1
BITMAP
000000000002468ADEE300
000000037BEFFFFFFFFE70
00017BEFFFFFFFFFFFFFC0
004EFFFFFFFFFFFFFFFF70
00BFFFFFFFFFFFFFFFD600
008FFFFFFFFFFFC9630000
006FFFFFFFDB8100000000
001FFFFFC2000000000000
0008FFFFD4456760000000
0008FFFFFFFFFFF6000000
001EFFFFFFFFFFFFA10000
007FFFFFFFFFFFFFF30000
00EFFFFFFFFFFFFE500000
06FFFFFFFFFFFE81000000
0EFFFFF324332000000000
6FFFFF8000000000000000
AFFFFE1000000025600000
9FFFFC445689ADFFF81000
8FFFFFFFFFFFFFFFFF9000
5FFFFFFFFFFFFFFFFFD000
2FFFFFFFFFFFFFFFFE3000
08FFFFFFFFFFFFFFC30000
007DFFFFFEDDB962000000
0000133320000000000000
ENDCHAR
STARTCHAR F
ENCODING 70
SWIDTH 575 0
DWIDTH 18 0
BBX 24 25 -1 -1
BITMAP
000000000000000145775000
0000000000026ADFFFFFFB10
0000000038CFFFFFFFFFFFC2
0000038DFFFFFFFFFFFFFFFA
0008EFFFFFFFFFFFFFFFFFF9
002FFFFFFFFFFFFEB9765430
002FFFFFFFFFA62000000000
000AFFFFFFF3000000000000
0001DFFFFFE0000000000000
00001AFFFF90000000000000
00000BFFFF50000000000000
00112FFFFE00024551000000
08EEBFFFFFBCEFFFF9000000
6FFFFFFFFFFFFFFFFF500000
9FFFFFFFFFFFFFFFFE200000
5FFFFFFFFFFFFFFFF5000000
0CFFFFFFFFFFCA8530000000
01DFFFFD8630000000000000
00DFFFF40000000000000000
02FFFFD00000000000000000
04FFFF700000000000000000
03FFFF500000000000000000
00CFFF500000000000000000
002DFC000000000000000000
000031000000000000000000
ENDCHAR
STARTCHAR G
ENCODING 71
SWIDTH 789 0
DWIDTH 25 0
BBX 27 24 0 0
BITMAP
0000000000000002200000000000
000000000000006EF50000000000
0000000000002AFFFFC200000000
000000000007EFFFFFFB00000000
0000000004DFFFFFFFFC00000000
000000008FFFFFFFFFFD00000000
0000001AFFFFFFFFFE8100000000
000001DFFFFFFFFE810000000000
00002CFFFFFFFF81000000000000
0002DFFFFFFFC300000000000000
001DFFFFFFF8000019C300000000
00BFFFFFFF500004DFFF92000000
05FFFFFFE4000008FFFFFF810000
1EFFFFFE30000004FFFFFFFE3000
7FFFFFF500000001DFFFFFFFE300
DFFFFF70000000006FFFFFFFFF40
EFFFFB00000000027EFFFFFFFF70
BFFFE20000146ADFFFFFFFFFFF30
9FFFFAAAABFFFFFFFFFFFFFFF600
5FFFFFFFFFFFFFFFFFFFFFFD4000
1EFFFFFFFFFFFFFFFFFFFC600000
06FFFFFFFFFFFFFFFEA620000000
008FFFFFFFFFFFD8300000000000
0004BEFEDC964200000000000000
ENDCHAR
STARTCHAR H
ENCODING 72
SWIDTH 695 0
DWIDTH 22 0
BBX 23 25 -1 -1
BITMAP
000000000000000000360000
000002600000000001EF2000
00001DF20000000007FF8000
00006FFA000000000AFFE100
0000AFFF6000000009FFF900
0000DFFFF20000001CFFFF50
0000FFFFF90000003FFFFF70
0001FFFFF80000002FFFFF80
0003FFFFF60000004FFFFF80
0004FFFFF40000006FFFFF90
0006FFFFF10000008FFFFF80
000CFFFFD0000000BFFFFF40
000CFFFFA000148EFFFFFF10
001FFFFFC69CFFFFFFFFFD00
008FFFFFFFFFFFFFFFFFFA00
00BFFFFFFFFFFFFFFFFFF600
00EFFFFFFFFFFFFFFFFFE000
05FFFFFFFFFFFDDFFFFF8000
09FFFFFFFFD8209FFFFF1000
0CFFFFFFE60000CFFFFF1000
3FFFFFFE100000DFFFFF3000
0EFFFFF80000009FFFFF1000
09FFFFD10000001CFFF60000
01CFFD5000000004DB400000
001540000000000000000000
ENDCHAR
STARTCHAR I
ENCODING 73
SWIDTH 515 0
DWIDTH 17 0
BBX 23 25 -2 -1
BITMAP
000000000001122343100000
000001679CFFFFFFFFFEA200
000006FFFFFFFFFFFFFFFB20
000004FFFFFFFFFFFFFFFFA0
000003FFFFFFFFFFFFFFFE60
000000CFFFFFFFFEA9874100
00000019843FFFFB00000000
00000000005FFFF800000000
00000000009FFFF400000000
0000000000EFFFE000000000
0000000004FFFFA000000000
0000000007FFFF5000000000
000000000DFFFF1000000000
000000005FFFFC0000000000
00000000BFFFF90000000000
00000001FFFFF30000000000
00000008FFFFC00000000000
0000001EFFFF600000000000
0000007FFFFF871000000000
058ACEFFFFFFFFE400000000
1FFFFFFFFFFFFFFF30000000
0EFFFFFFFFFFFFFF20000000
0AFFFFFFFFFFFFE500000000
03FFFEA75462000000000000
003420000000000000000000
ENDCHAR
STARTCHAR J
ENCODING 74
SWIDTH 668 0
DWIDTH 21 0
BBX 27 23 -1 0
BITMAP
000000002455678AAAAAAA864000
000069CFFFFFFFFFFFFFFFFFE200
0009FFFFFFFFFFFFFFFFFFFFFD10
000EFFFFFFFFFFFFFFFFFFFFFF70
000BFFFFFFFFFFFFFFFFFFFFFF60
0007FFFFFECA99FFFFF855677500
00007EC7200002FFFFF200000000
00000000000005FFFFE000000000
00000000000008FFFFA000000000
0000000000000BFFFF6000000000
0000000000001FFFFF3000000000
0000000000004FFFFE0000000000
0000000000009FFFFA0000000000
000000000000EFFFF60000000000
000000000004FFFFF20000000000
00000000000CFFFFC00000000000
01200000007FFFFF600000000000
3FFFA53249FFFFFE100000000000
7FFFFFFFFFFFFFF9000000000000
8FFFFFFFFFFFFFE2000000000000
3FFFFFFFFFFFFE30000000000000
08FFFFFFFFFFC200000000000000
003436ACEC850000000000000000
ENDCHAR
STARTCHAR K
ENCODING 75
SWIDTH 776 0
DWIDTH 25 0
BBX 26 25 0 -1
BITMAP
00000001000000000000000000
0000004EE80000000000000000
000000DFFFE200000004B50000
000005FFFFF90000029EFF9000
00001DFFFFFB00006EFFFFFA00
00006FFFFFF4001AFFFFFFFF10
00009FFFFFD003DFFFFFFFF900
0000EFFFFF407FFFFFFFFF9000
0005FFFFFC1BFFFFFFFFD40000
000BFFFFFBDFFFFFFFF8100000
002FFFFFFFFFFFFFFC30000000
007FFFFFFFFFFFFFA000000000
00CFFFFFFFFFFFF80000000000
03FFFFFFFFFFFF400000000000
07FFFFFFFFFFFF600000000000
0BFFFFFFFFFFFFE50000000000
0DFFFFFFFFFFFFFFB642112200
2FFFFFFFFC6EFFFFFFFFFFFE50
7FFFFFFFC104EFFFFFFFFFFFF4
8FFFFFFE20003DFFFFFFFFFFF4
4FFFFFF50000019FFFFFFFFFD0
1FFFFFA0000000017EFFFFFD20
09FFFD10000000000035676000
03DFD200000000000000000000
00150000000000000000000000
ENDCHAR
STARTCHAR L
ENCODING 76
SWIDTH 632 0
DWIDTH 20 0
BBX 20 25 0 -1
BITMAP
00000040000000000000
000007FE950000000000
00000BFFFF6000000000
00001FFFFFE000000000
00005FFFFFC000000000
0000BFFFFF6000000000
0001FFFFFE1000000000
0006FFFFF90000000000
000CFFFFF40000000000
002FFFFFE00000000000
007FFFFF700000000000
00DFFFFF100000000000
04FFFFFC000000000000
08FFFFF6000000000000
0DFFFFF1000000000000
3FFFFFA0000000000000
6FFFFF50000000000000
9FFFFF20035667740000
AFFFFFBAEFFFFFFFB500
9FFFFFFFFFFFFFFFFFD1
6FFFFFFFFFFFFFFFFFF4
1DFFFFFFFFFFFFFFFFF8
06FFFFFFFFFFFEDFFFC3
00AFFFFFB73200003100
00024541000000000000
ENDCHAR
STARTCHAR M
ENCODING 77
SWIDTH 973 0
DWIDTH 31 0
BBX 31 25 0 -1
BITMAP
00000000044000000000000000000000
000000009FF400000000000005950000
00000006FFFFB300000000001EFF8000
0000001EFFFFFC0000000000BFFFF800
000000AFFFFFFF600000000AFFFFFF40
000004FFFFFFFFB0000001BFFFFFFF90
00000CFFFFFFFFA000002CFFFFFFFFA0
00005FFFFFFFFFB00002DFFFFFFFFF60
0000CFFFFFFFFFA0007EFFFFFFFFFF50
0004FFFFFFFFFFE77DFFFFFFFFFFFF00
000BFFFFFFFFFFFFFFFFFFFFFFFFFF00
002FFFFFFFFFFFFFFFFFFFFFFFFFFF00
009FFFFFFFFFFFFFFFFFFFE6DFFFFC00
01EFFFFF9EFFFFFFFFFFFC21FFFFF700
07FFFFFE15FFFFFFFFFE6005FFFFF500
0DFFFFF9007FFFFFFD710009FFFFF500
4FFFFFF500039CB95000000BFFFFF300
9FFFFFF2000000000000000EFFFFE000
CFFFFF60000000000000000FFFFFA000
CFFFFE00000000000000001FFFFF4000
AFFFF900000000000000000FFFFD0000
7FFFE000000000000000000DFFF70000
2FFFB0000000000000000007FFC10000
0BFF3000000000000000000074000000
01640000000000000000000000000000
ENDCHAR
STARTCHAR N
ENCODING 78
SWIDTH 684 0
DWIDTH 22 0
BBX 24 24 -1 0
BITMAP
000000000000000000030000
00000000AB400000004F9000
00000002FFFA0000008FFC40
00000009FFFFA00000DFFFE1
0000001EFFFFF50006FFFFF8
0000008FFFFFF8000AFFFFF8
000001EFFFFFF7000CFFFFF3
000007FFFFFFF4000EFFFFA0
00000EFFFFFFE0002FFFFF40
00006FFFFFFF80005FFFFF20
0000DFFFFFFF80009FFFFE00
0006FFFFFFFF8000DFFFFB00
000DFFFFFFFF7003FFFFF800
005FFFFFFFFF700BFFFFF700
00DFFFFFFFFF705FFFFFF600
05FFFFFFFFFF95FFFFFFF100
0CFFFFFFFFFFEFFFFFFFB000
4FFFFFFF5EFFFFFFFFFF7000
3FFFFFFC08FFFFFFFFFE1000
1FFFFFE201DFFFFFFFF40000
0BFFFFA0004FFFFFFF900000
05FFFF600005FFFFFC000000
00BFFF1000004EFF90000000
002CD3000000014200000000
ENDCHAR
STARTCHAR O
ENCODING 79
SWIDTH 744 0
DWIDTH 24 0
BBX 23 25 0 -1
BITMAP
000000000000009930000000
0000000000005AFFE1000000
000000000006FFFFFD200000
00000000007FFFFFFFC00000
000000002AFFFFFFFFD00000
00000002DFFFFFFFFF700000
0000002DFFFFFFFFFFA00000
000005EFFFFFFFFFFFF20000
00003FFFFFFFFFDFFFFA0000
0002EFFFFFFC350CFFFF3000
000BFFFFFF900004FFFFB000
007FFFFFF7000000BFFFF400
02FFFFFF700000002FFFFB00
09FFFFF80000000009FFFD00
1FFFFFD10000000005FFFF30
5FFFFF300000000009FFFF80
8FFFFA00000000029FFFFFA0
AFFFF6000000039FFFFFFF80
9FFFFC644689EFFFFFFFFF40
8FFFFFFFFFFFFFFFFFFFF900
1EFFFFFFFFFFFFFFFFFF7000
07FFFFFFFFFFFFFFFFD40000
008FFFFFFFFFFFFE84000000
0005CFFFFFFEB95100000000
000001324520000000000000
ENDCHAR
STARTCHAR P
ENCODING 80
SWIDTH 639 0
DWIDTH 20 0
BBX 21 25 1 -1
BITMAP
0000000001454530000000
00000003BFFFFFFE920000
0000007FFFFFFFFFFE3000
000007FFFFFFFFFFFFC000
00002FFFFFFFFFFFFFF500
0000AFFFFFFFFFFFFFFB00
0002FFFFFFEDDFFFFFFF10
0006FFFFD400015DFFFF40
003DFFFF5000017EFFFF60
04FFFFFD0026CFFFFFFF50
0DFFFFFFAEFFFFFFFFFF30
5FFFFFFFFFFFFFFFFFFD00
7FFFFFFFFFFFFFFFFFD200
BFFFFFFFFFFFFFFFF91000
8FFFFFFFFFFFFFE9200000
3FFFFFFFFFEB7400000000
0DFFFFD963000000000000
0EFFFF6000000000000000
2FFFFF6000000000000000
5FFFFF5000000000000000
7FFFFF3000000000000000
BFFFFE0000000000000000
6FFFF90000000000000000
0DFFF20000000000000000
0263100000000000000000
ENDCHAR
STARTCHAR Q
ENCODING 81
SWIDTH 744 0
DWIDTH 24 0
BBX 24 26 -1 -2
BITMAP
000000000000044230000000
0000000000006FFFFA100000
0000000000008FFFFFD20000
000000000000BFFFFFFD2000
000000000007FFFFFFFF8000
00000000009FFFFFFFFFE100
000000002DFFFFFFFFFFFA00
00000004DFFFFFFFEFFFFF40
0000005FFFFFFFE506FFFFC0
00000AFFFFFFFB20009FFFF4
0000AFFFFFFF7000001EFFFC
0009FFFFFFE400000009FFFE
007FFFFFFD208974000AFFFF
02EFFFFFD204FFFF702FFFFF
09FFFFFD2001EFFFF5CFFFFD
0EFFFFF300005FFFFFFFFFFB
1FFFFF70000008FFFFFFFFF5
0EFFFD0000016BFFFFFFFFA0
0CFFF60037BFFFFFFFFFFB00
0CFFFECEFFFFFFFFFFFFF200
09FFFFFFFFFFFFFFFFFFF500
05FFFFFFFFFFFFFFFFFFFA00
006FFFFFFFFFFFC72EFFFE00
0003AFFFFFDA720008FFFF50
000002553100000002EFFE20
0000000000000000003DD400
ENDCHAR
STARTCHAR R
ENCODING 82
SWIDTH 646 0
DWIDTH 21 0
BBX 21 26 0 -2
BITMAP
0000000000044000000000
0000000002CFFA10000000
000000002DFFFFD1000000
00000001DFFFFFFC200000
0000000AFFFFFFFFA00000
0000006FFFFFFFFFF50000
000325FFFFFFFFFFFC0000
000DFFFFFFD3CFFFFF3000
003FFFFFFD201EFFFF9000
006FFFFFE30009FFFFC000
00AFFFFF7005BFFFFFC000
00DFFFFF89EFFFFFFF8000
01FFFFFFFFFFFFFFFE1000
06FFFFFFFFFFFFFFD30000
0AFFFFFFFFFFFFD7100000
0AFFFFFFFFFEA400000000
0EFFFFFFFF500000000000
1FFFFFFFFFC30000000000
4FFFFFFFFFFF9300000000
7FFFFFFFFFFFFFEB742000
7FFFFA6FFFFFFFFFFFFE20
3FFFF703DFFFFFFFFFFF80
0FFFE10007DFFFFFFFFFA0
06ED60000005AFFFFFFF80
001100000000016AEFFC10
0000000000000000011000
ENDCHAR
STARTCHAR S
ENCODING 83
SWIDTH 576 0
DWIDTH 18 0
BBX 22 25 0 -1
BITMAP
0000000000000134542000
000000000048CFFFFFFD10
000000159EFFFFFFFFFF80
00003AFFFFFFFFFFFFFFF2
004CFFFFFFFFFFFFFFFFFB
07FFFFFFFFFFFFFFFFFFFC
4FFFFFFFFFFB8548655771
7FFFFFFFF8100000000000
9FFFFFFFFEA30000000000
8FFFFFFFFFFE9100000000
3FFFFFFFFFFFF900000000
03BFFFFFFFFFFE00000000
00003469AFFFFFB0000000
00000000017CFFF6000000
000000000000EFFC000000
000000000008FFFD000000
00000000007FFFFD000000
000000005DFFFFF8000000
0000027DFFFFFFE2000000
01BBDFFFFFFFFF50000000
02FFFFFFFFFFF600000000
02FFFFFFFFFD4000000000
01FFFFFFFE710000000000
00BFFFFC61000000000000
0015532000000000000000
ENDCHAR
STARTCHAR T
ENCODING 84
SWIDTH 607 0
DWIDTH 19 0
BBX 25 25 0 -1
BITMAP
00000000000000000234552000
0000000012CD89BDFFFFFFF400
699AACDEFFFFFFFFFFFFFFFF40
EFFFFFFFFFFFFFFFFFFFFFFFC0
DFFFFFFFFFFFFFFFFFFFFFFFC0
9FFFFFFFFFFFFFFFFFFDDCB720
4FFFFFFFFFFFFFA64200000000
04ABA987AFFFFF100000000000
00000000DFFFFA000000000000
00000003FFFFF4000000000000
0000000DFFFFD0000000000000
0000004FFFFF70000000000000
0000009FFFFE10000000000000
000000EFFFF800000000000000
000005FFFFE200000000000000
00000AFFFF9000000000000000
00001FFFFF4000000000000000
00004FFFFB0000000000000000
00006FFFF60000000000000000
00006FFFF20000000000000000
00004FFFF00000000000000000
00000EFFF91000000000000000
000009FFFF6000000000000000
000003BFFF4000000000000000
00000006950000000000000000
ENDCHAR
STARTCHAR U
ENCODING 85
SWIDTH 695 0
DWIDTH 22 0
BBX 22 24 1 0
BITMAP
0000000000000000001000
000000000000000001EB10
000000000000000003FFB0
001910000000000008FFE0
02DF8000000000000DFFF4
05FFF700000000000FFFF9
08FFFE00000000003FFFFE
0BFFFF50000000007FFFFF
0CFFFFA000000000CFFFFB
0FFFFFC000000003FFFFF8
3FFFFF800000000AFFFFF6
5FFFFF400000004FFFFFF2
6FFFFF20000001DFFFFF80
6FFFFF1000001DFFFFFE10
6FFFFF100003DFFFFFF700
5FFFFF30018FFFFFFFD000
5FFFFF95AEFFFFFFF93000
4FFFFFFFFFFFFFFFA10000
0AFFFFFFFFFFFFFE100000
06FFFFFFFFFFFFF4000000
02FFFFFFFFFFFE40000000
009FFFFFFFFFB200000000
001CFFFFFFC40000000000
000069AB93000000000000
ENDCHAR
STARTCHAR V
ENCODING 86
SWIDTH 583 0
DWIDTH 19 0
BBX 19 25 2 -1
BITMAP
00000000000000022000
2DB000000000002DFD30
CFF50000000001DFFF90
EFFF400000001CFFFFE0
DFFFC0000000AFFFFFD0
CFFFF3000006FFFFFF80
BFFFF700003EFFFFFE20
AFFFFA0000CFFFFFF400
9FFFFC0007FFFFFF7000
9FFFFD002FFFFFF90000
9FFFFE00BFFFFFC00000
9FFFFF06FFFFFE200000
7FFFFF5EFFFFF4000000
3FFFFFEFFFFF80000000
2FFFFFFFFFFD10000000
0FFFFFFFFFF600000000
0DFFFFFFFFB000000000
09FFFFFFFE1000000000
06FFFFFFF90000000000
03FFFFFFD10000000000
00EFFFFF200000000000
007FFFFE000000000000
004EFFFA000000000000
0005FFC2000000000000
00001300000000000000
ENDCHAR
STARTCHAR W
ENCODING 87
SWIDTH 994 0
DWIDTH 32 0
BBX 34 25 0 -1
BITMAP
0000000000000000000000000000021000
00000085000000000000000000000CD200
00000AFF500000000000000000005FFD20
00005FFFF500000005C300000000CFFF90
0000CFFFFE0000002EFF40000003FFFFF1
0004FFFFFA000000CFFFE200000AFFFFF4
000AFFFFF6000007FFFFF800001FFFFFF4
001FFFFFF100002EFFFFF700006FFFFFC0
005FFFFFB00000BFFFFFF40000CFFFFF50
009FFFFF600005FFFFFFF10003FFFFFD00
00DFFFFF10001DFFFFFFD0000AFFFFF700
01FFFFFB00008FFFFFFFA0002FFFFFE100
05FFFFF60002FFFFFFFF60008FFFFF9000
08FFFFF2000CFFFFFFFF4002FFFFFF3000
0BFFFFE0009FFFFFFFFF300BFFFFFB0000
0EFFFFB008FFFFFFFFFF409FFFFFF40000
2FFFFF809FFFFFFFFFFF9BFFFFFFC00000
5FFFFF9CFFFFFFFDEFFFFFFFFFFF400000
2FFFFFFFFFFFFFD26FFFFFFFFFFB000000
0BFFFFFFFFFFFC100DFFFFFFFFF2000000
03FFFFFFFFFFB10005FFFFFFFF70000000
00AFFFFFFFF7000000BFFFFFF900000000
001BFFFFFC300000002EFFFFA000000000
00004BB8300000000004EFE70000000000
0000000000000000000011000000000000
ENDCHAR
STARTCHAR X
ENCODING 88
SWIDTH 623 0
DWIDTH 20 0
BBX 23 24 -1 -1
BITMAP
0000B9400000000000026000
0003FFF910000000008FF900
0005FFFFC10000003DFFFF30
0005FFFFFC100007FFFFFFB0
0007FFFFFFA001BFFFFFFFA0
0001EFFFFFF65EFFFFFFFF20
00007FFFFFFFFFFFFFFFA300
000008FFFFFFFFFFFFE50000
000000BFFFFFFFFFFA100000
0000002FFFFFFFFF70000000
0000001DFFFFFFE400000000
000002CFFFFFFF6000000000
00001DFFFFFFFFE100000000
0001CFFFFFFFFFF900000000
001CFFFFFFFFFFFF50000000
00AFFFFFFE8FFFFFE1000000
05FFFFFFD20AFFFFFD000000
0DFFFFFC1001EFFFFF300000
3FFFFFD100006FFFFF900000
6FFFFE3000000DFFFFD00000
7FFFF500000006FFFFC00000
4FFFE000000001EFFF400000
0BFFA0000000002CF8000000
02DA10000000000020000000
ENDCHAR
STARTCHAR Y
ENCODING 89
SWIDTH 493 0
DWIDTH 16 0
BBX 19 25 1 -1
BITMAP
02300000000000480000
0EFA200000002CFF9000
2FFFF6000002DFFFFC10
1FFFFE00000BFFFFFF30
0DFFFF2001CFFFFFFD10
0DFFFF5006FFFFFFD200
0BFFFF802EFFFFFE2000
08FFFFC0CFFFFFE30000
05FFFFEAFFFFFF600000
03FFFFFFFFFFF6000000
00DFFFFFFFFFB0000000
007FFFFFFFFE20000000
001EFFFFFFF700000000
0006FFFFFFE000000000
0002FFFFFF5000000000
000AFFFFFB0000000000
003FFFFFE20000000000
00BFFFFF800000000000
03FFFFFD000000000000
0BFFFFF7000000000000
3FFFFFD1000000000000
8FFFFF30000000000000
8FFFFC00000000000000
2EFFF400000000000000
02BE8000000000000000
ENDCHAR
STARTCHAR Z
ENCODING 90
SWIDTH 664 0
DWIDTH 21 0
BBX 24 25 -1 -2
BITMAP
0000019ACEEDBABBBAACA400
000005FFFFFFFFFFFFFFFF10
000004FFFFFFFFFFFFFFFFC1
000001FFFFFFFFFFFFFFFFF3
0000009FFFFFFFFFFFFFFFF1
00000009BA8765DFFFFFFF90
00000000000009FFFFFFF900
000000000000CFFFFFFE5000
00000000003DFFFFFFD20000
0000000018FFFFFFFD100000
00000005DFFFFFFFD2000000
000001AFFFFFFFFC10000000
00002CFFFFFFFF8000000000
0007FFFFFFFFD30000000000
01BFFFFFFFF8000000000000
07FFFFFFFD40000000100000
0DFFFFFFB10000039EE50000
2FFFFFF900027CFFFFFC7000
4FFFFFFD79DFFFFFFFFFE000
4FFFFFFFFFFFFFFFFFFF9000
1EFFFFFFFFFFFFFFFFD60000
06FFFFFFFFFFFFFFA5000000
00BFFFFFFFFDBA5100000000
0008BFFFEA72000000000000
000014420000000000000000
ENDCHAR
STARTCHAR bracketleft
ENCODING 91
SWIDTH 387 0
DWIDTH 12 0
BBX 24 35 -1 -6
BITMAP
0000000012489ABBCDCA9500
00000009FFFFFFFFFFFFFF80
0000000BFFFFFFFFFFFFFFF8
00000008FFFFFFFFFFFFFFF8
0000000AFFFFFFFEEDDBA730
0000000DFFFD310000000000
0000001FFFF9000000000000
0000004FFFF5000000000000
0000008FFFF2000000000000
000000CFFFD0000000000000
000001FFFFA0000000000000
000005FFFF60000000000000
000009FFFF20000000000000
00000DFFFE00000000000000
00002FFFFA00000000000000
00006FFFF600000000000000
0000AFFFF200000000000000
0000EFFFE000000000000000
0004FFFFA000000000000000
0008FFFF7000000000000000
000CFFFF4000000000000000
001FFFFE0000000000000000
005FFFFA0000000000000000
00AFFFF50000000000000000
00EFFFF10000000000000000
04FFFFB00000000000000000
08FFFF700000000000000000
0DFFFF200000000000000000
2FFFFC134455400000000000
7FFFFFFFFFFFF90000000000
DFFFFFFFFFFFFFA000000000
CFFFFFFFFFFFFFA000000000
7FFFFFFFFFFEEA2000000000
1EFFC9643510000000000000
022000000000000000000000
ENDCHAR
STARTCHAR backslash
ENCODING 92
SWIDTH 352 0
DWIDTH 11 0
BBX 8 25 2 -1
BITMAP
85000000
FFA00000
FFFA0000
EFFF4000
CFFF6000
9FFF8000
6FFFA000
4FFFB000
1FFFD000
0CFFF000
09FFF300
07FFF500
05FFF900
03FFFC00
00EFFE00
00BFFF30
009FFF60
007FFF80
005FFF90
003FFFA0
004FFFD0
004FFFF1
002FFFF4
000CFFE0
0002AA50
ENDCHAR
STARTCHAR bracketright
ENCODING 93
SWIDTH 403 0
DWIDTH 13 0
BBX 23 35 -9 -6
BITMAP
00000000356BCDEFFFDB6000
00000004FFFFFFFFFFFFF600
00000004FFFFFFFFFFFFFF30
00000003FFFFFFFFFFFFFF20
00000000CFFFFDCCDFFFFE00
00000000296300001FFFFB00
00000000000000003FFFF700
00000000000000006FFFF400
0000000000000000AFFFF100
0000000000000000EFFFC000
0000000000000003FFFF8000
0000000000000008FFFF4000
000000000000000CFFFF1000
000000000000001FFFFC0000
000000000000004FFFF80000
000000000000007FFFF40000
00000000000000BFFFE00000
00000000000001FFFFB00000
00000000000005FFFF700000
0000000000000AFFFF300000
0000000000000EFFFF000000
0000000000004FFFFC000000
0000000000008FFFF8000000
000000000000CFFFF3000000
000000000002FFFFD0000000
000000000007FFFF90000000
00000000000BFFFF40000000
00000000001FFFFE00000000
00000013448FFFFA00000000
368ACEFFFFFFFFF500000000
DFFFFFFFFFFFFFF100000000
CFFFFFFFFFFFFFA000000000
7FFFFFFFFFFEEA2000000000
1EFFC9643510000000000000
022000000000000000000000
ENDCHAR
STARTCHAR asciicircum
ENCODING 94
SWIDTH 518 0
DWIDTH 17 0
BBX 15 19 0 5
BITMAP
0000000004B70000
000000002FFF7000
000000006FFFD000
00000001CFFFF400
00000009FFFFF700
0000001FFFFFFA00
000000CFFFFFFD00
000006FFFFFFFF00
00001DFFFEFFFF10
0000AFFFF4FFFF50
0006FFFF90DFFF60
004FFFFD10CFFF60
02EFFFF500BFFF60
1CFFFFA0008FFF70
8FFFFD10005FFF80
DFFFF300001EFF90
CFFF50000004FF90
7FF6000000009F40
0240000000000200
ENDCHAR
STARTCHAR underscore
ENCODING 95
SWIDTH 708 0
DWIDTH 23 0
BBX 27 6 -4 -2
BITMAP
0356678BCCCCCCCCDDBA98630000
1EFFFFFFFFFFFFFFFFFFFFFFA100
0CFFFFFFFFFFFFFFFFFFFFFFFF50
07FFFFFFFFFFFFFFFFFFFFFFFC40
007EFECB98777777766655420000
0000100000000000000000000000
ENDCHAR
STARTCHAR grave
ENCODING 96
SWIDTH 754 0
DWIDTH 24 0
BBX 10 10 9 14
BITMAP
01B5000000
0CFF700000
6FFFFB0000
AFFFFFA000
5EFFFFFA00
02CFFFFF80
000AFFFFF7
00008FFFF8
000005EFF7
00000018A1
ENDCHAR
STARTCHAR a
ENCODING 97
SWIDTH 581 0
DWIDTH 19 0
BBX 20 20 -1 -1
BITMAP
00000000004E95000000
0000000002EFFF800000
000000002DFFFFC00000
0000006CFFFFFFF00000
000002FFFFFFFFF10000
00000AFFFFFFFFF40000
00003FFFFFEFFFF80000
0000AFFFFF4DFFFB0000
0001EFFFF709FFFE0000
0007FFFFC005FFFF8700
001EFFFF3237FFFFFFC3
007FFFFFFFFFFFFFFFF6
00EFFFFFFFFFFFFFFF70
06FFFF9FFFFFFFFFF600
0CFFFE09FFEB9EFFF800
4FFFF70022001DFFF900
8FFFF2000006DFFFF700
4FFFD0000002DFFFD100
0BFE400000008FFC2000
00420000000005400000
ENDCHAR
STARTCHAR b
ENCODING 98
SWIDTH 573 0
DWIDTH 18 0
BBX 19 21 -1 -1
BITMAP
00000000234550000000
000158BEFFFFFFA20000
03AFFFFFFFFFFFFE3000
5FFFFFFFFFFFFFFFE100
DFFFFFFFFB97CFFFF600
6FFFFFF71006FFFFF600
09FFAEFC108FFFFFE100
00582EFFCDFFFFFF5000
00004FFFFFFFFFF60000
00007FFFFFFFFF900000
0000BFFFFFFFFFE40000
0000EFFFFFFFFFFF6000
0004FFFFA52003CFF500
0008FFFF100002DFFE00
001EFFFA00005EFFFF30
006FFFF5017DFFFFFF40
009FFFF8BFFFFFFFFA00
00DFFFFFFFFFFFFFA100
009FFFFFFFFFFFB30000
003FFFFFFFFD83000000
0003A44AA82000000000
ENDCHAR
STARTCHAR c
ENCODING 99
SWIDTH 513 0
DWIDTH 16 0
BBX 16 20 0 -1
BITMAP
00000000002BE920
0000000029FFFFB2
00000018FFFFFFFA
000007DFFFFFFFFA
0001BFFFFFFFFFE2
002EFFFFFFFFD820
01DFFFFFFE820000
0CFFFFFFD2000000
7FFFFFE500000000
DFFFFC1000000000
FFFFC10000000000
EFFF400000000000
CFFE000000000000
9FFF600000000000
3FFFFFC987655300
0CFFFFFFFFFFFF40
02DFFFFFFFFFFFD0
0019FFFFFFFFFFC0
000037BEFFFFFA10
0000000013311000
ENDCHAR
STARTCHAR d
ENCODING 100
SWIDTH 497 0
DWIDTH 16 0
BBX 16 21 0 -1
BITMAP
0010000000000000
00EB610000000000
03FFFE8300000000
00EFFFFFD3000000
03EFFFFFFF800000
06FFFDFFFFFB1000
04FFF04AEFFFD200
01FFF30018FFFD10
00EFF500006FFF80
00DFF6000005FFE1
00DFF7000001EFF4
02FFF600001BFFF5
07FFF50005DFFFF3
0AFFF304EFFFFFA0
0EFFF8DFFFFFFC10
4FFFFFFFFFFFA100
7FFFFFFFFFE60000
6FFFFFFFE8100000
3FFFFFC600000000
0BFFA40000000000
0152000000000000
ENDCHAR
STARTCHAR e
ENCODING 101
SWIDTH 521 0
DWIDTH 17 0
BBX 18 20 0 -1
BITMAP
000000001468ADED30
0000148CFFFFFFFFF5
003BFFFFFFFFFFFFF5
01EFFFFFFFFFFFFF80
00EFFFFFFFFEC95100
00BFFFFFCA61000000
006FFFF60000000000
000EFFFDBCCD800000
005FFFFFFFFFF91000
00CFFFFFFFFFFF6000
04FFFFFFFFFFF80000
0BFFFFCDDCC9200000
3FFFFB000000000000
9FFFF3000000130000
AFFFD334678BFF9100
8FFFFFFFFFFFFFFA00
5FFFFFFFFFFFFFFA00
1EFFFFFFFFFFFFC100
04EFFFFFFFFC940000
000356541200000000
ENDCHAR
STARTCHAR f
ENCODING 102
SWIDTH 455 0
DWIDTH 15 0
BBX 20 21 -1 -1
BITMAP
00000000000002466300
00000000038BEFFFFF50
00000159EFFFFFFFFFF6
0005AEFFFFFFFFFFFFFC
007FFFFFFFFFFFDBA983
008FFFFFFFB730000000
003EFFFFF70000000000
0005DFFFF20000000000
00006FFFB00000000000
0000CFFF700012100000
08EAFFFFDACEFF900000
6FFFFFFFFFFFFFF50000
8FFFFFFFFFFFFFD10000
3FFFFFFFFFFFDB300000
07FFFFEC953100000000
02FFFF20000000000000
06FFFC00000000000000
08FFF600000000000000
05FFF600000000000000
00BFF200000000000000
00043000000000000000
ENDCHAR
STARTCHAR g
ENCODING 103
SWIDTH 652 0
DWIDTH 21 0
BBX 23 21 0 -1
BITMAP
000000000000020000000000
000000000002BF9100000000
00000000007EFFFE30000000
000000004DFFFFFF80000000
00000009FFFFFFFF90000000
000001BFFFFFFFE810000000
00002EFFFFFFF81000000000
0002DFFFFFFA200000000000
002EFFFFFE50002400000000
01DFFFFFC20007EFA2000000
08FFFFFC10002EFFFF910000
2FFFFFB100000DFFFFFE4000
AFFFFC10000006FFFFFFE500
EFFFE200000001DFFFFFFF10
CFFF60000136AEFFFFFFFE10
AFFF9888DFFFFFFFFFFFF500
6FFFFFFFFFFFFFFFFFFC3000
1EFFFFFFFFFFFFFFEA300000
05FFFFFFFFFFFC8300000000
005DFFFFDA86200000000000
000023210000000000000000
ENDCHAR
STARTCHAR h
ENCODING 104
SWIDTH 582 0
DWIDTH 19 0
BBX 19 21 -1 -1
BITMAP
00000000000000034000
000027000000001DE000
0000BF300000005FF600
0002FFC10000006FFD00
0006FFF90000007FFF90
0008FFFF100000DFFFD0
0009FFFF100000CFFFE0
000BFFFE000000EFFFE0
000CFFFB000001FFFFE0
002FFFF9000004FFFFB0
003FFFF600048EFFFF80
007FFFF99CFFFFFFFF50
00EFFFFFFFFFFFFFFF20
01FFFFFFFFFFFFFFFC00
05FFFFFFFFFFFFFFF500
0BFFFFFFFA41DFFFD000
0EFFFFFA2001FFFFD000
3FFFFFA00001FFFFF000
0CFFFF300000AFFFA000
06FFF80000002DF91000
00473000000000100000
ENDCHAR
STARTCHAR i
ENCODING 105
SWIDTH 320 0
DWIDTH 10 0
BBX 8 21 1 -1
BITMAP
00000100
0001AF30
0008FF70
000DFFE1
003FFFF2
008FFFF6
009FFFF7
00DFFFF1
02FFFFB0
06FFFF60
0AFFFF20
0DFFFD00
0EFFFB00
0FFFF900
1FFFF700
3FFFF600
0EFFF700
0AFFF900
05FFFA00
01EFF500
00352000
ENDCHAR
STARTCHAR j
ENCODING 106
SWIDTH 534 0
DWIDTH 17 0
BBX 23 20 -1 -1
BITMAP
000000356788ABBBBBA85000
0007CFFFFFFFFFFFFFFFF400
005FFFFFFFFFFFFFFFFFFE10
004FFFFFFFFFFFFFFFFFFF30
001EFFFFDBABFFFF87788500
0003BA510006FFFF00000000
000000000009FFFC00000000
00000000000CFFF800000000
00000000001FFFF400000000
00000000005FFFF100000000
00000000009FFFB000000000
0000000001EFFF8000000000
0000000005FFFF3000000000
000000001EFFFD0000000000
3DEA4225CFFFF70000000000
8FFFFFFFFFFFE10000000000
8FFFFFFFFFFF600000000000
2EFFFFFFFFF6000000000000
0398AEFFDA30000000000000
000000120000000000000000
ENDCHAR
STARTCHAR k
ENCODING 107
SWIDTH 645 0
DWIDTH 21 0
BBX 22 21 0 -1
BITMAP
0000001000000000000000
000005FD40000000000000
00001EFFF70000019E4000
00007FFFFC00007EFFF600
0001EFFFF9002CFFFFFF10
0005FFFFF204EFFFFFFC00
0009FFFF808FFFFFFFB100
000EFFFF4CFFFFFFE60000
005FFFFFEFFFFFFA100000
00BFFFFFFFFFFF50000000
02FFFFFFFFFFE300000000
07FFFFFFFFFD1000000000
0BFFFFFFFFFF4000000000
0FFFFFFFFFFFE710000000
2FFFFFFFBEFFFFFDBBBC20
7FFFFFF704EFFFFFFFFFE2
9FFFFFA0003DFFFFFFFFF2
4FFFFE1000018DFFFFFF90
1EFFF4000000006ACDD800
09FF800000000000000000
0054000000000000000000
ENDCHAR
STARTCHAR l
ENCODING 108
SWIDTH 533 0
DWIDTH 17 0
BBX 17 21 0 -1
BITMAP
000003000000000000
00005FD92000000000
0000AFFFD100000000
0000EFFFF300000000
0004FFFFC000000000
0009FFFF7000000000
000EFFFF1000000000
005FFFFA0000000000
00BFFFF50000000000
01FFFFD00000000000
07FFFF900000000000
0BFFFF300000000000
1FFFFC000000000000
5FFFF7000000000000
8FFFF4001233200000
AFFFF98DFFFFFC5000
9FFFFFFFFFFFFFFD00
5FFFFFFFFFFFFFFF30
0CFFFFFFFFFFFFFF40
05FFFFFD9754476300
002676300000000000
ENDCHAR
STARTCHAR m
ENCODING 109
SWIDTH 814 0
DWIDTH 26 0
BBX 26 21 0 -1
BITMAP
00000001500000000000000000
0000002DF80000000000099300
000000CFFFE3000000005FFE30
000006FFFFFC00000002EFFFE1
00001EFFFFFF4000003EFFFFF8
00009FFFFFFF400005EFFFFFF9
0002FFFFFFFF40006FFFFFFFF6
0009FFFFFFFF503BFFFFFFFFF3
001EFFFFFFFFFDFFFFFFFFFFF0
007FFFFFFFFFFFFFFFFFFFFFF0
00EFFFFFFFFFFFFFFFF9DFFFE0
05FFFFF8FFFFFFFFFD41FFFF90
0CFFFF90BFFFFFFF8104FFFF80
3FFFFF4019FFFD710007FFFF70
9FFFFF1000121000000AFFFF40
CFFFF70000000000000CFFFE10
CFFFF00000000000000CFFF900
AFFF700000000000000BFFF300
6FFF2000000000000007FFC000
1EFA0000000000000001B71000
05810000000000000000000000
ENDCHAR
STARTCHAR n
ENCODING 110
SWIDTH 564 0
DWIDTH 18 0
BBX 20 21 -1 -1
BITMAP
00000000000000002000
0000001D91000004F700
0000007FFE300009FFC1
000000EFFFE1001EFFF8
000006FFFFF6006FFFFC
00000DFFFFF5008FFFF7
00005FFFFFF100AFFFD1
0000CFFFFFC000DFFFA0
0004FFFFFF7002FFFF70
000CFFFFFF8005FFFF40
004FFFFFFF700BFFFF10
00BFFFFFFF704FFFFF00
03FFFFFFFF81CFFFFD00
0BFFFFFFFFCCFFFFF800
3FFFFFFAFFFFFFFFF400
5FFFFF91FFFFFFFFC000
3FFFFE107FFFFFFF2000
0BFFF9000BFFFFF60000
04FFF50001BFFF800000
009FA000000694000000
00020000000000000000
ENDCHAR
STARTCHAR o
ENCODING 111
SWIDTH 628 0
DWIDTH 20 0
BBX 19 21 0 -1
BITMAP
00000000000295000000
00000000007CFF500000
0000000008FFFFF50000
000000009FFFFFFD0000
0000002DFFFFFFF80000
000002DFFFFFFFF90000
00004EFFFFFFFFFE2000
0003EFFFFFDDBFFF9000
001DFFFFF7001EFFF200
00AFFFFF500008FFF900
05FFFFE4000001DFFF20
0DFFFF400000006FFF50
3FFFFA000000003FFFB0
8FFFE100000001AFFFE0
AFFFA00000017EFFFFE0
AFFFC43357AEFFFFFFA0
8FFFFFFFFFFFFFFFFD20
1EFFFFFFFFFFFFFFB100
05FFFFFFFFFFFFC60000
004DFFFFFFEC82000000
00003556620000000000
ENDCHAR
STARTCHAR p
ENCODING 112
SWIDTH 524 0
DWIDTH 17 0
BBX 18 21 0 -1
BITMAP
000000001444410000
00000019FFFFFFA200
000003EFFFFFFFFE20
00001EFFFFFFFFFF90
00009FFFFFFFFFFFF1
0001EFFFFEDEFFFFF6
0005FFFE50003BFFF9
005DFFF800039EFFFB
02FFFFF669DFFFFFFA
09FFFFFFFFFFFFFFF6
0DFFFFFFFFFFFFFF90
1FFFFFFFFFFFFFE600
0DFFFFFFFFFFB60000
06FFFFFDA740000000
06FFFF200000000000
08FFFF100000000000
0CFFFF000000000000
0EFFFC000000000000
1EFFF8000000000000
07FFF2000000000000
017630000000000000
ENDCHAR
STARTCHAR q
ENCODING 113
SWIDTH 625 0
DWIDTH 20 0
BBX 21 22 -1 -2
BITMAP
0000000000032300000000
00000000006FFFC3000000
00000000007FFFFF400000
0000000001EFFFFFF20000
000000001BFFFFFFF70000
00000004EFFFFFFFFF3000
0000007FFFFFFDEFFFC000
000018FFFFFF801DFFF500
0001CFFFFFD40004FFFC00
001CFFFFFC100000BFFF20
00AFFFFFA0675100AFFF20
05FFFFF801FFFD13FFFF20
0CFFFF9000AFFFBDFFFF00
1FFFFC00001DFFFFFFFC00
1FFFF3000029FFFFFFF300
0DFFB0048CFFFFFFFF6000
0DFFFCEFFFFFFFFFFB0000
0AFFFFFFFFFFFFFFFE1000
03EFFFFFFFFFFBDFFF5000
002BFFFFFEB7206FFFA000
000027652000001EFF9000
0000000000000002B91000
ENDCHAR
STARTCHAR r
ENCODING 114
SWIDTH 541 0
DWIDTH 17 0
BBX 18 22 0 -2
BITMAP
000000000230000000
00000000AFF9000000
0000000AFFFFB00000
0000008FFFFFFC0000
000004FFFFFFFF6000
00133EFFFFFFFFD000
005FFFFFE4AFFFF400
00AFFFFE301EFFF900
00DFFFF6004DFFFB00
01FFFFE48DFFFFF900
05FFFFFFFFFFFFF200
09FFFFFFFFFFFD4000
0CFFFFFFFFFC710000
0EFFFFFFE830000000
1FFFFFFFB200000000
5FFFFFFFFE72000000
8FFFFEFFFFFFD96310
8FFFC3EFFFFFFFFFE1
3FFF701AFFFFFFFFF4
1CFD100029EFFFFFF4
004000000005AEFFB0
000000000000001100
ENDCHAR
STARTCHAR s
ENCODING 115
SWIDTH 463 0
DWIDTH 15 0
BBX 19 21 0 -1
BITMAP
00000000000134310000
0000000048DFFFFFB000
0000039EFFFFFFFFF600
0028DFFFFFFFFFFFFD10
06FFFFFFFFFFFFFFFF50
4FFFFFFFFCA688778600
8FFFFFFE300000000000
9FFFFFFFE80000000000
7FFFFFFFFFE300000000
09FFFFFFFFF900000000
001468ADFFFF40000000
000000004AFFD1000000
0000000000EFF4000000
000000000AFFF5000000
00000004CFFFF2000000
000015CFFFFFA0000000
04CCFFFFFFFD10000000
06FFFFFFFFC100000000
06FFFFFFF81000000000
03FFFFE9200000000000
00576400000000000000
ENDCHAR
STARTCHAR t
ENCODING 116
SWIDTH 479 0
DWIDTH 15 0
BBX 21 21 0 -1
BITMAP
0000000000000023443000
000001249E9BDFFFFFF800
ADDEFFFFFFFFFFFFFFFF60
EFFFFFFFFFFFFFFFFFFFB0
BFFFFFFFFFFFFFFFFFFB40
5FFFFFFFFFFF8642100000
0699865EFFFB0000000000
0000005FFFF40000000000
000000CFFFD00000000000
000004FFFF700000000000
000009FFFE200000000000
00001EFFF9000000000000
00005FFFF2000000000000
0000BFFFB0000000000000
0000EFFF40000000000000
0002FFFD00000000000000
0003FFF900000000000000
0000EFF900000000000000
0000AFFF70000000000000
00004EFFA0000000000000
0000019920000000000000
ENDCHAR
STARTCHAR u
ENCODING 117
SWIDTH 584 0
DWIDTH 19 0
BBX 19 20 1 0
BITMAP
00000000000000010000
000000000000000DA000
000000000000001FF700
01B900000000008FFB00
07FF7000000000AFFF10
0AFFF100000000DFFF50
0CFFF700000002FFFF60
0EFFFB00000007FFFF30
2FFFFA0000000DFFFF00
5FFFF50000007FFFFB00
6FFFF3000003FFFFF400
6FFFF200003EFFFFB000
6FFFF30005EFFFFF3000
5FFFF615CFFFFFE80000
5FFFFEFFFFFFFF600000
1CFFFFFFFFFFF8000000
08FFFFFFFFFFB0000000
03FFFFFFFFFA00000000
00AFFFFFFC5000000000
0018DDEB500000000000
ENDCHAR
STARTCHAR v
ENCODING 118
SWIDTH 485 0
DWIDTH 16 0
BBX 16 21 2 -1
BITMAP
0000000000000300
5E60000000008FE4
DFD200000007FFFA
DFFC0000005FFFFC
CFFF400002EFFFF8
BFFF90001DFFFFF3
AFFFB0008FFFFF50
AFFFD003FFFFF800
AFFFE00CFFFFA000
AFFFF07FFFFD1000
8FFFF5FFFFF30000
5FFFFEFFFF700000
3FFFFFFFFD000000
1FFFFFFFF5000000
0EFFFFFF80000000
0AFFFFFF20000000
07FFFFF700000000
02FFFFB000000000
00CFFF9000000000
003EFE2000000000
0002610000000000
ENDCHAR
STARTCHAR w
ENCODING 119
SWIDTH 825 0
DWIDTH 26 0
BBX 28 21 0 -1
BITMAP
0000000000000000000000001100
0000095000000000000000008D30
00009FF40000000300000001FFE1
0003FFFF4000007F80000008FFF8
000AFFFF400003FFF700000EFFFC
001FFFFE00000DFFFF10005FFFFD
007FFFFA00007FFFFF1000BFFFF7
00BFFFF50002EFFFFC0002FFFFE1
01FFFFE0000BFFFFF90008FFFF80
04FFFF90005FFFFFF6001EFFFF20
07FFFF5001DFFFFFF3006FFFFA00
0AFFFF1009FFFFFFF001EFFFF400
0DFFFC006FFFFFFFF00AFFFFC000
1FFFF906FFFFFFFFF2AFFFFF5000
4FFFF89FFFFFFEFFFEFFFFFC0000
3FFFFFFFFFFFA2FFFFFFFFF50000
0CFFFFFFFFF9008FFFFFFFA00000
04FFFFFFFF70001EFFFFFD100000
00AFFFFFD4000006FFFFE3000000
0006DEB6000000009FFD30000000
0000000000000000042100000000
ENDCHAR
STARTCHAR x
ENCODING 120
SWIDTH 506 0
DWIDTH 16 0
BBX 20 20 -1 -1
BITMAP
0007B600000000004500
000CFFA10000002BFF50
000CFFFD100006EFFFC0
000EFFFFC001AFFFFFF2
0009FFFFF84DFFFFFF90
0002DFFFFFFFFFFFE600
00003FFFFFFFFFFA1000
000006FFFFFFFF600000
000000EFFFFFD3000000
00001BFFFFFF30000000
0000BFFFFFFFA0000000
000AFFFFFFFFF4000000
009FFFFFEFFFFE100000
05FFFFFC1AFFFFB00000
0EFFFFB101EFFFF40000
4FFFFC10005FFFF90000
6FFFD200000CFFFD0000
6FFF50000006FFF80000
1EFF10000001AFD10000
05E60000000004100000
ENDCHAR
STARTCHAR y
ENCODING 121
SWIDTH 400 0
DWIDTH 13 0
BBX 16 21 1 -1
BITMAP
0210000000015300
2EE70000003DFD30
4FFFA00002EFFFF2
1FFFF1002DFFFFF3
0EFFF500CFFFFF80
0DFFF707FFFFF700
0BFFFB3FFFFF9000
08FFFEEFFFFB0000
05FFFFFFFFD10000
00EFFFFFFF400000
008FFFFFFA000000
001CFFFFF2000000
000CFFFF80000000
006FFFFD10000000
01EFFFF400000000
07FFFFA000000000
1EFFFF3000000000
6FFFF90000000000
9FFFF10000000000
5FFF900000000000
06EC100000000000
ENDCHAR
STARTCHAR z
ENCODING 122
SWIDTH 547 0
DWIDTH 18 0
BBX 20 21 -1 -2
BITMAP
00000ABDEECBCCCBCA20
00002FFFFFFFFFFFFFA0
00001FFFFFFFFFFFFFF6
00000AFFFFFFFFFFFFF6
000001ABA877EFFFFFE1
00000000001BFFFFFD30
0000000002DFFFFF9100
000000006FFFFFF70000
0000003CFFFFFF800000
000008FFFFFFF7000000
0002AFFFFFFD40000000
005EFFFFFF9100000000
06FFFFFFD40000000000
0DFFFFFB1000028A2000
2FFFFF80015ADFFFA400
4FFFFFC8CFFFFFFFF900
4FFFFFFFFFFFFFFFD300
0CFFFFFFFFFFFFD71000
03FFFFFFFFED83000000
004AFFFDA51000000000
00003310000000000000
ENDCHAR
STARTCHAR braceleft
ENCODING 123
SWIDTH 448 0
DWIDTH 14 0
BBX 26 35 0 -6
BITMAP
00000000001358AABCCDCA9400
000000000AFFFFFFFFFFFFFF60
000000000CFFFFFFFFFFFFFFF6
000000000AFFFFFFFFFFFFFFF6
000000000CFFFFFFFEEDCB9730
000000000EFFFB310000000000
000000002FFFF7000000000000
000000006FFFF4000000000000
00000000AFFFF1000000000000
00000000DFFFC0000000000000
00000002FFFF90000000000000
00000019FFFF50000000000000
000028FFFFFF10000000000000
0257FFFFFFFC00000000000000
1EFFFFFFFFB300000000000000
5FFFFFFFA30000000000000000
3FFFFFF5000000000000000000
0DFFFFFE700000000000000000
02DFFFFFFD3000000000000000
002BFFFFFF6000000000000000
00007FFFFF3000000000000000
00003FFFFD0000000000000000
00007FFFF80000000000000000
0000CFFFF40000000000000000
0001FFFFE00000000000000000
0006FFFFA00000000000000000
000AFFFF500000000000000000
000EFFFF100000000000000000
004FFFFB134455300000000000
008FFFFFFFFFFFF70000000000
00FFFFFFFFFFFFFF8000000000
00DFFFFFFFFFFFFF8000000000
009FFFFFFFFFFEE91000000000
003EFFC8643410000000000000
00022000000000000000000000
ENDCHAR
STARTCHAR bar
ENCODING 124
SWIDTH 332 0
DWIDTH 11 0
BBX 11 25 0 -1
BITMAP
000000007000
00000008F800
0000001EFF10
0000006FFF50
000000BFFF80
000001FFFF50
000006FFFE00
00000BFFF900
00000EFFF300
00004FFFC000
0000AFFF6000
0001EFFF1000
0006FFFA0000
000AFFF60000
000EFFF20000
004FFFC00000
00AFFF800000
01FFFF400000
08FFFD000000
1EFFF6000000
8FFFF1000000
DFFFA0000000
EFFF60000000
9FFC10000000
047100000000
ENDCHAR
STARTCHAR braceright
ENCODING 125
SWIDTH 481 0
DWIDTH 15 0
BBX 25 36 -10 -6
BITMAP
00000000000000000100000000
000000001358BCDEFFEDA40000
000000009FFFFFFFFFFFFE2000
000000009FFFFFFFFFFFFFD000
000000008FFFFFFFFFFFFFD000
000000002FFFFECCCDFFFF9000
000000000595200005FFFF5000
000000000000000008FFFF2000
00000000000000000BFFFE0000
00000000000000001FFFFA0000
00000000000000004FFFF70000
00000000000000009FFFF30000
0000000000000000EFFFE00000
0000000000000003FFFFB00000
0000000000000008FFFF900000
000000000000000DFFFFFA1000
000000000000000EFFFFFFD200
0000000000000001AFFFFFFE20
000000000000000003DFFFFF80
000000000000000019FFFFFFB0
0000000000000018EFFFFFFF80
00000000000003EFFFFFFFAA10
00000000000009FFFFFF930000
0000000000000DFFFFC4000000
0000000000002FFFFE00000000
0000000000007FFFF900000000
000000000000BFFFF400000000
000000000001FFFFE000000000
000000000006FFFFA000000000
00000002344CFFFF5000000000
0579BCFFFFFFFFFF1000000000
3FFFFFFFFFFFFFFA0000000000
1FFFFFFFFFFFFFF50000000000
0CFFFFFFFFFFEE700000000000
05FFEB85343000000000000000
00320000000000000000000000
ENDCHAR
STARTCHAR asciitilde
ENCODING 126
SWIDTH 581 0
DWIDTH 19 0
BBX 18 7 0 6
BITMAP
00017AAA7100005783
005EFFFFFD300BFFF7
04FFFFFFFFE49FFFD1
1DFFFDEFFFFFFFFF40
8FFFB02EFFFFFFF700
DFFB2002BFFFFE5000
010000000234300000
ENDCHAR
STARTCHAR uni00A0
ENCODING 160
SWIDTH 370 0
DWIDTH 12 0
BBX 1 1 0 0
BITMAP
00
ENDCHAR
STARTCHAR exclamdown
ENCODING 161
SWIDTH 260 0
DWIDTH 8 0
BBX 10 25 -1 -1
BITMAP
000004A700
00008FFF70
0000DFFFD0
0003FFFFF2
0004FFFFA1
000059CC00
0000000100
0000000000
0001871000
000CFFE100
003FFFF200
008FFFF100
00CFFFE000
00EFFFC000
02FFFF9000
04FFFF7000
07FFFE1000
09FFFC0000
0DFFFA0000
3FFFFA0000
1FFFF40000
2FFFF10000
3FFFA00000
08FF500000
01B4000000
ENDCHAR
STARTCHAR cent
ENCODING 162
SWIDTH 488 0
DWIDTH 16 0
BBX 15 25 0 -1
BITMAP
0000000001400000
000000000BF20000
000000004FFA0000
00000000AFFF0000
00000000EFFF9100
00000004FFFFFD30
0000003CFFFFFFD0
00003BFFFFFFFFB0
0006EFFFFFFFFB20
007FFFFFFFA61000
06FFFFFFC2000000
2FFFFFC400000000
9FFFFA0000000000
9FFF900000000000
8FFF100000000000
5FFF300000000000
1EFFFC9755443000
08FFFFFFFFFFF800
009FFFFFFFFFFF30
0004FFFFFFFFFB10
0007FFFFAA886000
000CFFFB00000000
000EFFF600000000
000AFFE200000000
00006A2000000000
ENDCHAR
STARTCHAR sterling
ENCODING 163
SWIDTH 586 0
DWIDTH 19 0
BBX 20 19 -1 2
BITMAP
000000000037AA842300
000000001BFFFFFFFFB0
00000001CFFFFFFFFFF5
00000009FFFFFFFFFFF8
0000002FFFFFA679EFF5
0000007FFFF500000330
000000DFFFA000000000
00356BFFFFFECA600000
04FFFFFFFFFFFFF80000
04FFFFFFFFFFFFFF4000
01FFFFFFFFFFFFD81000
007FEFFFF44320000000
00006FFFC00000000000
0000AFFFA000039A2000
0577EFFFC99BEFFFE100
4FFFFFFFFFFFFFFFF400
2FFFFFFFFFFFFFFFF600
05FFFFFFFFFFFFFD7000
0068ABBA887653000000
ENDCHAR
STARTCHAR currency
ENCODING 164
SWIDTH 509 0
DWIDTH 16 0
BBX 16 18 0 0
BITMAP
0012000000000000
005FC203CE602AC1
008FFF7EFFF9EFF7
008FFFFFFFFFFFFC
003FFFFFFFFFFFF5
000CFFFFFFFFFC30
006FFFFFFFFFC000
01EFFFF77FFFF200
07FFFF600CFFF600
0CFFFB038FFFFA00
0EFFFFFFFFFFFA00
0DFFFFFFFFFFF400
2FFFFFFFFFFFA000
7FFFFFFFFFFFD000
9FFD67752CFFF200
8FF6000005FFB000
2EE20000005B2000
0220000000000000
ENDCHAR
STARTCHAR yen
ENCODING 165
SWIDTH 563 0
DWIDTH 18 0
BBX 19 22 0 -1
BITMAP
00000000000000022000
0001DC40000001AFB100
0003FFF800001CFFFD20
0002FFFE1001BFFFFF40
0000EFFF400AFFFFFB00
0000EFFF704FFFFFA000
0000BFFFA1EFFFFB1000
00008FFFDCFFFFE20000
00005FFFFFFFFE200000
00001EFFFFFFF7000000
1678CFFFFFFFFDA30000
7FFFFFFFFFFFFFFE5000
5FFFFFFFFFFFFFFFE000
2FFFFFFFFFFFFFEA4000
06EDAFFFFF8221000000
00004FFFFC0000000000
0000CFFFF50000000000
0004FFFFC00000000000
0009FFFF300000000000
0006FFFB000000000000
00009FE3000000000000
00000220000000000000
ENDCHAR
STARTCHAR brokenbar
ENCODING 166
SWIDTH 301 0
DWIDTH 10 0
BBX 12 25 -1 -1
BITMAP
000000003400
00000001EE20
00000007FF80
0000000DFFD0
0000003FFFF1
0000007FFFD0
000000DFFF70
000004FFFF10
00000AFFFA00
00000DFFF400
00000CFFE100
000003AD3000
000000000000
000000000000
000162000000
000AFF700000
003FFFF00000
00AFFFC00000
01EFFF700000
08FFFE100000
1EFFFA000000
5FFFF2000000
6FFFE0000000
2EFF70000000
017400000000
ENDCHAR
STARTCHAR section
ENCODING 167
SWIDTH 630 0
DWIDTH 20 0
BBX 20 29 0 -3
BITMAP
00000000000001223000
00000000259CEFFFFC30
0000049DFFFFFFFFFFE2
0005EFFFFFFFFFFFFFFA
000FFFFFFFFFFFFFFFF7
001FFFFFFFFFECBCFFA1
004FFFFFF85200001200
003FFFFFFC3000000000
000DFFFFFFFB50000000
0004FFFFFFFFFD600000
00009FFFFFFFFFFB2000
001CFFFFFFFFFFFFD100
00CFFFFFFFFFFFFFFC10
06FFFFFFFDB8CFFFFF90
0BFFFFC7100005FFFFD0
09FFFF9100028DFFFFD0
05FFFFFEADFFFFFFFF70
008FFFFFFFFFFFFFFC00
000AFFFFFFFFFFFFC100
00007FFFFFFFFFFB0000
000003AFFFFFFFFF8000
000000017EFFFFFFF200
00000000018FFFFFF600
00440001479FFFFFF700
1AFFEDEFFFFFFFFFF400
6FFFFFFFFFFFFFFFF200
7FFFFFFFFFFFFFFD5000
0BFFFFFFFFFFB7300000
018FFFECA74100000000
ENDCHAR
STARTCHAR dieresis
ENCODING 168
SWIDTH 754 0
DWIDTH 24 0
BBX 14 6 7 18
BITMAP
00350000024310
4EFF50002FFFC2
9FFFF5003FFFFB
DFFFF8004FFFFC
AFFFC1003DFFE4
2BB90000008910
ENDCHAR
STARTCHAR copyright
ENCODING 169
SWIDTH 614 0
DWIDTH 20 0
BBX 20 21 0 3
BITMAP
00000000000220000000
0000000156EFFB200000
0000007FFFFFFFE70000
00000BFFFFEA44CFB000
0000AFFFC510003FFB00
0009FFF810018C38FF50
004FFF90029FFFD2FFB0
00CFFD119FFFFFA0CFF1
05FFF41CFFFEA6008FF5
0BFFB0BFFE8100005FF6
1FFF44FFB10000005FF7
3FFD06FC000000007FF7
5FFB07FA00000000BFF6
5FFE04FFD9652002FFE1
2FFF20BFFFFFC02DFF90
0CFF6018EFFFC1DFFD10
04FFC000035419FFE200
007FF9100028EFFD2000
0008FFFDACFFFFD20000
00003BFFFFFFD6000000
00000027898400000000
ENDCHAR
STARTCHAR ordfeminine
ENCODING 170
SWIDTH 454 0
DWIDTH 15 0
BBX 15 15 0 6
BITMAP
0000000362000000
0000002EFFA00000
000026DFFFF20000
0001EFFFFFF50000
0008FFFFFFF70000
002FFFFFFFFB0000
008FFFFDFFFE3000
01EFFFE5FFFFFB00
08FFFFFFFFFFFF60
1EFFFFFFFFFFFB00
8FFFFFFFFFFFF100
DFFFB69AFFFFF100
DFFF5004FFFFB000
6FFC10009FFC1000
0340000005500000
ENDCHAR
STARTCHAR guillemotleft
ENCODING 171
SWIDTH 566 0
DWIDTH 18 0
BBX 19 15 -1 -1
BITMAP
00000000770000008500
00000009FF30001BFF10
0000009FFF4001BFFF20
00002BFFFE203CFFFD10
0005EFFFF517FFFFE300
06AFFFFF57BFFFFE3000
3FFFFFD35FFFFFC20000
4FFFF9107FFFF8000000
1FFFF5004FFFE3000000
09FFFF900CFFFF700000
01CFFFFA02DFFFF70000
001BFFFF402CFFFF1000
00008FFFA000AFFF7000
000003BFE00004CFB000
00000006700000075000
ENDCHAR
STARTCHAR logicalnot
ENCODING 172
SWIDTH 698 0
DWIDTH 22 0
BBX 20 12 0 -1
BITMAP
12456AABBBCCDCBA8400
AFFFFFFFFFFFFFFFFF91
AFFFFFFFFFFFFFFFFFFD
7FFFFFFFFFFFFFFFFFFF
0BFFECA98777665DFFFB
003200000000002FFFF5
00000000000000AFFFE0
00000000000002FFFF80
00000000000005FFFF10
00000000000006FFFD00
00000000000001AFD300
00000000000000021000
ENDCHAR
STARTCHAR sfthyphen
ENCODING 173
SWIDTH 608 0
DWIDTH 19 0
BBX 18 6 0 5
BITMAP
02357AABBCDDBA8300
2FFFFFFFFFFFFFFF40
2FFFFFFFFFFFFFFFF3
0EFFFFFFFFFFFFFFB1
05FFEB987776542000
001200000000000000
ENDCHAR
STARTCHAR registered
ENCODING 174
SWIDTH 624 0
DWIDTH 20 0
BBX 19 21 1 3
BITMAP
00000000002300000000
000000146BFFE5000000
000003EFFFFFFFA10000
00007FFFFFB63AFE2000
0006FFFE721401CFE200
005FFFB202DFB03FFA00
01DFFD101DFFFA0CFF10
08FFF304CFFFFF17FF60
1EFF805FFE47FF53FFA0
6FFE10AFF63AFF61FFB0
BFF801FFFEFFFD10FFC0
EFF305FFFFFE9102FFB0
FFF109FFFE510006FFB0
FFF40DFFFFB4000CFF50
CFF72FFBEFFFEBCFFE10
7FFB0EE22AFFFFFFF400
1DFF24300028FFFF6000
03EFC300006DFFF60000
004EFFEBBEFFFF500000
00018FFFFFFE92000000
00000158996100000000
ENDCHAR
STARTCHAR macron
ENCODING 175
SWIDTH 754 0
DWIDTH 24 0
BBX 12 5 8 19
BITMAP
034568999840
6FFFFFFFFFE2
9FFFFFFFFFF8
9FFFFFFFFFE2
7FEB97987820
ENDCHAR
STARTCHAR degree
ENCODING 176
SWIDTH 284 0
DWIDTH 9 0
BBX 11 11 2 16
BITMAP
000000100000
000004CC0000
00005EFF7000
0007FFFF6000
008FFFFFD000
04FFFDFFF700
0DFFC1AFFC00
3FFFDBFFFF10
4FFFFFFFFD00
1EFFFFFFC200
03BEEC940000
ENDCHAR
STARTCHAR plusminus
ENCODING 177
SWIDTH 559 0
DWIDTH 18 0
BBX 19 24 -1 -1
BITMAP
00000000000010000000
00000000005EA0000000
0000000005FFF4000000
0000000009FFFD000000
000000001FFFFA000000
000000004FFFFB000000
000000009FFFFA000000
001457ACEFFFFEDB8200
008FFFFFFFFFFFFFFD30
006FFFFFFFFFFFFFFFD0
004FFFFFFFFFFFFFFC60
0008FEBEFFFFA4320000
0000100CFFFF50000000
0000000FFFFF10000000
0000002FFFFC00000000
0000003FFFF700000000
0000001BFFC100000000
00000000340000000000
00003455667643000000
6CDEFFFFFFFFFFE40000
CFFFFFFFFFFFFFFE6000
9FFFFFFFFFFFFFFF9000
3FFFFFFEDDDCBA740000
04963100000000000000
ENDCHAR
STARTCHAR twosuperior
ENCODING 178
SWIDTH 386 0
DWIDTH 12 0
BBX 12 12 2 11
BITMAP
069BBB950000
7FFFFFFFB000
8FFFFFFFFB00
5FFFFFFFFF20
0356DFFFFD00
005FFFFFD200
05FFFFFB1000
4FFFFFA78CB1
AFFFFFFFFFF9
BFFFFFFFFFFD
7FFFFFFFFEA3
07BCB9641000
ENDCHAR
STARTCHAR threesuperior
ENCODING 179
SWIDTH 366 0
DWIDTH 12 0
BBX 11 12 2 11
BITMAP
01479ABC8000
5FFFFFFFF800
AFFFFFFFFF20
AFFFFFFFFE10
3BEFFFFFE400
006FFFFFC100
002EFFFFFC00
00028DFFFF60
009DDEFFFF90
00EFFFFFFF60
00FFFFFFF700
006CCBA61000
ENDCHAR
STARTCHAR acute
ENCODING 180
SWIDTH 754 0
DWIDTH 24 0
BBX 10 10 9 14
BITMAP
0000005B10
000007FFC0
0000BFFFF6
000AFFFFFA
00AFFFFFE5
08FFFFFC10
7FFFFFA000
8FFFF80000
7FFE500000
1A81000000
ENDCHAR
STARTCHAR mu
ENCODING 181
SWIDTH 569 0
DWIDTH 18 0
BBX 19 22 -1 -4
BITMAP
00000000000000002000
0000000000000004F700
0000210000000006FF10
0003EB000000000CFF40
0007FF800000000EFF90
000AFFE10000003FFFD0
000CFFF50000007FFFA0
000EFFF6000000DFFF70
002FFFF1000007FFFF30
006FFFE000003EFFFB00
00AFFFD00003EFFFF300
00FFFFE0006EFFFFB000
00FFFFF68DFFFFFA2000
03FFFFFFFFFFFFB00000
08FFFFFFFFFFFE200000
0CFFFFFFFFFFD2000000
0EFFFFFFFFF910000000
1FFFFADEE82000000000
3FFFD000000000000000
4FFF9000000000000000
3EFF2000000000000000
01530000000000000000
ENDCHAR
STARTCHAR paragraph
ENCODING 182
SWIDTH 729 0
DWIDTH 23 0
BBX 25 26 1 -1
BITMAP
00000000000000000020000000
00000000000003569BEED60000
0000000159ACFFFFFFFFFFB000
000006AFFFFFFFFFFFFFFFFC10
0006DFFFFFFFFFFFFFFFFFFF50
01CFFFFFFFFFFFFFFFFFFFF900
0BFFFFFFFFFFFFF87FFFF61000
0FFFFFFFFCCFFFE04FFFF00000
1FFFFFF820CFFFA08FFFC00000
0FFFFF7001FFFF60CFFF800000
0BFFFF5005FFFF31FFFF500000
05FFFFE829FFFF04FFFF200000
00AFFFFFFFFFFD07FFFF000000
0008FFFFFFFFFD8AFFFB000000
00004EFFFFFFFFFFFFF8000000
0000016BFFFFFFFFFFFE300000
00000000CFFFFFFFFFFFD00000
00000001FFFF98EFFFFB600000
00000004FFFF81FFFF80000000
00000005FFFF34FFFF40000000
00000004FFFE06FFFF20000000
00000007FFFA05FFFF70000000
0000000DFFF702FFFFC0000000
0000003FFFF400DFFFF2000000
0000002FFFC0005FFFF0000000
0000000269200007B950000000
ENDCHAR
STARTCHAR periodcentered
ENCODING 183
SWIDTH 226 0
DWIDTH 7 0
BBX 6 6 1 9
BITMAP
002600
1EFF90
6FFFF8
9FFFFB
6FFFD3
18BA10
ENDCHAR
STARTCHAR cedilla
ENCODING 184
SWIDTH 754 0
DWIDTH 24 0
BBX 12 12 8 -10
BITMAP
00003C730000
0004EFF80000
002EFFD10000
006FFFB20000
008FFFFFB100
002CFFFFFC20
000047CFFFC0
00000009FFF5
167779CFFFF7
7FFFFFFFFFD1
1DFFFFFFFB10
028AAB862000
ENDCHAR
STARTCHAR onesuperior
ENCODING 185
SWIDTH 206 0
DWIDTH 7 0
BBX 6 12 2 11
BITMAP
06C400
0EFF50
0EFFD0
0BFFF1
08FFF3
0BFFF3
1FFFF1
6FFFB0
CFFF60
EFFE10
DFFB00
4CB200
ENDCHAR
STARTCHAR ordmasculine
ENCODING 186
SWIDTH 445 0
DWIDTH 14 0
BBX 14 15 0 6
BITMAP
00000002BC4000
0000005FFFE300
000007FFFFFC00
00009FFFFFFB00
000BFFFFFFFE10
008FFFFFFFFF70
04FFFFFEEFFFE1
0DFFFFA14FFFF6
4FFFFC000EFFFA
9FFFF647DFFFFE
AFFFFFFFFFFFFC
8FFFFFFFFFFFF5
2EFFFFFFFFFE60
04EFFFFFFD7200
00168985200000
ENDCHAR
STARTCHAR guillemotright
ENCODING 187
SWIDTH 595 0
DWIDTH 19 0
BBX 19 15 -1 -1
BITMAP
01930000009500000000
03FF920001FFA2000000
01DFFF4000CFFF600000
008FFFF8006FFFF90000
001CFFFF800BFFFFA000
0001BFFFF501AFFFF700
000008FFFC0006FFFE00
00003DFFFF002CFFFF20
0007FFFFFD05EFFFFE00
009FFFFF737FFFFF8400
0AFFFFC307FFFFD40000
6FFFF7004FFFF8100000
9FFF40007FFF60000000
8FE400006FF600000000
18400000085000000000
ENDCHAR
STARTCHAR onequarter
ENCODING 188
SWIDTH 705 0
DWIDTH 23 0
BBX 21 25 1 -1
BITMAP
0000000000000006200000
00AA1000000001CF700000
03FFD20000000BFF900000
04FFF90000008FFF900000
01FFFC000005FFFF800000
00CFFE00003EFFFF300000
01EFFE0000CFFFF6000000
05FFFB0007FFFF80000000
0AFFF7005FFFFA00000000
1FFFF203EFFFC000000000
3FFFB02EFFFD1000000000
3FFF70BFFFE30000860000
08CA17FFFF620006FF4000
00005FFFFA6FA00AFFB000
0004FFFFC0DFF50DFFC000
003EFFFD10DFFB0FFFD500
02DFFFE300BFFFFFFFFF20
0BFFFF50009FFFFFFFFF30
5FFFF700005FFFFFFFFA00
AFFFA0000006CEFFF81000
DFFF800000000CFFD00000
FFFF500000000FFFA00000
EFFF500000000DFFF30000
9FFC0000000008FFF20000
0361000000000078400000
ENDCHAR
STARTCHAR onehalf
ENCODING 189
SWIDTH 750 0
DWIDTH 24 0
BBX 22 25 1 -1
BITMAP
0000000000000006200000
00AA1000000001CF700000
03FFD20000000BFF900000
04FFF90000008FFF900000
01FFFC000005FFFF800000
00CFFE00003EFFFF300000
01EFFE0000CFFFF6000000
05FFFB0007FFFF80000000
0AFFF7005FFFFA00000000
1FFFF203EFFFC000000000
3FFFB02EFFFD1000000000
3FFF70BFFFE30000000000
08CA17FFFF625786400000
00005FFFFA2FFFFFFD3000
0004FFFFC06FFFFFFFE200
003EFFFD104FFFFFFFF900
02DFFFE3000597DFFFF800
0BFFFF5000002CFFFFC100
5FFFF7000002DFFFFB1000
AFFFA000001DFFFF846830
DFFF8000006FFFFFFFFFD1
FFFF5000008FFFFFFFFFF5
EFFF5000005FFFFFFFFFA1
9FFC0000000AEFECA74100
0361000000000000000000
ENDCHAR
STARTCHAR threequarters
ENCODING 190
SWIDTH 818 0
DWIDTH 26 0
BBX 23 25 2 -1
BITMAP
000012221000000000011000
19DFFFFFF5000000007F8000
6FFFFFFFFE10000007FFB000
AFFFFFFFFF4000007FFFD000
7FFFFFFFFC000005FFFFC000
01DFFFFF7100005FFFFF6000
00EFFFFF700003FFFFF60000
005EFFFFF1002DFFFF500000
0887DFFFF602DFFFE4000000
4FFFFFFFF42DFFFE30000000
AFFFFFFFB2EFFFD300000000
7FFFFFC61DFFFD2000194000
02343101BFFFE220009FE100
0000001CFFFE3BF501EFF600
000002DFFFE35FFE05FFF500
00002DFFFE207FFF38FFF910
0002EFFFE2007FFFFFFFFF70
001DFFFE20006FFFFFFFFF70
00BFFFE200003FFFFFFFFB10
03FFFE30000006CFFFF82000
09FFFC000000000EFFC00000
0DFFF6000000003FFF700000
0FFFF4000000003FFFD00000
0DFF80000000001EFFA00000
015500000000000387100000
ENDCHAR
STARTCHAR questiondown
ENCODING 191
SWIDTH 556 0
DWIDTH 18 0
BBX 19 25 -2 -1
BITMAP
00000000000000053000
00000000000002BFF300
0000000000002FFFFB00
0000000000000EFFFF20
0000000000000FFFFF00
00000000000006DFFA00
00000000000000054100
00000000000000000000
00000000000077610000
000000000009FFF80000
00000000029FFFF70000
000000029FFFFFF10000
0000005EFFFFFF600000
00003BFFFFFFF6000000
001BFFFFFFFE40000000
03EFFFFFFFB200000000
0DFFFFFFD50000000000
6FFFFFFA100000000000
BFFFFFC1000000440000
DFFFFFFFFCA9ACFF8000
CFFFFFFFFFFFFFFFD100
DFFFFFFFFFFFFFFFF100
8FFFFFFFFFFFFFFF6000
037CFFFFFFFFFFF90000
0000147ACDFFFD500000
ENDCHAR
STARTCHAR Agrave
ENCODING 192
SWIDTH 702 0
DWIDTH 22 0
BBX 24 35 -1 -1
BITMAP
000000000001B50000000000
00000000000CFF7000000000
00000000006FFFFB00000000
0000000000AFFFFFA0000000
00000000005EFFFFFA000000
000000000002CFFFFF800000
0000000000000AFFFFF70000
000000000000008FFFF80000
0000000000000005EFF70000
000000000000000018A10000
000000000000010000000000
0000000000002EA510000000
000000000000CFFFF5000000
00000000000AFFFFFA000000
0000000024BFFFFFFC000000
00000006FFFFFFFFFE000000
0000001EFFFFFFFFFF100000
0000008FFFFFFFFFFF400000
000001EFFFFFFFFFFF700000
00000AFFFFFFACFFFFA00000
00000EFFFFFC08FFFFD00000
00006FFFFFE204FFFFF20000
0000DFFFFF6001FFFFFBA300
0005FFFFFC0013EFFFFFFF91
000DFFFFFDDEFFFFFFFFFFF5
005FFFFFFFFFFFFFFFFFFFA0
00CFFFFFDFFFFFFFFFFFE600
04FFFFFA9FFFFFFFFFFFC000
0AFFFFF22EFFEA78FFFFE000
2FFFFF8001210005FFFFF100
7FFFFF300000038EFFFFE000
6FFFFE00000003EFFFFF8000
1FFFFA000000004FFFFC0000
05EF81000000002CFF910000
001100000000000031000000
ENDCHAR
STARTCHAR Aacute
ENCODING 193
SWIDTH 702 0
DWIDTH 22 0
BBX 24 36 -1 -1
BITMAP
00000000000000002B400000
0000000000000004EFE30000
000000000000006FFFFA0000
00000000000006FFFFFF0000
0000000000005FFFFFF80000
000000000004FFFFFE400000
00000000003EFFFFD2000000
00000000004FFFFC10000000
00000000002FFF9000000000
000000000008A30000000000
000000000000000000000000
000000000000010000000000
0000000000002EA510000000
000000000000CFFFF5000000
00000000000AFFFFFA000000
0000000024BFFFFFFC000000
00000006FFFFFFFFFE000000
0000001EFFFFFFFFFF100000
0000008FFFFFFFFFFF400000
000001EFFFFFFFFFFF700000
00000AFFFFFFACFFFFA00000
00000EFFFFFC08FFFFD00000
00006FFFFFE204FFFFF20000
0000DFFFFF6001FFFFFBA300
0005FFFFFC0013EFFFFFFF91
000DFFFFFDDEFFFFFFFFFFF5
005FFFFFFFFFFFFFFFFFFFA0
00CFFFFFDFFFFFFFFFFFE600
04FFFFFA9FFFFFFFFFFFC000
0AFFFFF22EFFEA78FFFFE000
2FFFFF8001210005FFFFF100
7FFFFF300000038EFFFFE000
6FFFFE00000003EFFFFF8000
1FFFFA000000004FFFFC0000
05EF81000000002CFF910000
001100000000000031000000
ENDCHAR
STARTCHAR Acircumflex
ENCODING 194
SWIDTH 702 0
DWIDTH 22 0
BBX 24 34 -1 -1
BITMAP
000000000000029A20000000
0000000000006FFFF6000000
000000000008FFFFFF800000
00000000008FFFFFFFF80000
000000001AFFFFBBFFFFA100
000000007FFFFC11CFFFF700
000000004FFFD1001DFFF400
000000000AFB100001BFA000
000000000171000000171000
000000000000010000000000
0000000000002EA510000000
000000000000CFFFF5000000
00000000000AFFFFFA000000
0000000024BFFFFFFC000000
00000006FFFFFFFFFE000000
0000001EFFFFFFFFFF100000
0000008FFFFFFFFFFF400000
000001EFFFFFFFFFFF700000
00000AFFFFFFACFFFFA00000
00000EFFFFFC08FFFFD00000
00006FFFFFE204FFFFF20000
0000DFFFFF6001FFFFFBA300
0005FFFFFC0013EFFFFFFF91
000DFFFFFDDEFFFFFFFFFFF5
005FFFFFFFFFFFFFFFFFFFA0
00CFFFFFDFFFFFFFFFFFE600
04FFFFFA9FFFFFFFFFFFC000
0AFFFFF22EFFEA78FFFFE000
2FFFFF8001210005FFFFF100
7FFFFF300000038EFFFFE000
6FFFFE00000003EFFFFF8000
1FFFFA000000004FFFFC0000
05EF81000000002CFF910000
001100000000000031000000
ENDCHAR
STARTCHAR Atilde
ENCODING 195
SWIDTH 702 0
DWIDTH 22 0
BBX 25 32 -1 -1
BITMAP
0000000000018CDDA20039BB20
00000000002DFFFFFE31EFFF30
0000000000BFFFFFFFECFFFB00
0000000006FFFFEFFFFFFFE200
000000000EFFF53EFFFFFF6000
000000001EED7003CFFFC40000
00000000000000000121000000
00000000000001000000000000
0000000000002EA51000000000
000000000000CFFFF500000000
00000000000AFFFFFA00000000
0000000024BFFFFFFC00000000
00000006FFFFFFFFFE00000000
0000001EFFFFFFFFFF10000000
0000008FFFFFFFFFFF40000000
000001EFFFFFFFFFFF70000000
00000AFFFFFFACFFFFA0000000
00000EFFFFFC08FFFFD0000000
00006FFFFFE204FFFFF2000000
0000DFFFFF6001FFFFFBA30000
0005FFFFFC0013EFFFFFFF9100
000DFFFFFDDEFFFFFFFFFFF500
005FFFFFFFFFFFFFFFFFFFA000
00CFFFFFDFFFFFFFFFFFE60000
04FFFFFA9FFFFFFFFFFFC00000
0AFFFFF22EFFEA78FFFFE00000
2FFFFF8001210005FFFFF10000
7FFFFF300000038EFFFFE00000
6FFFFE00000003EFFFFF800000
1FFFFA000000004FFFFC000000
05EF81000000002CFF91000000
00110000000000003100000000
ENDCHAR
STARTCHAR Adieresis
ENCODING 196
SWIDTH 702 0
DWIDTH 22 0
BBX 24 32 -1 -1
BITMAP
000000000016000001432000
000000001CFFA0000CFFF400
000000004FFFF9000EFFFF10
000000008FFFFD000EFFFF20
000000005FFFE4000BFFF800
0000000018BA2000004A3000
000000000000000000000000
000000000000010000000000
0000000000002EA510000000
000000000000CFFFF5000000
00000000000AFFFFFA000000
0000000024BFFFFFFC000000
00000006FFFFFFFFFE000000
0000001EFFFFFFFFFF100000
0000008FFFFFFFFFFF400000
000001EFFFFFFFFFFF700000
00000AFFFFFFACFFFFA00000
00000EFFFFFC08FFFFD00000
00006FFFFFE204FFFFF20000
0000DFFFFF6001FFFFFBA300
0005FFFFFC0013EFFFFFFF91
000DFFFFFDDEFFFFFFFFFFF5
005FFFFFFFFFFFFFFFFFFFA0
00CFFFFFDFFFFFFFFFFFE600
04FFFFFA9FFFFFFFFFFFC000
0AFFFFF22EFFEA78FFFFE000
2FFFFF8001210005FFFFF100
7FFFFF300000038EFFFFE000
6FFFFE00000003EFFFFF8000
1FFFFA000000004FFFFC0000
05EF81000000002CFF910000
001100000000000031000000
ENDCHAR
STARTCHAR Aring
ENCODING 197
SWIDTH 702 0
DWIDTH 22 0
BBX 24 32 -1 -1
BITMAP
00000000000000005D300000
0000000000000008FFE10000
00000000000000BFFFE00000
0000000000000CFFFFF50000
0000000000009FFFFFFD0000
000000000003FFF83FFF5000
000000000009FFF8BFFF9000
00000000000BFFFFFFFF8000
000000000008FFFFFFFB1000
000000000001EFFFFC400000
00000000000BFFFFFA000000
0000000024CFFFFFFC000000
00000006FFFFFFFFFE000000
0000001EFFFFFFFFFF100000
0000008FFFFFFFFFFF400000
000001EFFFFFFFFFFF700000
00000AFFFFFFACFFFFA00000
00000EFFFFFC08FFFFD00000
00006FFFFFE204FFFFF20000
0000DFFFFF6001FFFFFBA300
0005FFFFFC0013EFFFFFFF91
000DFFFFFDDEFFFFFFFFFFF5
005FFFFFFFFFFFFFFFFFFFA0
00CFFFFFDFFFFFFFFFFFE600
04FFFFFA9FFFFFFFFFFFC000
0AFFFFF22EFFEA78FFFFE000
2FFFFF8001210005FFFFF100
7FFFFF300000038EFFFFE000
6FFFFE00000003EFFFFF8000
1FFFFA000000004FFFFC0000
05EF81000000002CFF910000
001100000000000031000000
ENDCHAR
STARTCHAR AE
ENCODING 198
SWIDTH 1153 0
DWIDTH 37 0
BBX 41 25 -3 -1
BITMAP
000000000000000010000000000000000000000000
0000000000000000BC72000000000002579BDED200
0000000000000009FFFF700000038BEFFFFFFFFE50
000000000000009FFFFFB0027BEFFFFFFFFFFFFFA0
0000000000034BFFFFFFB05FFFFFFFFFFFFFFFFF50
00000000009FFFFFFFFFB0DFFFFFFFFFFFFFFFC400
0000000006FFFFFFFFFFB0BFFFFFFFFFFFC9630000
000000002EFFFFFFFFFFB08FFFFFFFDB7100000000
00000000BFFFFFFFFFFFC04FFFFFA1000000000000
00000007FFFFFFCAFFFFE00AFFFFB4456750000000
0000000DFFFFFC17FFFFF00AFFFFFFFFFFF5000000
0000007FFFFFE106FFFFF12FFFFFFFFFFFFF900000
000002FFFFFF3004FFFFF9CFFFFFFFFFFFFFF10000
00000BFFFFF60026FFFFFFFFFFFFFFFFFFFD400000
00005FFFFFFCEFFFFFFFFFFFFFFFFFFFFD70000000
0001EFFFFFFFFFFFFFFFFFFFFFE234232000000000
0009FFFFFDFFFFFFFFFFFFFFFF5000000000000000
003FFFFFB8FFFFFFFFFFFFFFFD0000000026500000
00BFFFFE13FFFDA79FFFFFFFFA445689ADFFF60000
05FFFFF4001210008FFFFFFFFFFFFFFFFFFFFF7000
0CFFFFC00000005AFFFFFFFFFFFFFFFFFFFFFFB000
1DFFFF600000009FFFFFFFFFFFFFFFFFFFFFFE2000
0AFFFE100000000EFFFF7AFFFFFFFFFFFFFFA20000
03DFA1000000000BFFC4018EFFFFFEDDB851000000
001100000000000032000000133210000000000000
ENDCHAR
STARTCHAR Ccedilla
ENCODING 199
SWIDTH 611 0
DWIDTH 20 0
BBX 19 34 0 -11
BITMAP
00000000000007DD5000
000000000005EFFFF800
0000000006CFFFFFFF90
00000002BFFFFFFFFFD0
000002AFFFFFFFFFFFA0
00003EFFFFFFFFFFFD20
0006EFFFFFFFFFFC8100
005FFFFFFFFFD7200000
03FFFFFFFFF700000000
1DFFFFFFFB4000000000
7FFFFFFE400000000000
EFFFFFD2000000000000
FFFFFD20000000000000
EFFFF300000000000000
CFFFC000000000000000
AFFFD000000000000000
6FFFF830000000000000
1EFFFFFECB9887762000
09FFFFFFFFFFFFFFD200
01CFFFFFFFFFFFFFFB00
0019FFFFFFFFFFFFFF00
00006DFFFFFFFFFFE500
000001DFFDDFFDCC3000
00001DFFE20000000000
00007FFF800000000000
00009FFFFC5000000000
00005FFFFFF800000000
0000039DFFFF80000000
000000003BFFF2000000
000222248EFFF6000000
007FFFFFFFFFE2000000
004FFFFFFFFE40000000
0005DFFFDB6100000000
00000001000000000000
ENDCHAR
STARTCHAR Egrave
ENCODING 200
SWIDTH 626 0
DWIDTH 20 0
BBX 21 36 0 -1
BITMAP
0000000006A10000000000
000000006FFC2000000000
00000000EFFFE300000000
00000003FFFFFE30000000
00000001BFFFFFE3000000
0000000007FFFFFE100000
00000000005EFFFFD10000
000000000003EFFFE10000
0000000000002BFFD00000
000000000000005B500000
0000000000000000000000
0000000000000000000000
000000000002468ADEE300
000000037BEFFFFFFFFE70
00017BEFFFFFFFFFFFFFC0
004EFFFFFFFFFFFFFFFF70
00BFFFFFFFFFFFFFFFD600
008FFFFFFFFFFFC9630000
006FFFFFFFDB8100000000
001FFFFFC2000000000000
0008FFFFD4456760000000
0008FFFFFFFFFFF6000000
001EFFFFFFFFFFFFA10000
007FFFFFFFFFFFFFF30000
00EFFFFFFFFFFFFE500000
06FFFFFFFFFFFE81000000
0EFFFFF324332000000000
6FFFFF8000000000000000
AFFFFE1000000025600000
9FFFFC445689ADFFF81000
8FFFFFFFFFFFFFFFFF9000
5FFFFFFFFFFFFFFFFFD000
2FFFFFFFFFFFFFFFFE3000
08FFFFFFFFFFFFFFC30000
007DFFFFFEDDB962000000
0000133320000000000000
ENDCHAR
STARTCHAR Eacute
ENCODING 201
SWIDTH 626 0
DWIDTH 20 0
BBX 21 35 0 -1
BITMAP
0000000000000005B10000
000000000000007FFC0000
0000000000000BFFFF6000
000000000000AFFFFFA000
00000000000AFFFFFE5000
00000000008FFFFFC10000
0000000007FFFFFA000000
0000000008FFFF80000000
0000000007FFE500000000
0000000001A81000000000
0000000000000000000000
000000000002468ADEE300
000000037BEFFFFFFFFE70
00017BEFFFFFFFFFFFFFC0
004EFFFFFFFFFFFFFFFF70
00BFFFFFFFFFFFFFFFD600
008FFFFFFFFFFFC9630000
006FFFFFFFDB8100000000
001FFFFFC2000000000000
0008FFFFD4456760000000
0008FFFFFFFFFFF6000000
001EFFFFFFFFFFFFA10000
007FFFFFFFFFFFFFF30000
00EFFFFFFFFFFFFE500000
06FFFFFFFFFFFE81000000
0EFFFFF324332000000000
6FFFFF8000000000000000
AFFFFE1000000025600000
9FFFFC445689ADFFF81000
8FFFFFFFFFFFFFFFFF9000
5FFFFFFFFFFFFFFFFFD000
2FFFFFFFFFFFFFFFFE3000
08FFFFFFFFFFFFFFC30000
007DFFFFFEDDB962000000
0000133320000000000000
ENDCHAR
STARTCHAR Ecircumflex
ENCODING 202
SWIDTH 626 0
DWIDTH 20 0
BBX 21 34 0 -1
BITMAP
0000000000029A30000000
00000000005EFFF7000000
0000000007FFFFFF800000
000000007FFFFFFFF90000
00000019FFFFCAFFFFB100
0000006FFFFC10BFFFF800
0000003FFFD2001CFFF400
00000009FB100001AFB000
0000000171000000071000
0000000000000000000000
000000000002468ADEE300
000000037BEFFFFFFFFE70
00017BEFFFFFFFFFFFFFC0
004EFFFFFFFFFFFFFFFF70
00BFFFFFFFFFFFFFFFD600
008FFFFFFFFFFFC9630000
006FFFFFFFDB8100000000
001FFFFFC2000000000000
0008FFFFD4456760000000
0008FFFFFFFFFFF6000000
001EFFFFFFFFFFFFA10000
007FFFFFFFFFFFFFF30000
00EFFFFFFFFFFFFE500000
06FFFFFFFFFFFE81000000
0EFFFFF324332000000000
6FFFFF8000000000000000
AFFFFE1000000025600000
9FFFFC445689ADFFF81000
8FFFFFFFFFFFFFFFFF9000
5FFFFFFFFFFFFFFFFFD000
2FFFFFFFFFFFFFFFFE3000
08FFFFFFFFFFFFFFC30000
007DFFFFFEDDB962000000
0000133320000000000000
ENDCHAR
STARTCHAR Edieresis
ENCODING 203
SWIDTH 626 0
DWIDTH 20 0
BBX 21 32 0 -1
BITMAP
0000000016100000432000
0000001BFFB0000BFFF600
0000003FFFFB000CFFFF20
0000006FFFFE000DFFFF30
0000004FFFE5000AFFF900
00000008BB3000003A4000
0000000000000000000000
0000000000000000000000
000000000002468ADEE300
000000037BEFFFFFFFFE70
00017BEFFFFFFFFFFFFFC0
004EFFFFFFFFFFFFFFFF70
00BFFFFFFFFFFFFFFFD600
008FFFFFFFFFFFC9630000
006FFFFFFFDB8100000000
001FFFFFC2000000000000
0008FFFFD4456760000000
0008FFFFFFFFFFF6000000
001EFFFFFFFFFFFFA10000
007FFFFFFFFFFFFFF30000
00EFFFFFFFFFFFFE500000
06FFFFFFFFFFFE81000000
0EFFFFF324332000000000
6FFFFF8000000000000000
AFFFFE1000000025600000
9FFFFC445689ADFFF81000
8FFFFFFFFFFFFFFFFF9000
5FFFFFFFFFFFFFFFFFD000
2FFFFFFFFFFFFFFFFE3000
08FFFFFFFFFFFFFFC30000
007DFFFFFEDDB962000000
0000133320000000000000
ENDCHAR
STARTCHAR Igrave
ENCODING 204
SWIDTH 515 0
DWIDTH 17 0
BBX 23 37 -2 -1
BITMAP
00000000006B100000000000
0000000005FFC20000000000
000000000DFFFE4000000000
000000003FFFFFE300000000
000000000BFFFFFE30000000
00000000006FFFFFE2000000
000000000004EFFFFD100000
0000000000003DFFFE100000
00000000000002BFFE000000
0000000000000005B5000000
000000000000000000000000
000000000000000000000000
000000000001122343100000
000001679CFFFFFFFFFEA200
000006FFFFFFFFFFFFFFFB20
000004FFFFFFFFFFFFFFFFA0
000003FFFFFFFFFFFFFFFE60
000000CFFFFFFFFEA9874100
00000019843FFFFB00000000
00000000005FFFF800000000
00000000009FFFF400000000
0000000000EFFFE000000000
0000000004FFFFA000000000
0000000007FFFF5000000000
000000000DFFFF1000000000
000000005FFFFC0000000000
00000000BFFFF90000000000
00000001FFFFF30000000000
00000008FFFFC00000000000
0000001EFFFF600000000000
0000007FFFFF871000000000
058ACEFFFFFFFFE400000000
1FFFFFFFFFFFFFFF30000000
0EFFFFFFFFFFFFFF20000000
0AFFFFFFFFFFFFE500000000
03FFFEA75462000000000000
003420000000000000000000
ENDCHAR
STARTCHAR Iacute
ENCODING 205
SWIDTH 515 0
DWIDTH 17 0
BBX 23 37 -2 -1
BITMAP
0000000000000000001A7000
000000000000000002BFF600
00000000000000003EFFFE10
0000000000000003EFFFFF40
000000000000002EFFFFFC10
00000000000001DFFFFF7000
0000000000000DFFFFF50000
0000000000000EFFFE400000
0000000000000DFFB2000000
00000000000004B500000000
000000000000000000000000
000000000000000000000000
000000000001122343100000
000001679CFFFFFFFFFEA200
000006FFFFFFFFFFFFFFFB20
000004FFFFFFFFFFFFFFFFA0
000003FFFFFFFFFFFFFFFE60
000000CFFFFFFFFEA9874100
00000019843FFFFB00000000
00000000005FFFF800000000
00000000009FFFF400000000
0000000000EFFFE000000000
0000000004FFFFA000000000
0000000007FFFF5000000000
000000000DFFFF1000000000
000000005FFFFC0000000000
00000000BFFFF90000000000
00000001FFFFF30000000000
00000008FFFFC00000000000
0000001EFFFF600000000000
0000007FFFFF871000000000
058ACEFFFFFFFFE400000000
1FFFFFFFFFFFFFFF30000000
0EFFFFFFFFFFFFFF20000000
0AFFFFFFFFFFFFE500000000
03FFFEA75462000000000000
003420000000000000000000
ENDCHAR
STARTCHAR Icircumflex
ENCODING 206
SWIDTH 515 0
DWIDTH 17 0
BBX 23 35 -2 -1
BITMAP
000000000000007B50000000
0000000000002CFFFB100000
000000000003EFFFFFC10000
00000000003EFFFFFFFD2000
0000000006EFFFE8FFFFD400
000000001FFFFF406FFFFD00
000000000CFFF50008FFFA00
0000000004FE4000006FE200
000000000053000000054000
000000000000000000000000
000000000001122343100000
000001679CFFFFFFFFFEA200
000006FFFFFFFFFFFFFFFB20
000004FFFFFFFFFFFFFFFFA0
000003FFFFFFFFFFFFFFFE60
000000CFFFFFFFFEA9874100
00000019843FFFFB00000000
00000000005FFFF800000000
00000000009FFFF400000000
0000000000EFFFE000000000
0000000004FFFFA000000000
0000000007FFFF5000000000
000000000DFFFF1000000000
000000005FFFFC0000000000
00000000BFFFF90000000000
00000001FFFFF30000000000
00000008FFFFC00000000000
0000001EFFFF600000000000
0000007FFFFF871000000000
058ACEFFFFFFFFE400000000
1FFFFFFFFFFFFFFF30000000
0EFFFFFFFFFFFFFF20000000
0AFFFFFFFFFFFFE500000000
03FFFEA75462000000000000
003420000000000000000000
ENDCHAR
STARTCHAR Idieresis
ENCODING 207
SWIDTH 515 0
DWIDTH 17 0
BBX 23 33 -2 -1
BITMAP
000000000003500000243100
0000000004EFF50002FFFC20
0000000009FFFF5003FFFFB0
000000000DFFFF8004FFFFC0
000000000AFFFC1003DFFE40
0000000002BB900000089100
000000000000000000000000
000000000000000000000000
000000000001122343100000
000001679CFFFFFFFFFEA200
000006FFFFFFFFFFFFFFFB20
000004FFFFFFFFFFFFFFFFA0
000003FFFFFFFFFFFFFFFE60
000000CFFFFFFFFEA9874100
00000019843FFFFB00000000
00000000005FFFF800000000
00000000009FFFF400000000
0000000000EFFFE000000000
0000000004FFFFA000000000
0000000007FFFF5000000000
000000000DFFFF1000000000
000000005FFFFC0000000000
00000000BFFFF90000000000
00000001FFFFF30000000000
00000008FFFFC00000000000
0000001EFFFF600000000000
0000007FFFFF871000000000
058ACEFFFFFFFFE400000000
1FFFFFFFFFFFFFFF30000000
0EFFFFFFFFFFFFFF20000000
0AFFFFFFFFFFFFE500000000
03FFFEA75462000000000000
003420000000000000000000
ENDCHAR
STARTCHAR Eth
ENCODING 208
SWIDTH 656 0
DWIDTH 21 0
BBX 22 25 -1 -1
BITMAP
0000011000000000000000
000007FA40000000000000
00000CFFFD610000000000
00000AFFFFFEA400000000
000006FFFFFFFF91000000
00000DFFFFFFFFFD300000
00000FFFFCFFFFFFF50000
00000CFFF139EFFFFF8000
000009FFF30006DFFFF700
00025AFFFA61000AFFFF30
1ACFFFFFFFFC0000AFFFB0
5FFFFFFFFFFF80000AFFF2
4FFFFFFFFFFFC0000AFFF5
3FFFFFFFFFFD50007FFFF7
0DFFDFFFFA20002AFFFFF5
03723FFFF60029FFFFFFD1
00008FFFF327EFFFFFFF40
0000CFFFFCFFFFFFFFF500
0002FFFFFFFFFFFFFD4000
0005FFFFFFFFFFFF910000
0004FFFFFFFFFFB3000000
0001FFFFFFFF9300000000
0000CFFFFE810000000000
00003EFC60000000000000
0000013000000000000000
ENDCHAR
STARTCHAR Ntilde
ENCODING 209
SWIDTH 684 0
DWIDTH 22 0
BBX 25 32 -1 0
BITMAP
0000000000003ADEC70005AC90
000000000005FFFFFFB05FFFD0
00000000002EFFFFFFFCEFFF60
0000000000BFFFEFFFFFFFFB00
0000000004FFFE17FFFFFFE200
0000000005FEC4006EFFFA2000
00000000000000000012000000
00000000000000000000000000
00000000000000000003000000
00000000AB400000004F900000
00000002FFFA0000008FFC4000
00000009FFFFA00000DFFFE100
0000001EFFFFF50006FFFFF800
0000008FFFFFF8000AFFFFF800
000001EFFFFFF7000CFFFFF300
000007FFFFFFF4000EFFFFA000
00000EFFFFFFE0002FFFFF4000
00006FFFFFFF80005FFFFF2000
0000DFFFFFFF80009FFFFE0000
0006FFFFFFFF8000DFFFFB0000
000DFFFFFFFF7003FFFFF80000
005FFFFFFFFF700BFFFFF70000
00DFFFFFFFFF705FFFFFF60000
05FFFFFFFFFF95FFFFFFF10000
0CFFFFFFFFFFEFFFFFFFB00000
4FFFFFFF5EFFFFFFFFFF700000
3FFFFFFC08FFFFFFFFFE100000
1FFFFFE201DFFFFFFFF4000000
0BFFFFA0004FFFFFFF90000000
05FFFF600005FFFFFC00000000
00BFFF1000004EFF9000000000
002CD300000001420000000000
ENDCHAR
STARTCHAR Ograve
ENCODING 210
SWIDTH 744 0
DWIDTH 24 0
BBX 23 35 0 -1
BITMAP
00000000000005B100000000
0000000000004EFD30000000
000000000000CFFFF5000000
000000000001FFFFFF400000
000000000000AFFFFFE40000
00000000000005EFFFFE2000
000000000000003EFFFFE100
0000000000000002DFFFF200
00000000000000001AFFF000
0000000000000000004A6000
000000000000009930000000
0000000000005AFFE1000000
000000000006FFFFFD200000
00000000007FFFFFFFC00000
000000002AFFFFFFFFD00000
00000002DFFFFFFFFF700000
0000002DFFFFFFFFFFA00000
000005EFFFFFFFFFFFF20000
00003FFFFFFFFFDFFFFA0000
0002EFFFFFFC350CFFFF3000
000BFFFFFF900004FFFFB000
007FFFFFF7000000BFFFF400
02FFFFFF700000002FFFFB00
09FFFFF80000000009FFFD00
1FFFFFD10000000005FFFF30
5FFFFF300000000009FFFF80
8FFFFA00000000029FFFFFA0
AFFFF6000000039FFFFFFF80
9FFFFC644689EFFFFFFFFF40
8FFFFFFFFFFFFFFFFFFFF900
1EFFFFFFFFFFFFFFFFFF7000
07FFFFFFFFFFFFFFFFD40000
008FFFFFFFFFFFFE84000000
0005CFFFFFFEB95100000000
000001324520000000000000
ENDCHAR
STARTCHAR Oacute
ENCODING 211
SWIDTH 744 0
DWIDTH 24 0
BBX 23 35 0 -1
BITMAP
0000000000000002B4000000
000000000000004EFE300000
00000000000006FFFFA00000
0000000000006FFFFFF00000
000000000005FFFFFF800000
00000000004FFFFFE4000000
0000000003EFFFFD20000000
0000000004FFFFC100000000
0000000002FFF90000000000
00000000008A300000000000
000000000000009930000000
0000000000005AFFE1000000
000000000006FFFFFD200000
00000000007FFFFFFFC00000
000000002AFFFFFFFFD00000
00000002DFFFFFFFFF700000
0000002DFFFFFFFFFFA00000
000005EFFFFFFFFFFFF20000
00003FFFFFFFFFDFFFFA0000
0002EFFFFFFC350CFFFF3000
000BFFFFFF900004FFFFB000
007FFFFFF7000000BFFFF400
02FFFFFF700000002FFFFB00
09FFFFF80000000009FFFD00
1FFFFFD10000000005FFFF30
5FFFFF300000000009FFFF80
8FFFFA00000000029FFFFFA0
AFFFF6000000039FFFFFFF80
9FFFFC644689EFFFFFFFFF40
8FFFFFFFFFFFFFFFFFFFF900
1EFFFFFFFFFFFFFFFFFF7000
07FFFFFFFFFFFFFFFFD40000
008FFFFFFFFFFFFE84000000
0005CFFFFFFEB95100000000
000001324520000000000000
ENDCHAR
STARTCHAR Ocircumflex
ENCODING 212
SWIDTH 744 0
DWIDTH 24 0
BBX 23 34 0 -1
BITMAP
000000000000005B70000000
0000000000001BFFFC200000
000000000001CFFFFFE30000
00000000002DFFFFFFFE3000
0000000004DFFFF8EFFFE600
000000000DFFFF604FFFFF10
000000000AFFF80005FFFC00
0000000002EF6000004EF400
000000000045000000035000
000000000000009930000000
0000000000005AFFE1000000
000000000006FFFFFD200000
00000000007FFFFFFFC00000
000000002AFFFFFFFFD00000
00000002DFFFFFFFFF700000
0000002DFFFFFFFFFFA00000
000005EFFFFFFFFFFFF20000
00003FFFFFFFFFDFFFFA0000
0002EFFFFFFC350CFFFF3000
000BFFFFFF900004FFFFB000
007FFFFFF7000000BFFFF400
02FFFFFF700000002FFFFB00
09FFFFF80000000009FFFD00
1FFFFFD10000000005FFFF30
5FFFFF300000000009FFFF80
8FFFFA00000000029FFFFFA0
AFFFF6000000039FFFFFFF80
9FFFFC644689EFFFFFFFFF40
8FFFFFFFFFFFFFFFFFFFF900
1EFFFFFFFFFFFFFFFFFF7000
07FFFFFFFFFFFFFFFFD40000
008FFFFFFFFFFFFE84000000
0005CFFFFFFEB95100000000
000001324520000000000000
ENDCHAR
STARTCHAR Otilde
ENCODING 213
SWIDTH 744 0
DWIDTH 24 0
BBX 24 32 0 -1
BITMAP
000000000003ADEC70005AC9
00000000005FFFFFFB05FFFD
0000000002EFFFFFFFCEFFF6
000000000BFFFEFFFFFFFFB0
000000004FFFE17FFFFFFE20
000000005FEC4006EFFFA200
000000000000000001200000
000000000000009930000000
0000000000005AFFE1000000
000000000006FFFFFD200000
00000000007FFFFFFFC00000
000000002AFFFFFFFFD00000
00000002DFFFFFFFFF700000
0000002DFFFFFFFFFFA00000
000005EFFFFFFFFFFFF20000
00003FFFFFFFFFDFFFFA0000
0002EFFFFFFC350CFFFF3000
000BFFFFFF900004FFFFB000
007FFFFFF7000000BFFFF400
02FFFFFF700000002FFFFB00
09FFFFF80000000009FFFD00
1FFFFFD10000000005FFFF30
5FFFFF300000000009FFFF80
8FFFFA00000000029FFFFFA0
AFFFF6000000039FFFFFFF80
9FFFFC644689EFFFFFFFFF40
8FFFFFFFFFFFFFFFFFFFF900
1EFFFFFFFFFFFFFFFFFF7000
07FFFFFFFFFFFFFFFFD40000
008FFFFFFFFFFFFE84000000
0005CFFFFFFEB95100000000
000001324520000000000000
ENDCHAR
STARTCHAR Odieresis
ENCODING 214
SWIDTH 744 0
DWIDTH 24 0
BBX 23 32 0 -1
BITMAP
000000000005200000432000
0000000009EFD10008FFF800
000000000FFFFD1009FFFF50
000000004FFFFF200AFFFF60
000000001FFFF70008FFFC00
0000000006BB5000002A6000
000000000000000000000000
000000000000009930000000
0000000000005AFFE1000000
000000000006FFFFFD200000
00000000007FFFFFFFC00000
000000002AFFFFFFFFD00000
00000002DFFFFFFFFF700000
0000002DFFFFFFFFFFA00000
000005EFFFFFFFFFFFF20000
00003FFFFFFFFFDFFFFA0000
0002EFFFFFFC350CFFFF3000
000BFFFFFF900004FFFFB000
007FFFFFF7000000BFFFF400
02FFFFFF700000002FFFFB00
09FFFFF80000000009FFFD00
1FFFFFD10000000005FFFF30
5FFFFF300000000009FFFF80
8FFFFA00000000029FFFFFA0
AFFFF6000000039FFFFFFF80
9FFFFC644689EFFFFFFFFF40
8FFFFFFFFFFFFFFFFFFFF900
1EFFFFFFFFFFFFFFFFFF7000
07FFFFFFFFFFFFFFFFD40000
008FFFFFFFFFFFFE84000000
0005CFFFFFFEB95100000000
000001324520000000000000
ENDCHAR
STARTCHAR multiply
ENCODING 215
SWIDTH 490 0
DWIDTH 16 0
BBX 16 17 0 0
BITMAP
0046200000000310
00BFD4000001AFC0
00CFFF50005EFFF6
00CFFFE319FFFFF6
005FFFFDDFFFFFA0
0008FFFFFFFFD300
0000CFFFFFF90000
00007FFFFF600000
0006FFFFFC000000
005FFFFFFF600000
04FFFFFFFFE20000
1EFFFE4AFFFC1000
9FFFE301DFFF6000
DFFF40006FFFB000
FFF600000DFFB000
BFF1000006FF3000
3D70000000340000
ENDCHAR
STARTCHAR Oslash
ENCODING 216
SWIDTH 744 0
DWIDTH 24 0
BBX 23 29 0 -5
BITMAP
000000000000009930002700
0000000000005AFFE105FF30
000000000006FFFFFD6FFF60
00000000007FFFFFFFFFFF80
000000002AFFFFFFFFFFFF70
00000002DFFFFFFFFFFFFF50
0000002DFFFFFFFFFFFFFD10
000005EFFFFFFFFFFFFFE200
00003FFFFFFFFFFFFFFF3000
0002EFFFFFFC3DFFFFFF3000
000BFFFFFF908FFFFFFFA000
007FFFFFF706FFFFFFFFF300
02FFFFFF703FFFFFCFFFFB00
09FFFFF800CFFFFD19FFFD00
1FFFFFD10AFFFFF305FFFF30
5FFFFF308FFFFF6009FFFF80
8FFFFA07FFFFF8029FFFFFA0
AFFFF66FFFFFA39FFFFFFF80
9FFFFDFFFFFFFFFFFFFFFF40
8FFFFFFFFFFFFFFFFFFFF900
1EFFFFFFFFFFFFFFFFFF7000
07FFFFFFFFFFFFFFFFD40000
009FFFFFFFFFFFFE84000000
000DFFFFFFFEB95100000000
000EFFFF6430000000000000
000EFFFF4000000000000000
000AFFFD1000000000000000
0002CFF40000000000000000
000000100000000000000000
ENDCHAR
STARTCHAR Ugrave
ENCODING 217
SWIDTH 695 0
DWIDTH 22 0
BBX 22 32 1 0
BITMAP
0000000A70000000000000
000000AFF9100000000000
000003FFFFC10000000000
000008FFFFFC1000000000
000003DFFFFFC100000000
0000001AFFFFFB00000000
000000008FFFFF90000000
0000000006FFFFB0000000
00000000004DFF90001000
0000000000017B2001EB10
000000000000000003FFB0
001910000000000008FFE0
02DF8000000000000DFFF4
05FFF700000000000FFFF9
08FFFE00000000003FFFFE
0BFFFF50000000007FFFFF
0CFFFFA000000000CFFFFB
0FFFFFC000000003FFFFF8
3FFFFF800000000AFFFFF6
5FFFFF400000004FFFFFF2
6FFFFF20000001DFFFFF80
6FFFFF1000001DFFFFFE10
6FFFFF100003DFFFFFF700
5FFFFF30018FFFFFFFD000
5FFFFF95AEFFFFFFF93000
4FFFFFFFFFFFFFFFA10000
0AFFFFFFFFFFFFFE100000
06FFFFFFFFFFFFF4000000
02FFFFFFFFFFFE40000000
009FFFFFFFFFB200000000
001CFFFFFFC40000000000
000069AB93000000000000
ENDCHAR
STARTCHAR Uacute
ENCODING 218
SWIDTH 695 0
DWIDTH 22 0
BBX 22 34 1 0
BITMAP
0000000000000001A70000
000000000000002BFF6000
00000000000003EFFFE100
0000000000003EFFFFF400
000000000002EFFFFFC100
00000000001DFFFFF70000
0000000000DFFFFF500000
0000000000EFFFE4000000
0000000000DFFB20000000
00000000004B5000000000
0000000000000000001000
000000000000000001EB10
000000000000000003FFB0
001910000000000008FFE0
02DF8000000000000DFFF4
05FFF700000000000FFFF9
08FFFE00000000003FFFFE
0BFFFF50000000007FFFFF
0CFFFFA000000000CFFFFB
0FFFFFC000000003FFFFF8
3FFFFF800000000AFFFFF6
5FFFFF400000004FFFFFF2
6FFFFF20000001DFFFFF80
6FFFFF1000001DFFFFFE10
6FFFFF100003DFFFFFF700
5FFFFF30018FFFFFFFD000
5FFFFF95AEFFFFFFF93000
4FFFFFFFFFFFFFFFA10000
0AFFFFFFFFFFFFFE100000
06FFFFFFFFFFFFF4000000
02FFFFFFFFFFFE40000000
009FFFFFFFFFB200000000
001CFFFFFFC40000000000
000069AB93000000000000
ENDCHAR
STARTCHAR Ucircumflex
ENCODING 219
SWIDTH 695 0
DWIDTH 22 0
BBX 22 33 1 0
BITMAP
000000000007B500000000
0000000002CFFFB1000000
000000003EFFFFFC100000
00000003EFFFFFFFD20000
0000006EFFFE8FFFFD4000
000001FFFFF406FFFFD000
000000CFFF50008FFFA000
0000004FE4000006FE2000
0000000530000000540000
0000000000000000001000
000000000000000001EB10
000000000000000003FFB0
001910000000000008FFE0
02DF8000000000000DFFF4
05FFF700000000000FFFF9
08FFFE00000000003FFFFE
0BFFFF50000000007FFFFF
0CFFFFA000000000CFFFFB
0FFFFFC000000003FFFFF8
3FFFFF800000000AFFFFF6
5FFFFF400000004FFFFFF2
6FFFFF20000001DFFFFF80
6FFFFF1000001DFFFFFE10
6FFFFF100003DFFFFFF700
5FFFFF30018FFFFFFFD000
5FFFFF95AEFFFFFFF93000
4FFFFFFFFFFFFFFFA10000
0AFFFFFFFFFFFFFE100000
06FFFFFFFFFFFFF4000000
02FFFFFFFFFFFE40000000
009FFFFFFFFFB200000000
001CFFFFFFC40000000000
000069AB93000000000000
ENDCHAR
STARTCHAR Udieresis
ENCODING 220
SWIDTH 695 0
DWIDTH 22 0
BBX 22 31 1 0
BITMAP
0000000043000003320000
0000008EFE20006FFF9100
000000DFFFE2008FFFF700
000002FFFFF4008FFFF800
000000EFFF90006EFFD100
0000005BA6000001A70000
0000000000000000000000
0000000000000000001000
000000000000000001EB10
000000000000000003FFB0
001910000000000008FFE0
02DF8000000000000DFFF4
05FFF700000000000FFFF9
08FFFE00000000003FFFFE
0BFFFF50000000007FFFFF
0CFFFFA000000000CFFFFB
0FFFFFC000000003FFFFF8
3FFFFF800000000AFFFFF6
5FFFFF400000004FFFFFF2
6FFFFF20000001DFFFFF80
6FFFFF1000001DFFFFFE10
6FFFFF100003DFFFFFF700
5FFFFF30018FFFFFFFD000
5FFFFF95AEFFFFFFF93000
4FFFFFFFFFFFFFFFA10000
0AFFFFFFFFFFFFFE100000
06FFFFFFFFFFFFF4000000
02FFFFFFFFFFFE40000000
009FFFFFFFFFB200000000
001CFFFFFFC40000000000
000069AB93000000000000
ENDCHAR
STARTCHAR Yacute
ENCODING 221
SWIDTH 493 0
DWIDTH 16 0
BBX 19 37 1 -1
BITMAP
00000000000000980000
0000000000001AFF8000
000000000002DFFFF200
00000000002DFFFFF600
0000000001DFFFFFC200
000000000CFFFFF90000
00000000BFFFFF700000
00000000DFFFE5000000
00000000BFFC30000000
000000003B6000000000
00000000000000000000
00000000000000000000
02300000000000480000
0EFA200000002CFF9000
2FFFF6000002DFFFFC10
1FFFFE00000BFFFFFF30
0DFFFF2001CFFFFFFD10
0DFFFF5006FFFFFFD200
0BFFFF802EFFFFFE2000
08FFFFC0CFFFFFE30000
05FFFFEAFFFFFF600000
03FFFFFFFFFFF6000000
00DFFFFFFFFFB0000000
007FFFFFFFFE20000000
001EFFFFFFF700000000
0006FFFFFFE000000000
0002FFFFFF5000000000
000AFFFFFB0000000000
003FFFFFE20000000000
00BFFFFF800000000000
03FFFFFD000000000000
0BFFFFF7000000000000
3FFFFFD1000000000000
8FFFFF30000000000000
8FFFFC00000000000000
2EFFF400000000000000
02BE8000000000000000
ENDCHAR
STARTCHAR Thorn
ENCODING 222
SWIDTH 680 0
DWIDTH 22 0
BBX 22 25 0 -1
BITMAP
0000002000000000000000
00001BF300000000000000
0000DFF800000000000000
0002FFFD10000000000000
0009FFFF60000000000000
000CFFFFEFEDCA86300000
003FFFFFFFFFFFFFFD6100
003FFFFFFFFFFFFFFFFD20
007FFFFFFFFFFFFFFFFFD1
00BFFFFFA999ABCFFFFFF7
01FFFFFD0000000DFFFFFB
04FFFFFA0000004FFFFFFD
08FFFFF6000008FFFFFFFC
0BFFFFF40017DFFFFFFFE3
0CFFFFF127EFFFFFFFFD30
0DFFFFFDFFFFFFFFFFA100
0EFFFFFFFFFFFFFFC30000
1FFFFFFFFFFFFD83000000
1FFFFFFFFFE95000000000
0DFFFFFFB5100000000000
09FFFF9000000000000000
04FFFFA000000000000000
00EFFF9000000000000000
008FFD2000000000000000
0003200000000000000000
ENDCHAR
STARTCHAR germandbls
ENCODING 223
SWIDTH 931 0
DWIDTH 30 0
BBX 34 21 0 -1
BITMAP
0000000000013431000000000013431000
0000000048DFFFFFB00000049DFFFFFA00
0000039EFFFFFFFFF60049EFFFFFFFFF50
0028DFFFFFFFFFFFFD8DFFFFFFFFFFFFC0
06FFFFFFFFFFFFFFFFFFFFFFFFFFFFFFF4
4FFFFFFFFCA6887BFFFFFFFFCA68877960
8FFFFFFE30000009FFFFFFD20000000000
9FFFFFFFE8000009FFFFFFFE8000000000
7FFFFFFFFFE30008FFFFFFFFFE20000000
09FFFFFFFFF900019FFFFFFFFF80000000
001468ADFFFF400001468ADFFFE3000000
000000004AFFD10000000004AFFD000000
0000000000EFF400000000001EFF300000
000000000AFFF50000000000BFFF400000
00000004CFFFF2000000005CFFFF100000
000015CFFFFFA00000016CFFFFF9000000
04CCFFFFFFFD10004CCFFFFFFFD1000000
06FFFFFFFFC100007FFFFFFFFB10000000
06FFFFFFF81000006FFFFFFE8000000000
03FFFFE9200000003FFFFE810000000000
0057640000000000067640000000000000
ENDCHAR
STARTCHAR agrave
ENCODING 224
SWIDTH 581 0
DWIDTH 19 0
BBX 20 31 -1 -1
BITMAP
0000000003B300000000
000000002DFE50000000
000000009FFFF8000000
00000000DFFFFF700000
000000007FFFFFF70000
0000000003DFFFFF5000
00000000002CFFFFF400
000000000001BFFFF500
00000000000008FFF300
00000000000000399000
00000000000000000000
00000000004E95000000
0000000002EFFF800000
000000002DFFFFC00000
0000006CFFFFFFF00000
000002FFFFFFFFF10000
00000AFFFFFFFFF40000
00003FFFFFEFFFF80000
0000AFFFFF4DFFFB0000
0001EFFFF709FFFE0000
0007FFFFC005FFFF8700
001EFFFF3237FFFFFFC3
007FFFFFFFFFFFFFFFF6
00EFFFFFFFFFFFFFFF70
06FFFF9FFFFFFFFFF600
0CFFFE09FFEB9EFFF800
4FFFF70022001DFFF900
8FFFF2000006DFFFF700
4FFFD0000002DFFFD100
0BFE400000008FFC2000
00420000000005400000
ENDCHAR
STARTCHAR aacute
ENCODING 225
SWIDTH 581 0
DWIDTH 19 0
BBX 20 31 -1 -1
BITMAP
00000000000000890000
0000000000001AFF9000
000000000001DFFFF200
00000000001CFFFFF700
0000000001CFFFFFD200
000000000BFFFFF90000
00000000AFFFFF700000
00000000CFFFF6000000
00000000AFFD30000000
000000002B7000000000
00000000000000000000
00000000004E95000000
0000000002EFFF800000
000000002DFFFFC00000
0000006CFFFFFFF00000
000002FFFFFFFFF10000
00000AFFFFFFFFF40000
00003FFFFFEFFFF80000
0000AFFFFF4DFFFB0000
0001EFFFF709FFFE0000
0007FFFFC005FFFF8700
001EFFFF3237FFFFFFC3
007FFFFFFFFFFFFFFFF6
00EFFFFFFFFFFFFFFF70
06FFFF9FFFFFFFFFF600
0CFFFE09FFEB9EFFF800
4FFFF70022001DFFF900
8FFFF2000006DFFFF700
4FFFD0000002DFFFD100
0BFE400000008FFC2000
00420000000005400000
ENDCHAR
STARTCHAR acircumflex
ENCODING 226
SWIDTH 581 0
DWIDTH 19 0
BBX 20 30 -1 -1
BITMAP
000000000006B6000000
0000000002CFFFB10000
000000002DFFFFFD2000
00000003EFFFFFFFD200
0000005EFFFF7FFFFE40
000000FFFFF506FFFFE0
000000CFFF60007FFFB0
0000003FE5000005FE30
00000005400000004400
00000000000000000000
00000000004E95000000
0000000002EFFF800000
000000002DFFFFC00000
0000006CFFFFFFF00000
000002FFFFFFFFF10000
00000AFFFFFFFFF40000
00003FFFFFEFFFF80000
0000AFFFFF4DFFFB0000
0001EFFFF709FFFE0000
0007FFFFC005FFFF8700
001EFFFF3237FFFFFFC3
007FFFFFFFFFFFFFFFF6
00EFFFFFFFFFFFFFFF70
06FFFF9FFFFFFFFFF600
0CFFFE09FFEB9EFFF800
4FFFF70022001DFFF900
8FFFF2000006DFFFF700
4FFFD0000002DFFFD100
0BFE400000008FFC2000
00420000000005400000
ENDCHAR
STARTCHAR atilde
ENCODING 227
SWIDTH 581 0
DWIDTH 19 0
BBX 22 28 -1 -1
BITMAP
0000000029DED91004ACA1
00000003EFFFFFD13FFFF1
0000001DFFFFFFFDDFFF90
0000008FFFEFFFFFFFFD10
000002FFFF34FFFFFFF400
000003EEC5004DFFFB3000
0000000000000012100000
0000000000000000000000
00000000004E9500000000
0000000002EFFF80000000
000000002DFFFFC0000000
0000006CFFFFFFF0000000
000002FFFFFFFFF1000000
00000AFFFFFFFFF4000000
00003FFFFFEFFFF8000000
0000AFFFFF4DFFFB000000
0001EFFFF709FFFE000000
0007FFFFC005FFFF870000
001EFFFF3237FFFFFFC300
007FFFFFFFFFFFFFFFF600
00EFFFFFFFFFFFFFFF7000
06FFFF9FFFFFFFFFF60000
0CFFFE09FFEB9EFFF80000
4FFFF70022001DFFF90000
8FFFF2000006DFFFF70000
4FFFD0000002DFFFD10000
0BFE400000008FFC200000
0042000000000540000000
ENDCHAR
STARTCHAR adieresis
ENCODING 228
SWIDTH 581 0
DWIDTH 19 0
BBX 21 29 -1 -1
BITMAP
0000000016100000432000
0000001BFFB1000AFFF600
0000003FFFFB000CFFFF30
0000006FFFFE000CFFFF30
0000004FFFE5000AFFFA00
00000008BB3000003A5000
0000000000000000000000
0000000000000000000000
0000000000000000000000
00000000004E9500000000
0000000002EFFF80000000
000000002DFFFFC0000000
0000006CFFFFFFF0000000
000002FFFFFFFFF1000000
00000AFFFFFFFFF4000000
00003FFFFFEFFFF8000000
0000AFFFFF4DFFFB000000
0001EFFFF709FFFE000000
0007FFFFC005FFFF870000
001EFFFF3237FFFFFFC300
007FFFFFFFFFFFFFFFF600
00EFFFFFFFFFFFFFFF7000
06FFFF9FFFFFFFFFF60000
0CFFFE09FFEB9EFFF80000
4FFFF70022001DFFF90000
8FFFF2000006DFFFF70000
4FFFD0000002DFFFD10000
0BFE400000008FFC200000
0042000000000540000000
ENDCHAR
STARTCHAR aring
ENCODING 229
SWIDTH 581 0
DWIDTH 19 0
BBX 20 28 -1 -1
BITMAP
00000000000000330000
00000000000008FE2000
000000000001BFFF6000
00000000001CFFFF9000
0000000000CFFFFFF200
0000000007FFF9EFF900
000000001EFF91CFFD00
000000004FFFFFFFFF10
000000003FFFFFFFFA00
000000000BFFFFFE8000
000000002CFFFFD00000
0000006CFFFFFFF00000
000002FFFFFFFFF10000
00000AFFFFFFFFF40000
00003FFFFFEFFFF80000
0000AFFFFF4DFFFB0000
0001EFFFF709FFFE0000
0007FFFFC005FFFF8700
001EFFFF3237FFFFFFC3
007FFFFFFFFFFFFFFFF6
00EFFFFFFFFFFFFFFF70
06FFFF9FFFFFFFFFF600
0CFFFE09FFEB9EFFF800
4FFFF70022001DFFF900
8FFFF2000006DFFFF700
4FFFD0000002DFFFD100
0BFE400000008FFC2000
00420000000005400000
ENDCHAR
STARTCHAR ae
ENCODING 230
SWIDTH 948 0
DWIDTH 30 0
BBX 35 21 -3 -1
BITMAP
000000000000001000000000000000000000
00000000000006E94000000002579BEEB100
0000000000005FFFF500026AEFFFFFFFFE10
000000000006FFFFF707DFFFFFFFFFFFFE10
000000002CDFFFFFF75FFFFFFFFFFFFFD400
00000000CFFFFFFFF64FFFFFFFFFDA730000
00000007FFFFFFFFF71FFFFFEB9300000000
0000002EFFFFEFFFF80BFFFF100000000000
000000BFFFFE3FFFF904FFFFCCCDD4000000
000004FFFFF30DFFFB0AFFFFFFFFFE600000
00001DFFFF600BFFFE7FFFFFFFFFFFF10000
00008FFFF9125CFFFFFFFFFFFFFFFD400000
0003FFFFFFFFFFFFFFFFFFEBDCCB61000000
000CFFFFFFFFFFFFFFFFFF60000000000000
006FFFF9FFFFFFFFFFFFFD00000001300000
01EFFFD0BFFEA9FFFFFFF9335778DFF50000
08FFFF30021003FFFFFFFFFFFFFFFFFF5000
1EFFFB000001AFFFFFFFFFFFFFFFFFFF5000
0DFFF50000008FFFFCFFFFFFFFFFFFF80000
07FF800000004FFF808FFFFFFFFEB7200000
004200000000035100014554311000000000
ENDCHAR
STARTCHAR ccedilla
ENCODING 231
SWIDTH 513 0
DWIDTH 16 0
BBX 16 29 0 -10
BITMAP
00000000002BE920
0000000029FFFFB2
00000018FFFFFFFA
000007DFFFFFFFFA
0001BFFFFFFFFFE2
002EFFFFFFFFD820
01DFFFFFFE820000
0CFFFFFFD2000000
7FFFFFE500000000
DFFFFC1000000000
FFFFC10000000000
EFFF400000000000
CFFE000000000000
9FFF600000000000
3FFFFFC987655300
0CFFFFFFFFFFFF40
02DFFFFFFFFFFFD0
0019FFFFFFFFFFC0
00003BFFFFFFFA10
00004FFF53311000
0000BFFD10000000
0000DFFFE9000000
00006FFFFFB10000
00000169EFFA0000
000000008FFF2000
005BBBDFFFFF2000
008FFFFFFFF60000
000AFFFFD9300000
0000112100000000
ENDCHAR
STARTCHAR egrave
ENCODING 232
SWIDTH 521 0
DWIDTH 17 0
BBX 18 31 0 -1
BITMAP
000005B20000000000
00004EFD3000000000
0000CFFFF500000000
0001FFFFFF50000000
0000AFFFFFF4000000
000005EFFFFF300000
0000003EFFFFE20000
00000002DFFFF20000
000000001AFFF10000
00000000004A700000
000000000000000000
000000001468ADED30
0000148CFFFFFFFFF5
003BFFFFFFFFFFFFF5
01EFFFFFFFFFFFFF80
00EFFFFFFFFEC95100
00BFFFFFCA61000000
006FFFF60000000000
000EFFFDBCCD800000
005FFFFFFFFFF91000
00CFFFFFFFFFFF6000
04FFFFFFFFFFF80000
0BFFFFCDDCC9200000
3FFFFB000000000000
9FFFF3000000130000
AFFFD334678BFF9100
8FFFFFFFFFFFFFFA00
5FFFFFFFFFFFFFFA00
1EFFFFFFFFFFFFC100
04EFFFFFFFFC940000
000356541200000000
ENDCHAR
STARTCHAR eacute
ENCODING 233
SWIDTH 521 0
DWIDTH 17 0
BBX 18 31 0 -1
BITMAP
0000000000001B5000
000000000003DFF400
00000000004FFFFD00
0000000004FFFFFF20
000000004EFFFFFA00
00000002EFFFFF6000
0000001EFFFFE40000
0000002FFFFD300000
0000000FFFA1000000
00000006A400000000
000000000000000000
000000001468ADED30
0000148CFFFFFFFFF5
003BFFFFFFFFFFFFF5
01EFFFFFFFFFFFFF80
00EFFFFFFFFEC95100
00BFFFFFCA61000000
006FFFF60000000000
000EFFFDBCCD800000
005FFFFFFFFFF91000
00CFFFFFFFFFFF6000
04FFFFFFFFFFF80000
0BFFFFCDDCC9200000
3FFFFB000000000000
9FFFF3000000130000
AFFFD334678BFF9100
8FFFFFFFFFFFFFFA00
5FFFFFFFFFFFFFFA00
1EFFFFFFFFFFFFC100
04EFFFFFFFFC940000
000356541200000000
ENDCHAR
STARTCHAR ecircumflex
ENCODING 234
SWIDTH 521 0
DWIDTH 17 0
BBX 19 30 0 -1
BITMAP
00000000004B81000000
0000000009FFFE400000
00000000AFFFFFF50000
0000001BFFFFFFFF5000
000002CFFFF9DFFFF800
00000AFFFF902EFFFF30
000007FFFB0003EFFE10
000001CF8000002DF700
00000026000000027000
00000000000000000000
000000001468ADED3000
0000148CFFFFFFFFF500
003BFFFFFFFFFFFFF500
01EFFFFFFFFFFFFF8000
00EFFFFFFFFEC9510000
00BFFFFFCA6100000000
006FFFF6000000000000
000EFFFDBCCD80000000
005FFFFFFFFFF9100000
00CFFFFFFFFFFF600000
04FFFFFFFFFFF8000000
0BFFFFCDDCC920000000
3FFFFB00000000000000
9FFFF300000013000000
AFFFD334678BFF910000
8FFFFFFFFFFFFFFA0000
5FFFFFFFFFFFFFFA0000
1EFFFFFFFFFFFFC10000
04EFFFFFFFFC94000000
00035654120000000000
ENDCHAR
STARTCHAR edieresis
ENCODING 235
SWIDTH 521 0
DWIDTH 17 0
BBX 20 29 0 -1
BITMAP
00000001610000043200
000001BFFB1000AFFF60
000003FFFFB000CFFFF3
000006FFFFE000CFFFF3
000004FFFE5000AFFFA0
0000008BB3000003A500
00000000000000000000
00000000000000000000
00000000000000000000
000000001468ADED3000
0000148CFFFFFFFFF500
003BFFFFFFFFFFFFF500
01EFFFFFFFFFFFFF8000
00EFFFFFFFFEC9510000
00BFFFFFCA6100000000
006FFFF6000000000000
000EFFFDBCCD80000000
005FFFFFFFFFF9100000
00CFFFFFFFFFFF600000
04FFFFFFFFFFF8000000
0BFFFFCDDCC920000000
3FFFFB00000000000000
9FFFF300000013000000
AFFFD334678BFF910000
8FFFFFFFFFFFFFFA0000
5FFFFFFFFFFFFFFA0000
1EFFFFFFFFFFFFC10000
04EFFFFFFFFC94000000
00035654120000000000
ENDCHAR
STARTCHAR igrave
ENCODING 236
SWIDTH 320 0
DWIDTH 10 0
BBX 11 31 1 -1
BITMAP
000890000000
007FFA100000
01FFFFD20000
05FFFFFD2000
02CFFFFFD200
0008FFFFFD10
00006FFFFFB0
000005EFFFD0
0000003CFFB0
000000006B30
000001000000
0001AF300000
0008FF700000
000DFFE10000
003FFFF20000
008FFFF60000
009FFFF70000
00DFFFF10000
02FFFFB00000
06FFFF600000
0AFFFF200000
0DFFFD000000
0EFFFB000000
0FFFF9000000
1FFFF7000000
3FFFF6000000
0EFFF7000000
0AFFF9000000
05FFFA000000
01EFF5000000
003520000000
ENDCHAR
STARTCHAR iacute
ENCODING 237
SWIDTH 320 0
DWIDTH 10 0
BBX 16 32 1 -1
BITMAP
0000000000004B20
000000000006FFD1
00000000009FFFF8
0000000008FFFFFC
000000008FFFFFE6
00000007FFFFFD20
0000005FFFFFC100
0000007FFFFA0000
0000005FFE700000
0000000A92000000
0000000000000000
0000010000000000
0001AF3000000000
0008FF7000000000
000DFFE100000000
003FFFF200000000
008FFFF600000000
009FFFF700000000
00DFFFF100000000
02FFFFB000000000
06FFFF6000000000
0AFFFF2000000000
0DFFFD0000000000
0EFFFB0000000000
0FFFF90000000000
1FFFF70000000000
3FFFF60000000000
0EFFF70000000000
0AFFF90000000000
05FFFA0000000000
01EFF50000000000
0035200000000000
ENDCHAR
STARTCHAR icircumflex
ENCODING 238
SWIDTH 320 0
DWIDTH 10 0
BBX 14 30 1 -1
BITMAP
000003A9200000
00007FFFE50000
0008FFFFFF7000
009FFFFFFFF700
1BFFFFACFFFF91
8FFFFB01CFFFF6
4FFFC1002DFFF3
0BFA100001BF90
01700000001710
00000100000000
0001AF30000000
0008FF70000000
000DFFE1000000
003FFFF2000000
008FFFF6000000
009FFFF7000000
00DFFFF1000000
02FFFFB0000000
06FFFF60000000
0AFFFF20000000
0DFFFD00000000
0EFFFB00000000
0FFFF900000000
1FFFF700000000
3FFFF600000000
0EFFF700000000
0AFFF900000000
05FFFA00000000
01EFF500000000
00352000000000
ENDCHAR
STARTCHAR idieresis
ENCODING 239
SWIDTH 320 0
DWIDTH 10 0
BBX 14 29 1 -1
BITMAP
00350000024310
5EFF50003FFFC2
AFFFF4004FFFFA
EFFFF7005FFFFB
BFFFB1004EFFE3
3BA80000008810
00000000000000
00000000000000
00000100000000
0001AF30000000
0008FF70000000
000DFFE1000000
003FFFF2000000
008FFFF6000000
009FFFF7000000
00DFFFF1000000
02FFFFB0000000
06FFFF60000000
0AFFFF20000000
0DFFFD00000000
0EFFFB00000000
0FFFF900000000
1FFFF700000000
3FFFF600000000
0EFFF700000000
0AFFF900000000
05FFFA00000000
01EFF500000000
00352000000000
ENDCHAR
STARTCHAR eth
ENCODING 240
SWIDTH 541 0
DWIDTH 17 0
BBX 18 21 -1 -1
BITMAP
000021000000000000
0000AFA40000000000
0000DFFFD720000000
00009FFFFFF9100000
0000CFFFFFFFD30000
0001FFFCFFFFFE5000
0000DFF617CFFFF700
0000AFF90004CFFF50
258DEFFFD6001CFFE1
AFFFFFFFFE3001CFF7
9FFFFFFFFF7000AFFA
8FFFFFFFEA2007FFFC
2FC9FFFB0003BFFFF9
0105FFF802CFFFFFE1
000AFFFBCFFFFFFE40
000EFFFFFFFFFFD300
002FFFFFFFFFF91000
001FFFFFFFFA300000
000DFFFFE820000000
0006FFC61000000000
000044000000000000
ENDCHAR
STARTCHAR ntilde
ENCODING 241
SWIDTH 564 0
DWIDTH 18 0
BBX 24 29 -1 -1
BITMAP
000000000018CDDA20029BB2
0000000002DFFFFFE31EFFF3
000000000BFFFFFFFECFFFB0
000000005FFFFEFFFFFFFF20
00000000DFFF62EFFFFFF600
00000001DFD7002CFFFD5000
000000000000000012100000
000000000000000000000000
000000000000000020000000
0000001D91000004F7000000
0000007FFE300009FFC10000
000000EFFFE1001EFFF80000
000006FFFFF6006FFFFC0000
00000DFFFFF5008FFFF70000
00005FFFFFF100AFFFD10000
0000CFFFFFC000DFFFA00000
0004FFFFFF7002FFFF700000
000CFFFFFF8005FFFF400000
004FFFFFFF700BFFFF100000
00BFFFFFFF704FFFFF000000
03FFFFFFFF81CFFFFD000000
0BFFFFFFFFCCFFFFF8000000
3FFFFFFAFFFFFFFFF4000000
5FFFFF91FFFFFFFFC0000000
3FFFFE107FFFFFFF20000000
0BFFF9000BFFFFF600000000
04FFF50001BFFF8000000000
009FA0000006940000000000
000200000000000000000000
ENDCHAR
STARTCHAR ograve
ENCODING 242
SWIDTH 628 0
DWIDTH 20 0
BBX 19 31 0 -1
BITMAP
0000000001A600000000
000000000BFF81000000
000000005FFFFB100000
000000009FFFFFB00000
000000004EFFFFFB0000
0000000001BFFFFF9000
000000000009FFFFF800
0000000000008FFFF900
00000000000005EFF800
0000000000000018B100
00000000000295000000
00000000007CFF500000
0000000008FFFFF50000
000000009FFFFFFD0000
0000002DFFFFFFF80000
000002DFFFFFFFF90000
00004EFFFFFFFFFE2000
0003EFFFFFDDBFFF9000
001DFFFFF7001EFFF200
00AFFFFF500008FFF900
05FFFFE4000001DFFF20
0DFFFF400000006FFF50
3FFFFA000000003FFFB0
8FFFE100000001AFFFE0
AFFFA00000017EFFFFE0
AFFFC43357AEFFFFFFA0
8FFFFFFFFFFFFFFFFD20
1EFFFFFFFFFFFFFFB100
05FFFFFFFFFFFFC60000
004DFFFFFFEC82000000
00003556620000000000
ENDCHAR
STARTCHAR oacute
ENCODING 243
SWIDTH 628 0
DWIDTH 20 0
BBX 19 31 0 -1
BITMAP
00000000000001B50000
0000000000003DFE4000
000000000005FFFFC000
00000000004FFFFFF100
0000000004FFFFFFA000
000000002EFFFFE50000
00000001EFFFFE300000
00000002FFFFD2000000
00000000FFFA10000000
000000006A4000000000
00000000000295000000
00000000007CFF500000
0000000008FFFFF50000
000000009FFFFFFD0000
0000002DFFFFFFF80000
000002DFFFFFFFF90000
00004EFFFFFFFFFE2000
0003EFFFFFDDBFFF9000
001DFFFFF7001EFFF200
00AFFFFF500008FFF900
05FFFFE4000001DFFF20
0DFFFF400000006FFF50
3FFFFA000000003FFFB0
8FFFE100000001AFFFE0
AFFFA00000017EFFFFE0
AFFFC43357AEFFFFFFA0
8FFFFFFFFFFFFFFFFD20
1EFFFFFFFFFFFFFFB100
05FFFFFFFFFFFFC60000
004DFFFFFFEC82000000
00003556620000000000
ENDCHAR
STARTCHAR ocircumflex
ENCODING 244
SWIDTH 628 0
DWIDTH 20 0
BBX 20 30 0 -1
BITMAP
0000000000007B500000
00000000002CFFFB1000
0000000003EFFFFFC100
000000003EFFFFFFFD20
00000006EFFFE8FFFFD4
0000001FFFFF406FFFFD
0000000CFFF50008FFFA
00000004FE4000006FE2
00000000530000000540
00000000000295000000
00000000007CFF500000
0000000008FFFFF50000
000000009FFFFFFD0000
0000002DFFFFFFF80000
000002DFFFFFFFF90000
00004EFFFFFFFFFE2000
0003EFFFFFDDBFFF9000
001DFFFFF7001EFFF200
00AFFFFF500008FFF900
05FFFFE4000001DFFF20
0DFFFF400000006FFF50
3FFFFA000000003FFFB0
8FFFE100000001AFFFE0
AFFFA00000017EFFFFE0
AFFFC43357AEFFFFFFA0
8FFFFFFFFFFFFFFFFD20
1EFFFFFFFFFFFFFFB100
05FFFFFFFFFFFFC60000
004DFFFFFFEC82000000
00003556620000000000
ENDCHAR
STARTCHAR otilde
ENCODING 245
SWIDTH 628 0
DWIDTH 20 0
BBX 23 28 0 -1
BITMAP
00000000018CDDA20029BB20
000000002DFFFFFE31EFFF30
00000000BFFFFFFFECFFFB00
00000005FFFFEFFFFFFFF200
0000000DFFF62EFFFFFF6000
0000001DFD7002CFFFD50000
000000000000000121000000
000000000002950000000000
00000000007CFF5000000000
0000000008FFFFF500000000
000000009FFFFFFD00000000
0000002DFFFFFFF800000000
000002DFFFFFFFF900000000
00004EFFFFFFFFFE20000000
0003EFFFFFDDBFFF90000000
001DFFFFF7001EFFF2000000
00AFFFFF500008FFF9000000
05FFFFE4000001DFFF200000
0DFFFF400000006FFF500000
3FFFFA000000003FFFB00000
8FFFE100000001AFFFE00000
AFFFA00000017EFFFFE00000
AFFFC43357AEFFFFFFA00000
8FFFFFFFFFFFFFFFFD200000
1EFFFFFFFFFFFFFFB1000000
05FFFFFFFFFFFFC600000000
004DFFFFFFEC820000000000
000035566200000000000000
ENDCHAR
STARTCHAR odieresis
ENCODING 246
SWIDTH 628 0
DWIDTH 20 0
BBX 21 29 0 -1
BITMAP
0000000003500000243100
00000004EFF50002FFFC20
00000009FFFF5003FFFFB0
0000000DFFFF8004FFFFC0
0000000AFFFC1003DFFE40
00000002BB900000089100
0000000000000000000000
0000000000000000000000
0000000000029500000000
00000000007CFF50000000
0000000008FFFFF5000000
000000009FFFFFFD000000
0000002DFFFFFFF8000000
000002DFFFFFFFF9000000
00004EFFFFFFFFFE200000
0003EFFFFFDDBFFF900000
001DFFFFF7001EFFF20000
00AFFFFF500008FFF90000
05FFFFE4000001DFFF2000
0DFFFF400000006FFF5000
3FFFFA000000003FFFB000
8FFFE100000001AFFFE000
AFFFA00000017EFFFFE000
AFFFC43357AEFFFFFFA000
8FFFFFFFFFFFFFFFFD2000
1EFFFFFFFFFFFFFFB10000
05FFFFFFFFFFFFC6000000
004DFFFFFFEC8200000000
0000355662000000000000
ENDCHAR
STARTCHAR divide
ENCODING 247
SWIDTH 559 0
DWIDTH 18 0
BBX 17 20 0 -1
BITMAP
000000003830000000
00000003FFF5000000
0000000CFFFE300000
0000000CFFFF600000
0000000CFFFD000000
00000007FFD8000000
000000001000000000
000012344565320000
5ABDFFFFFFFFFFD300
CFFFFFFFFFFFFFFE50
AFFFFFFFFFFFFFFF80
5FFFFFFFEEDDBA8400
07B853100000000000
000001400000000000
000009FFC500000000
00008FFFFB00000000
0000AFFFF800000000
00004FFFF400000000
00000BFF8000000000
000000640000000000
ENDCHAR
STARTCHAR oslash
ENCODING 248
SWIDTH 632 0
DWIDTH 20 0
BBX 20 24 0 -4
BITMAP
00000000000196000330
00000000006CFF707FB0
0000000008FFFFFBFFE0
000000008FFFFFFFFFE0
0000002DFFFFFFFFFFD0
000002DFFFFFFFFFFF80
00004EFFFFFFFFFFFA00
0002EFFFFFEFFFFFE000
001DFFFFF82EFFFFF300
009FFFFF61DFFFFFFB00
04FFFFE50BFFFFEFFF30
0CFFFF506FFFF65FFF70
3FFFFB04FFFFA02FFFC0
7FFFF23EFFFC108FFFF1
AFFFB2EFFFD25DFFFFF1
AFFFCDFFFFDEFFFFFFC0
8FFFFFFFFFFFFFFFFF40
2FFFFFFFFFFFFFFFE300
07FFFFFFFFFFFFE91000
007FFFFFFFFEA4000000
005FFFE8851000000000
005FFFF0000000000000
002FFFA0000000000000
0004AB10000000000000
ENDCHAR
STARTCHAR ugrave
ENCODING 249
SWIDTH 584 0
DWIDTH 19 0
BBX 19 30 1 0
BITMAP
0000006B100000000000
000005FFC30000000000
00000DFFFF4000000000
00002FFFFFE400000000
00000BFFFFFE30000000
0000006FFFFFE2000000
00000004EFFFFD100000
000000003DFFFF100000
0000000001BFFE000000
000000000005B6000000
00000000000000010000
000000000000000DA000
000000000000001FF700
01B900000000008FFB00
07FF7000000000AFFF10
0AFFF100000000DFFF50
0CFFF700000002FFFF60
0EFFFB00000007FFFF30
2FFFFA0000000DFFFF00
5FFFF50000007FFFFB00
6FFFF3000003FFFFF400
6FFFF200003EFFFFB000
6FFFF30005EFFFFF3000
5FFFF615CFFFFFE80000
5FFFFEFFFFFFFF600000
1CFFFFFFFFFFF8000000
08FFFFFFFFFFB0000000
03FFFFFFFFFA00000000
00AFFFFFFC5000000000
0018DDEB500000000000
ENDCHAR
STARTCHAR uacute
ENCODING 250
SWIDTH 584 0
DWIDTH 19 0
BBX 19 29 1 0
BITMAP
00000000000000980000
0000000000001AFF8000
000000000002DFFFF200
00000000002DFFFFF600
0000000001DFFFFFC200
000000000CFFFFF90000
00000000BFFFFF700000
00000000DFFFE5000000
00000000BFFC30000000
000000003B6000010000
000000000000000DA000
000000000000001FF700
01B900000000008FFB00
07FF7000000000AFFF10
0AFFF100000000DFFF50
0CFFF700000002FFFF60
0EFFFB00000007FFFF30
2FFFFA0000000DFFFF00
5FFFF50000007FFFFB00
6FFFF3000003FFFFF400
6FFFF200003EFFFFB000
6FFFF30005EFFFFF3000
5FFFF615CFFFFFE80000
5FFFFEFFFFFFFF600000
1CFFFFFFFFFFF8000000
08FFFFFFFFFFB0000000
03FFFFFFFFFA00000000
00AFFFFFFC5000000000
0018DDEB500000000000
ENDCHAR
STARTCHAR ucircumflex
ENCODING 251
SWIDTH 584 0
DWIDTH 19 0
BBX 19 29 1 0
BITMAP
00000000029A30000000
000000005EFFF8000000
00000006FFFFFF900000
0000006FFFFFFFFA0000
000019FFFFCAFFFFB200
00005FFFFD10AFFFF900
00002FFFE2001CFFF500
000008FC2000019FC000
00000071000000072000
00000000000000010000
000000000000000DA000
000000000000001FF700
01B900000000008FFB00
07FF7000000000AFFF10
0AFFF100000000DFFF50
0CFFF700000002FFFF60
0EFFFB00000007FFFF30
2FFFFA0000000DFFFF00
5FFFF50000007FFFFB00
6FFFF3000003FFFFF400
6FFFF200003EFFFFB000
6FFFF30005EFFFFF3000
5FFFF615CFFFFFE80000
5FFFFEFFFFFFFF600000
1CFFFFFFFFFFF8000000
08FFFFFFFFFFB0000000
03FFFFFFFFFA00000000
00AFFFFFFC5000000000
0018DDEB500000000000
ENDCHAR
STARTCHAR udieresis
ENCODING 252
SWIDTH 584 0
DWIDTH 19 0
BBX 19 28 1 0
BITMAP
00000016100000432000
00001BFFB1000AFFF600
00003FFFFB000CFFFF30
00006FFFFE000CFFFF30
00004FFFE5000AFFFA00
000008BB3000003A5000
00000000000000000000
00000000000000000000
00000000000000010000
000000000000000DA000
000000000000001FF700
01B900000000008FFB00
07FF7000000000AFFF10
0AFFF100000000DFFF50
0CFFF700000002FFFF60
0EFFFB00000007FFFF30
2FFFFA0000000DFFFF00
5FFFF50000007FFFFB00
6FFFF3000003FFFFF400
6FFFF200003EFFFFB000
6FFFF30005EFFFFF3000
5FFFF615CFFFFFE80000
5FFFFEFFFFFFFF600000
1CFFFFFFFFFFF8000000
08FFFFFFFFFFB0000000
03FFFFFFFFFA00000000
00AFFFFFFC5000000000
0018DDEB500000000000
ENDCHAR
STARTCHAR yacute
ENCODING 253
SWIDTH 400 0
DWIDTH 13 0
BBX 17 33 1 -1
BITMAP
000000000000099000
000000000001AFF800
00000000002DFFFF20
0000000001DFFFFF60
000000001DFFFFFD20
00000000CFFFFF9000
0000000BFFFFF70000
0000000CFFFF500000
0000000AFFD3000000
00000003B700000000
000000000000000000
000000000000000000
021000000001530000
2EE70000003DFD3000
4FFFA00002EFFFF200
1FFFF1002DFFFFF300
0EFFF500CFFFFF8000
0DFFF707FFFFF70000
0BFFFB3FFFFF900000
08FFFEEFFFFB000000
05FFFFFFFFD1000000
00EFFFFFFF40000000
008FFFFFFA00000000
001CFFFFF200000000
000CFFFF8000000000
006FFFFD1000000000
01EFFFF40000000000
07FFFFA00000000000
1EFFFF300000000000
6FFFF9000000000000
9FFFF1000000000000
5FFF90000000000000
06EC10000000000000
ENDCHAR
STARTCHAR thorn
ENCODING 254
SWIDTH 579 0
DWIDTH 19 0
BBX 19 21 0 -1
BITMAP
00002910000000000000
0003EF60000000000000
0009FFC0000000000000
001EFFF5210000000000
004FFFFFFFEDB9500000
008FFFFFFFFFFFFD7000
009FFFFFFFFFFFFFF800
00EFFFFCBBCDEFFFFF30
03FFFFC000002FFFFF80
07FFFF8000008FFFFFA0
0AFFFF50003BFFFFFF70
0DFFFF303BFFFFFFFA00
0EFFFF8CFFFFFFFF6000
0EFFFFFFFFFFFF910000
1FFFFFFFFFFC62000000
1FFFFFFFD83000000000
0CFFFD84000000000000
08FFFB00000000000000
03FFFB00000000000000
00CFE400000000000000
00120000000000000000
ENDCHAR
STARTCHAR ydieresis
ENCODING 255
SWIDTH 400 0
DWIDTH 13 0
BBX 17 29 1 -1
BITMAP
000002600000143100
0002EFF70000EFFE30
0007FFFF7001FFFFD0
000AFFFFA001FFFFE0
0008FFFD2002CFFF60
0001ABA1000006A200
000000000000000000
000000000000000000
021000000001530000
2EE70000003DFD3000
4FFFA00002EFFFF200
1FFFF1002DFFFFF300
0EFFF500CFFFFF8000
0DFFF707FFFFF70000
0BFFFB3FFFFF900000
08FFFEEFFFFB000000
05FFFFFFFFD1000000
00EFFFFFFF40000000
008FFFFFFA00000000
001CFFFFF200000000
000CFFFF8000000000
006FFFFD1000000000
01EFFFF40000000000
07FFFFA00000000000
1EFFFF300000000000
6FFFF9000000000000
9FFFF1000000000000
5FFF90000000000000
06EC10000000000000
ENDCHAR
STARTCHAR dotlessi
ENCODING 305
SWIDTH 320 0
DWIDTH 10 0
BBX 8 21 1 -1
BITMAP
00000100
0001AF30
0008FF70
000DFFE1
003FFFF2
008FFFF6
009FFFF7
00DFFFF1
02FFFFB0
06FFFF60
0AFFFF20
0DFFFD00
0EFFFB00
0FFFF900
1FFFF700
3FFFF600
0EFFF700
0AFFF900
05FFFA00
01EFF500
00352000
ENDCHAR
STARTCHAR Lslash
ENCODING 321
SWIDTH 632 0
DWIDTH 20 0
BBX 23 25 -3 -1
BITMAP
000000000400000000000000
000000007FE9500000000000
00000000BFFFF60000000000
00000001FFFFFE0000000000
00000005FFFFFC0000000000
0000000BFFFFF60000000000
0000001FFFFFE10000000000
0000006FFFFF900000000000
000000CFFFFFCB6000000000
000002FFFFFFFFFE10000000
0004AEFFFFFFFFFE20000000
17CFFFFFFFFFFE9200000000
EFFFFFFFFFFB610000000000
BFFFFFFFFF60000000000000
5FFFFFFFFF10000000000000
05BAFFFFFA00000000000000
0006FFFFF500000000000000
0009FFFFF200356677400000
000AFFFFFBAEFFFFFFFB5000
0009FFFFFFFFFFFFFFFFFD10
0006FFFFFFFFFFFFFFFFFF40
0001DFFFFFFFFFFFFFFFFF80
00006FFFFFFFFFFFEDFFFC30
00000AFFFFFB732000031000
000000245410000000000000
ENDCHAR
STARTCHAR lslash
ENCODING 322
SWIDTH 533 0
DWIDTH 17 0
BBX 21 21 -4 -1
BITMAP
0000000003000000000000
000000005FD92000000000
00000000AFFFD100000000
00000000EFFFF300000000
00000004FFFFC000000000
00000009FFFF7000000000
0000000EFFFE1000000000
0000005FFFFEBA20000000
000002BFFFFFFFF5000000
0004CFFFFFFFFFD3000000
09EFFFFFFFFFC600000000
1FFFFFFFFF720000000000
0AFFFFFFFD000000000000
01CEBFFFF7000000000000
00008FFFF4001233200000
0000AFFFF98DFFFFFC5000
00009FFFFFFFFFFFFFFD00
00005FFFFFFFFFFFFFFF30
00000CFFFFFFFFFFFFFF40
000005FFFFFD9754476300
0000002676300000000000
ENDCHAR
STARTCHAR OE
ENCODING 338
SWIDTH 1212 0
DWIDTH 39 0
BBX 40 25 0 -1
BITMAP
0000000000000099300000000000000000000000
0000000000005AFFE10000000000003579BDEC10
000000000006FFFFFD2000000048CFFFFFFFFFD4
00000000007FFFFFFFC00028CFFFFFFFFFFFFFF9
000000002AFFFFFFFFD007FFFFFFFFFFFFFFFFF3
00000002DFFFFFFFFF700FFFFFFFFFFFFFFFFC30
0000002DFFFFFFFFFFA00CFFFFFFFFFFEB862000
000005EFFFFFFFFFFFF209FFFFFFEDB600000000
00003FFFFFFFFFDFFFFA05FFFFF9100000000000
0002EFFFFFFC350CFFFF30CFFFFA445674000000
000BFFFFFF900004FFFFA0CFFFFFFFFFFE300000
007FFFFFF7000000BFFFF7FFFFFFFFFFFFE80000
02FFFFFF700000002FFFFFFFFFFFFFFFFFFE0000
09FFFFF80000000009FFFFFFFFFFFFFFFFC30000
1FFFFFD10000000005FFFFFFFFFFFFFFD6000000
5FFFFF300000000009FFFFFFFD13423100000000
8FFFFA00000000029FFFFFFFF400000000000000
AFFFF6000000039FFFFFFFFFB000000003650000
9FFFFC644689EFFFFFFFFFFF9445789AEFFF5000
8FFFFFFFFFFFFFFFFFFFFFFFFFFFFFFFFFFFF500
1EFFFFFFFFFFFFFFFFFFFFFFFFFFFFFFFFFFF900
07FFFFFFFFFFFFFFFFD9FFFFFFFFFFFFFFFFD100
008FFFFFFFFFFFFE8400BFFFFFFFFFFFFFFA1000
0005CFFFFFFEB951000019EFFFFFEDDA85100000
0000013245200000000000013321000000000000
ENDCHAR
STARTCHAR oe
ENCODING 339
SWIDTH 1010 0
DWIDTH 32 0
BBX 34 21 0 -1
BITMAP
000000000002A600000000000000000000
00000000007CFF50000000002579BEEB10
0000000009FFFFF5000026AEFFFFFFFFE1
000000019FFFFFFD006DFFFFFFFFFFFFE1
0000003DFFFFFFF805FFFFFFFFFFFFFD40
000002EFFFFFFFFA04FFFFFFFFFDA73000
00005EFFFFFFFFFF21FFFFFEB930000000
0003EFFFFFCDBFFF90BFFFF10000000000
001DFFFFF7001EFFF24FFFFCCCDD400000
00AFFFFF400007FFFAAFFFFFFFFFE60000
05FFFFE4000000DFFFFFFFFFFFFFFF1000
0DFFFF400000006FFFFFFFFFFFFFD40000
3FFFF9000000003FFFFFFEBDCCB6100000
8FFFE100000001AFFFFFF6000000000000
AFFFA00000017EFFFFFFD0000000130000
AFFFC53467AEFFFFFFFF9335778DFF5000
8FFFFFFFFFFFFFFFFFFFFFFFFFFFFFF500
1EFFFFFFFFFFFFFFFFFFFFFFFFFFFFF500
05FFFFFFFFFFFFC65FFFFFFFFFFFFF8000
004DFFFFFFED820008FFFFFFFFEB720000
0000355662000000001455431100000000
ENDCHAR
STARTCHAR Scaron
ENCODING 352
SWIDTH 576 0
DWIDTH 18 0
BBX 22 35 0 -1
BITMAP
0000000075000000075000
00000005FF6000008FE300
0000000DFFF7000AFFFA00
0000001FFFFF508FFFFD00
00000004EFFFF9FFFFC300
000000002DFFFFFFFB1000
0000000002DFFFFFB10000
00000000001BFFF9000000
0000000000005940000000
0000000000000000000000
0000000000000134542000
000000000048CFFFFFFD10
000000159EFFFFFFFFFF80
00003AFFFFFFFFFFFFFFF2
004CFFFFFFFFFFFFFFFFFB
07FFFFFFFFFFFFFFFFFFFC
4FFFFFFFFFFB8548655771
7FFFFFFFF8100000000000
9FFFFFFFFEA30000000000
8FFFFFFFFFFE9100000000
3FFFFFFFFFFFF900000000
03BFFFFFFFFFFE00000000
00003469AFFFFFB0000000
00000000017CFFF6000000
000000000000EFFC000000
000000000008FFFD000000
00000000007FFFFD000000
000000005DFFFFF8000000
0000027DFFFFFFE2000000
01BBDFFFFFFFFF50000000
02FFFFFFFFFFF600000000
02FFFFFFFFFD4000000000
01FFFFFFFE710000000000
00BFFFFC61000000000000
0015532000000000000000
ENDCHAR
STARTCHAR scaron
ENCODING 353
SWIDTH 463 0
DWIDTH 15 0
BBX 19 32 0 -1
BITMAP
00000920000000830000
00009FE300001AFD1000
0002FFFF4001CFFF7000
0004FFFFE30BFFFF9000
00007FFFFDAFFFFA1000
000004EFFFFFFF900000
0000004EFFFFF8000000
00000003DFFF60000000
00000000179300000000
00000000000000000000
00000000000000000000
00000000000134310000
0000000048DFFFFFB000
0000039EFFFFFFFFF600
0028DFFFFFFFFFFFFD10
06FFFFFFFFFFFFFFFF50
4FFFFFFFFCA688778600
8FFFFFFE300000000000
9FFFFFFFE80000000000
7FFFFFFFFFE300000000
09FFFFFFFFF900000000
001468ADFFFF40000000
000000004AFFD1000000
0000000000EFF4000000
000000000AFFF5000000
00000004CFFFF2000000
000015CFFFFFA0000000
04CCFFFFFFFD10000000
06FFFFFFFFC100000000
06FFFFFFF81000000000
03FFFFE9200000000000
00576400000000000000
ENDCHAR
STARTCHAR Ydieresis
ENCODING 376
SWIDTH 493 0
DWIDTH 16 0
BBX 19 33 1 -1
BITMAP
00000016100000432000
00001BFFB1000AFFF600
00003FFFFB000CFFFF30
00006FFFFE000CFFFF30
00004FFFE5000AFFFA00
000008BB3000003A5000
00000000000000000000
00000000000000000000
02300000000000480000
0EFA200000002CFF9000
2FFFF6000002DFFFFC10
1FFFFE00000BFFFFFF30
0DFFFF2001CFFFFFFD10
0DFFFF5006FFFFFFD200
0BFFFF802EFFFFFE2000
08FFFFC0CFFFFFE30000
05FFFFEAFFFFFF600000
03FFFFFFFFFFF6000000
00DFFFFFFFFFB0000000
007FFFFFFFFE20000000
001EFFFFFFF700000000
0006FFFFFFE000000000
0002FFFFFF5000000000
000AFFFFFB0000000000
003FFFFFE20000000000
00BFFFFF800000000000
03FFFFFD000000000000
0BFFFFF7000000000000
3FFFFFD1000000000000
8FFFFF30000000000000
8FFFFC00000000000000
2EFFF400000000000000
02BE8000000000000000
ENDCHAR
STARTCHAR Zcaron
ENCODING 381
SWIDTH 664 0
DWIDTH 21 0
BBX 24 37 -1 -2
BITMAP
000000000000830000000830
000000000008FE400001AFE2
00000000001FFFF5000BFFF8
00000000003FFFFE30AFFFFA
000000000006EFFFEAFFFFB2
0000000000003EFFFFFFFA00
00000000000003EFFFFF9000
000000000000002CFFF70000
000000000000000069300000
000000000000000000000000
000000000000000000000000
000000000000000000000000
0000019ACEEDBABBBAACA400
000005FFFFFFFFFFFFFFFF10
000004FFFFFFFFFFFFFFFFC1
000001FFFFFFFFFFFFFFFFF3
0000009FFFFFFFFFFFFFFFF1
00000009BA8765DFFFFFFF90
00000000000009FFFFFFF900
000000000000CFFFFFFE5000
00000000003DFFFFFFD20000
0000000018FFFFFFFD100000
00000005DFFFFFFFD2000000
000001AFFFFFFFFC10000000
00002CFFFFFFFF8000000000
0007FFFFFFFFD30000000000
01BFFFFFFFF8000000000000
07FFFFFFFD40000000100000
0DFFFFFFB10000039EE50000
2FFFFFF900027CFFFFFC7000
4FFFFFFD79DFFFFFFFFFE000
4FFFFFFFFFFFFFFFFFFF9000
1EFFFFFFFFFFFFFFFFD60000
06FFFFFFFFFFFFFFA5000000
00BFFFFFFFFDBA5100000000
0008BFFFEA72000000000000
000014420000000000000000
ENDCHAR
STARTCHAR zcaron
ENCODING 382
SWIDTH 547 0
DWIDTH 18 0
BBX 21 33 -1 -2
BITMAP
0000000007500000007500
000000005FF6000008FE30
00000000DFFF7000AFFFA0
00000001FFFFF508FFFFD0
000000004EFFFF9FFFFC30
0000000002DFFFFFFFB100
00000000002DFFFFFB1000
000000000001BFFF900000
0000000000000594000000
0000000000000000000000
0000000000000000000000
0000000000000000000000
00000ABDEECBCCCBCA2000
00002FFFFFFFFFFFFFA000
00001FFFFFFFFFFFFFF600
00000AFFFFFFFFFFFFF600
000001ABA877EFFFFFE100
00000000001BFFFFFD3000
0000000002DFFFFF910000
000000006FFFFFF7000000
0000003CFFFFFF80000000
000008FFFFFFF700000000
0002AFFFFFFD4000000000
005EFFFFFF910000000000
06FFFFFFD4000000000000
0DFFFFFB1000028A200000
2FFFFF80015ADFFFA40000
4FFFFFC8CFFFFFFFF90000
4FFFFFFFFFFFFFFFD30000
0CFFFFFFFFFFFFD7100000
03FFFFFFFFED8300000000
004AFFFDA5100000000000
0000331000000000000000
ENDCHAR
STARTCHAR circumflex
ENCODING 710
SWIDTH 754 0
DWIDTH 24 0
BBX 14 9 7 16
BITMAP
0000029A200000
00006FFFF60000
0008FFFFFF8000
008FFFFFFFF800
1AFFFFBBFFFFA1
7FFFFC11CFFFF7
4FFFD1001DFFF4
0AFB100001BFA0
01710000001710
ENDCHAR
STARTCHAR caron
ENCODING 711
SWIDTH 754 0
DWIDTH 24 0
BBX 14 9 7 16
BITMAP
02910000001920
0BFC200002CFB0
4FFFE2002EFFF4
7FFFFD11DFFFF7
18FFFFCCFFFF81
006FFFFFFFF600
0006FFFFFF6000
00004EFFE40000
00000188100000
ENDCHAR
STARTCHAR breve
ENCODING 728
SWIDTH 754 0
DWIDTH 24 0
BBX 14 8 7 17
BITMAP
01910000001910
0BFC100001CFB0
4FFFD2002DFFF4
7FFFFEBBEFFFF7
2BFFFFFFFFFFB2
00AFFFFFFFFA00
0005BEFFEB5000
00000043000000
ENDCHAR
STARTCHAR dotaccent
ENCODING 729
SWIDTH 754 0
DWIDTH 24 0
BBX 6 6 11 18
BITMAP
002600
2EFF70
7FFFF6
AFFFFA
8FFFD2
2ABA10
ENDCHAR
STARTCHAR ring
ENCODING 730
SWIDTH 754 0
DWIDTH 24 0
BBX 10 11 9 16
BITMAP
0000001000
000008F600
0001AFFF10
002CFFFE10
01DFFFFF80
0AFFFDFFE1
4FFF62FFF6
9FFFBDFFFA
AFFFFFFFF7
5FFFFFFF80
07DEEB8200
ENDCHAR
STARTCHAR ogonek
ENCODING 731
SWIDTH 754 0
DWIDTH 24 0
BBX 13 11 9 -9
BITMAP
00210000000000
07F80000000000
1FF80000000000
7FF90000000000
7FFB0000000000
5FFE1000000000
2FFFC853321000
09FFFFFFFFFC10
00BFFFFFFFFF70
0006CFFFFFFD30
00000146866100
ENDCHAR
STARTCHAR tilde
ENCODING 732
SWIDTH 754 0
DWIDTH 24 0
BBX 16 7 6 17
BITMAP
0005BDDC50007BC6
009FFFFFF809FFF9
05FFFFFFFFBFFFF2
1EFFFEFFFFFFFF70
8FFFB0BFFFFFFC00
8FEA2008FFFE8000
0000000002100000
ENDCHAR
STARTCHAR hungarumlaut
ENCODING 733
SWIDTH 754 0
DWIDTH 24 0
BBX 18 10 5 14
BITMAP
0000007A0000004B20
000019FFA00006EFD1
0001CFFFF3009FFFF8
001CFFFFF808FFFFFC
01CFFFFFD38FFFFFF7
0BFFFFFA16FFFFFD30
9FFFFF805FFFFFC100
BFFFF6006FFFFA1000
9FFD40004FFF700000
2B7100000992000000
ENDCHAR
STARTCHAR endash
ENCODING 8211
SWIDTH 588 0
DWIDTH 19 0
BBX 17 6 0 5
BITMAP
02458ABBCCDDBA7100
6FFFFFFFFFFFFFFC20
6FFFFFFFFFFFFFFFD0
3FFFFFFFFFFFFFFE80
09FFDB987776542000
002100000000000000
ENDCHAR
STARTCHAR emdash
ENCODING 8212
SWIDTH 878 0
DWIDTH 28 0
BBX 27 6 0 6
BITMAP
0000000000000001100000000000
1799AACEFFFFFFFFFFEDCB840000
5FFFFFFFFFFFFFFFFFFFFFFF9300
2FFFFFFFFFFFFFFFFFFFFFFFFF20
09FFFFFFFFFFFFFFFFFFFFFDB810
007CDB9765433333333221000000
ENDCHAR
STARTCHAR quoteleft
ENCODING 8216
SWIDTH 203 0
DWIDTH 7 0
BBX 8 11 2 14
BITMAP
00004100
000AFE93
007FFFFE
01EFFFFD
06FFFFF4
0AFFFFA0
1EFFFF20
1FFFFA00
0FFFF400
0BFFF100
00266000
ENDCHAR
STARTCHAR quoteright
ENCODING 8217
SWIDTH 199 0
DWIDTH 6 0
BBX 8 11 2 14
BITMAP
00012000
000CFA40
002FFFF6
006FFFFA
00AFFFF9
01EFFFF5
06FFFFD1
1EFFFF50
9FFFFC00
4EFFD300
018A2000
ENDCHAR
STARTCHAR quotesinglbase
ENCODING 8218
SWIDTH 204 0
DWIDTH 7 0
BBX 8 11 -4 -6
BITMAP
00006100
000BFE93
000EFFFB
004FFFFE
008FFFFB
00DFFFF7
05FFFFE1
1DFFFF70
6FFFFD00
19FFD200
00381000
ENDCHAR
STARTCHAR quotedblleft
ENCODING 8220
SWIDTH 410 0
DWIDTH 13 0
BBX 15 11 2 14
BITMAP
0001300000140000
002DFC6103EFD610
00AFFFF50DFFFF90
03FFFFF56FFFFF80
07FFFFC0BFFFFD00
0AFFFF51FFFFF400
0DFFFD06FFFFB000
1FFFF807FFFF4000
0FFFF306FFFD0000
0DFFF003EFFA0000
05CFD00004730000
ENDCHAR
STARTCHAR quotedblright
ENCODING 8221
SWIDTH 425 0
DWIDTH 14 0
BBX 15 11 2 14
BITMAP
0001200000020000
000CFA40005ED710
002FFFF600BFFFD0
006FFFFA02FFFFE0
00AFFFF907FFFFC0
01EFFFF50DFFFF60
06FFFFD17FFFFD10
1EFFFF53EFFFF400
9FFFFC0DFFFF8000
4EFFD309FFFA1000
018A20004B600000
ENDCHAR
STARTCHAR quotedblbase
ENCODING 8222
SWIDTH 430 0
DWIDTH 14 0
BBX 16 11 -4 -6
BITMAP
0000610000044000
000BFE93004FFC60
000EFFFB009FFFF2
004FFFFE00EFFFF3
008FFFFB05FFFFE0
00DFFFF70CFFFF80
05FFFFE15FFFFD10
1DFFFF72EFFFF400
6FFFFD0BFFFFA000
19FFD203DFF90000
0038100006500000
ENDCHAR
STARTCHAR bullet
ENCODING 8226
SWIDTH 299 0
DWIDTH 10 0
BBX 7 8 1 6
BITMAP
00110000
07FEA100
3FFFF900
DFFFFF70
CFFFFFC0
BFFFFF40
AFFFFE00
3EDB9700
ENDCHAR
STARTCHAR ellipsis
ENCODING 8230
SWIDTH 768 0
DWIDTH 25 0
BBX 23 6 -1 -1
BITMAP
06C8500000BB7300002D9610
4EFFF90008FFFF4001CFFFD0
CFFFFA002FFFFF4008FFFFE0
8FFFF5001DFFFE0004FFFF90
3FFFD10008FFF90000DFFF40
05CA1000009C6000002CB300
ENDCHAR
STARTCHAR perthousand
ENCODING 8240
SWIDTH 889 0
DWIDTH 28 0
BBX 28 23 1 0
BITMAP
000002A500000000003700000000
00003EFF3000000007FE00000000
0006FFFF300000009FFD00000000
007FFFFF90000008FFFA00000000
04FFFFFFF200008FFFF500000000
0DFFC3EFF80009FFFF9000000000
5FFF98EFFC006FFFF80000000000
7FFFFFFFFC06FFFF700000000000
4FFFFFFFE47FFFF6000000000000
08FFFFD718FFFF50000000000000
002331007FFFF500000000000000
00000006FFFF5000000000000000
0000007FFFF60183000000019200
000009FFFF502DFE2000002EFD10
0000AFFFE404EFFF200005FFFF10
001BFFFE405FFFFF60007FFFFF60
00BFFFE303FFFFFFE104FFFFFFD0
07FFFE300DFFD5FFF70DFFD6FFF5
1EFFF4004FFF75EFFB5FFF66FFFA
6FFFD1007FFFFFFFFC9FFFFFFFFB
9FFF90006FFFFFFFF57FFFFFFFE4
AFFF40000BFFFFEA301CFFFFE920
4BD5000000466310000056631000
ENDCHAR
STARTCHAR guilsinglleft
ENCODING 8249
SWIDTH 322 0
DWIDTH 10 0
BBX 11 15 -1 -1
BITMAP
000000007700
00000009FF30
0000009FFF40
00002BFFFE20
0005EFFFF500
06AFFFFF5000
3FFFFFD30000
4FFFF9100000
1FFFF5000000
09FFFF900000
01CFFFFA0000
001BFFFF4000
00008FFFA000
000003BFE000
000000067000
ENDCHAR
STARTCHAR guilsinglright
ENCODING 8250
SWIDTH 341 0
DWIDTH 11 0
BBX 10 15 -1 -1
BITMAP
0193000000
03FF920000
01DFFF4000
008FFFF800
001CFFFF80
0001BFFFF5
000008FFFC
00003DFFFF
0007FFFFFD
009FFFFF73
0AFFFFC300
6FFFF70000
9FFF400000
8FE4000000
1840000000
ENDCHAR
STARTCHAR fraction
ENCODING 8260
SWIDTH 541 0
DWIDTH 17 0
BBX 17 25 0 -1
BITMAP
000000000000000440
000000000000007FC0
00000000000006FFE0
0000000000003FFFF0
000000000001DFFFD0
00000000000BFFFF90
00000000007FFFFB00
0000000003EFFFD100
000000001DFFFE2000
00000000BFFFF30000
00000009FFFF500000
0000005FFFF8000000
000002EFFFB0000000
00001DFFFD20000000
0001CFFFE300000000
000BFFFF5000000000
00AFFFF70000000000
06FFFFA00000000000
0EFFFC100000000000
5FFFE2000000000000
8FFFD0000000000000
AFFFA0000000000000
9FFFB0000000000000
4FFF30000000000000
025400000000000000
ENDCHAR
STARTCHAR Euro
ENCODING 8364
SWIDTH 565 0
DWIDTH 18 0
BBX 19 20 -1 0
BITMAP
00000000000000220000
00000000000019FF7000
000000000017EFFFF800
0000000004DFFFFFFF10
00000003CFFFFFFFFD00
0000005EFFFFFFFFE400
000005FFFFFFFFA51000
00003EFFFFFF81000000
0000DFFFFFC500000000
0006FFFFFD7542000000
3BDFFFFFFFFFFFA00000
7FFFFFFFFFFFFFFC0000
4FFFFFFFFFFFFFFD0000
0CFFFFFBAA9875300000
0156FFFC731000000000
0000DFFFFFFFEDCC3000
00005FFFFFFFFFFFE200
000005EFFFFFFFFFF600
00000029DFFFFFFFA000
000000000368A9860000
ENDCHAR
STARTCHAR Delta
ENCODING 8710
SWIDTH 403 0
DWIDTH 13 0
BBX 20 21 -2 -1
BITMAP
00000000011233310000
0000079BEFFFFFFFE900
00003FFFFFFFFFFFFFA0
00001FFFFFFFFFFFFFF1
00000CFFFFFFFEDCA720
000002A85DFFF5000000
000000000EFFF1000000
000000004FFFC0000000
000000009FFF80000000
00000000DFFF30000000
00000003FFFE00000000
0000000AFFFA00000000
0000001FFFF600000000
0000006FFFE100000000
000000DFFF9000000000
000005FFFF8500000000
079BDFFFFFFFC1000000
1FFFFFFFFFFFFA000000
0DFFFFFFFFFFF5000000
08FFFEB9996630000000
00652000000000000000
ENDCHAR
STARTCHAR minus
ENCODING 8722
SWIDTH 548 0
DWIDTH 18 0
BBX 18 6 -1 5
BITMAP
01357AABBCCDBA8300
1FFFFFFFFFFFFFFF50
1FFFFFFFFFFFFFFFF4
0DFFFFFFFFFFFFFFB2
04FFECA87776543100
001200000000000000
ENDCHAR
STARTCHAR approxequal
ENCODING 8776
SWIDTH 323 0
DWIDTH 10 0
BBX 9 25 1 -1
BITMAP
0000011000
00007F9000
0008FFD000
000DFFF400
004FFFFB00
008FFFFC00
00EFFFFE20
00EFFFFF20
02FFFFFC00
06FFFFF700
0AFFFFF200
0EFFFFD000
3FFFFF9000
6FFFFF5000
8FFFFF1000
8FFFFE0000
9FFFFC0000
BFFFFB0000
CFFFFB0000
8FFFFB0000
4FFFFD0000
0EFFFF0000
0AFFFE0000
03FFE50000
0023100000
ENDCHAR
STARTCHAR fi
ENCODING 64257
SWIDTH 810 0
DWIDTH 26 0
BBX 26 21 -1 -1
BITMAP
00000000000002466300000100
00000000038BEFFFFF5002DD00
00000159EFFFFFFFFFF60DFF20
0005AEFFFFFFFFFFFFFC3FFFA0
007FFFFFFFFFFFDBA9838FFFD0
008FFFFFFFB730000000DFFFF2
003EFFFFF70000000000EFFFF2
0005DFFFF20000000002FFFFC0
00006FFFB00000000007FFFF60
0000CFFF70001210000BFFFF20
08EAFFFFDACEFF90000EFFFD00
6FFFFFFFFFFFFFF5003FFFF900
8FFFFFFFFFFFFFD1004FFFF600
3FFFFFFFFFFFDB30005FFFF400
07FFFFEC95310000006FFFF200
02FFFF2000000000007FFFF200
06FFFC0000000000004FFFF200
08FFF60000000000000EFFF400
05FFF60000000000000AFFF500
00BFF200000000000004FFE100
00043000000000000000551000
ENDCHAR
STARTCHAR fl
ENCODING 64258
SWIDTH 1012 0
DWIDTH 32 0
BBX 33 21 -1 -1
BITMAP
0000000000000246630002100000000000
00000000038BEFFFFF500EFA5000000000
00000159EFFFFFFFFFF64FFFF400000000
0005AEFFFFFFFFFFFFFC8FFFF900000000
007FFFFFFFFFFFDBA983DFFFF300000000
008FFFFFFFB730000004FFFFD000000000
003EFFFFF70000000009FFFF6000000000
0005DFFFF2000000000EFFFF1000000000
00006FFFB0000000005FFFFB0000000000
0000CFFF7000121000BFFFF40000000000
08EAFFFFDACEFF9001FFFFE00000000000
6FFFFFFFFFFFFFF505FFFF900000000000
8FFFFFFFFFFFFFD10AFFFF300000000000
3FFFFFFFFFFFDB300EFFFD000000000000
07FFFFEC953100003FFFFA000223310000
02FFFF20000000004FFFFC8CFFFFFE7100
06FFFC00000000003FFFFFFFFFFFFFFF40
08FFF600000000000EFFFFFFFFFFFFFF80
05FFF6000000000007FFFFFFFFFFFFFFA0
00BFF2000000000001DFFFFEA764467500
0004300000000000000577400000000000
ENDCHAR
STARTCHAR .notdef
ENCODING -1
SWIDTH 370 0
DWIDTH 12 0
BBX 1 1 0 0
BITMAP
00
ENDCHAR
ENDFONT
